<?xml version="1.0" encoding="UTF-8" standalone="no"?>
<svg
   xmlns:dc="http://purl.org/dc/elements/1.1/"
   xmlns:cc="http://creativecommons.org/ns#"
   xmlns:rdf="http://www.w3.org/1999/02/22-rdf-syntax-ns#"
   xmlns:svg="http://www.w3.org/2000/svg"
   xmlns="http://www.w3.org/2000/svg"
   xmlns:xlink="http://www.w3.org/1999/xlink"
   version="1.1"
   viewBox="0 0 1009.5405 626.56047"
   height="626.56049"
   width="1009.5405"
   data-name="Layer 1"
   id="cbb92aef-a4c8-4910-9d60-405154a20c92">
  <metadata
     id="metadata1319">
    <rdf:RDF>
      <cc:Work
         rdf:about="">
        <dc:format>image/svg+xml</dc:format>
        <dc:type
           rdf:resource="http://purl.org/dc/dcmitype/StillImage" />
        <dc:title>add to cart</dc:title>
      </cc:Work>
    </rdf:RDF>
  </metadata>
  <defs
     id="defs1085">
    <linearGradient
       gradientUnits="userSpaceOnUse"
       y2="117"
       x2="654.32001"
       y1="613.23999"
       x1="654.32001"
       id="6af09e6e-7617-4e7d-96c6-87d8d61cc5fb">
      <stop
         id="stop1077"
         stop-opacity="0.25"
         stop-color="gray"
         offset="0" />
      <stop
         id="stop1079"
         stop-opacity="0.12"
         stop-color="gray"
         offset="0.54" />
      <stop
         id="stop1081"
         stop-opacity="0.1"
         stop-color="gray"
         offset="1" />
    </linearGradient>
    <linearGradient
       xlink:href="#6af09e6e-7617-4e7d-96c6-87d8d61cc5fb"
       y2="223.28"
       x2="475.64999"
       y1="861.71002"
       x1="475.64999"
       id="f366e0cb-9767-4f71-a21d-568f9afb6f3a" />
    <linearGradient
       gradientTransform="translate(108.70928,2.735117)"
       y2="117"
       x2="654.32001"
       y1="613.23999"
       x1="654.32001"
       gradientUnits="userSpaceOnUse"
       id="linearGradient1427"
       xlink:href="#6af09e6e-7617-4e7d-96c6-87d8d61cc5fb" />
  </defs>
  <title
     id="title1087">add to cart</title>
  <g
     transform="translate(-106.65845,-0.75310698)"
     id="g1537">
    <path
       d="m 1131.06,604.2 c -1,0.73 -1.92,1.44 -2.9,2.13 a 97.79,97.79 0 0 1 -11.33,6.91 c -20.58,10.85 -45.95,16.15 -70.66,19.75 -55.42,8.08 -112,9.65 -168.34,11.19 -152.23,4.18 -304.83,8.35 -456.69,-1.28 -60,-3.8 -121.32,-10.16 -175.69,-29.66 q -11.69,-4.18 -22.92,-9.22 c -15.15,-6.81 -29.7,-15.1 -41.8,-25 -11.37,-9.28 -20.59,-19.94 -26.1,-32.06 -11.49,-25.24 -5.41,-53.59 7.71,-78.33 a 243.42,243.42 0 0 1 18.39,-28.77 c 10.13,-13.93 21.3,-27.46 31.49,-41.38 36.26,-49.48 59.92,-112.08 26.45,-162.83 -9.62,-14.58 -23.52,-27.38 -31.36,-42.6 -10,-19.47 -9.23,-41.09 -6.05,-62.09 q 0.62,-4 1.31,-7.92 C 208,91.9 218.22,58.35 249.73,38.91 c 32.73,-20.2 79.21,-19.18 119.83,-12 63.17,11.28 121.44,34.76 180.33,55.96 58.89,21.2 120.5,40.57 185.22,42.65 57.15,1.84 123.81,-11.93 161.74,-47.72 36.84,-34.76 106.09,-37.41 156,-16.41 34.26,14.41 59.82,40.37 70.6,69.57 a 90.81,90.81 0 0 1 4.69,18.12 83.56,83.56 0 0 1 0.84,17.09 c -0.15,2.82 -0.44,5.61 -0.84,8.37 -8.34,57.62 -68.37,103.07 -104.86,154.54 -17.83,25.14 -30.42,55.34 -18.16,82.45 18.7,41.31 83.73,56 123,86.74 a 92.4,92.4 0 0 1 19.3,19.8 c 19.05,27.36 12.02,64.31 -16.36,86.13 z"
       transform="translate(-41.9,-21.46)"
       fill="#6c63ff"
       opacity="0.1"
       id="path1089"
       style="opacity:1;fill:#eaeeef;fill-opacity:1" />
    <g
       id="1cf578eb-5ffb-4cd7-95b8-45aaaddab7e0"
       data-name="browser"
       transform="translate(-2.0508277,-1.982008)">
      <path
         d="M 1130,606.13 V 117 H 178.65 v 461.07 c 12.15,10.14 26.76,18.67 42,25.68 q 11.26,5.19 23,9.49 h 875 z"
         transform="translate(-41.9,-21.46)"
         fill="url(#6af09e6e-7617-4e7d-96c6-87d8d61cc5fb)"
         id="path1175"
         style="fill:url(#linearGradient1427)" />
      <path
         d="M 1128.16,606.33 V 131 H 180.73 v 448.1 c 12.1,9.86 26.65,18.15 41.8,25 q 11.22,5 22.92,9.22 h 871.38 z"
         transform="translate(-41.9,-21.46)"
         fill="#ffffff"
         id="path1177" />
      <rect
         x="138.84"
         y="96.93"
         width="947.41998"
         height="25.139999"
         fill="#5a5773"
         id="rect1179" />
    </g>
    <g
       id="6703b009-63cb-4af0-a0d7-9948e224c180"
       data-name="buttons">
      <circle
         cx="157.75999"
         cy="109.5"
         r="6.5"
         fill="#ffffff"
         id="circle1182" />
      <circle
         cx="175.25999"
         cy="109.5"
         r="6.5"
         fill="#ffffff"
         id="circle1184" />
      <circle
         cx="192.75999"
         cy="109.5"
         r="6.5"
         fill="#ffffff"
         id="circle1186" />
    </g>
    <g
       id="8c4e1fb4-b9ff-4530-b767-610e84618ea6"
       data-name="boxes">
      <rect
         x="380.95001"
         y="177.32001"
         width="156.5"
         height="98.339996"
         fill="#6c63ff"
         id="rect1189" />
      <rect
         x="164.25999"
         y="177.32001"
         width="156.5"
         height="98.339996"
         fill="#5a5773"
         opacity="0.2"
         id="rect1191" />
      <rect
         x="597.64001"
         y="177.32001"
         width="156.5"
         height="98.339996"
         fill="#5a5773"
         opacity="0.2"
         id="rect1193" />
      <rect
         x="164.25999"
         y="317.91"
         width="156.5"
         height="98.339996"
         fill="#5a5773"
         opacity="0.2"
         id="rect1195" />
      <rect
         x="380.95001"
         y="317.91"
         width="156.5"
         height="98.339996"
         fill="#5a5773"
         opacity="0.2"
         id="rect1197" />
      <rect
         x="597.64001"
         y="317.91"
         width="156.5"
         height="98.339996"
         fill="#5a5773"
         opacity="0.2"
         id="rect1199" />
      <rect
         x="164.25999"
         y="458.48999"
         width="156.5"
         height="98.339996"
         fill="#5a5773"
         opacity="0.2"
         id="rect1201" />
      <rect
         x="380.95001"
         y="458.48999"
         width="156.5"
         height="98.339996"
         fill="#5a5773"
         opacity="0.2"
         id="rect1203" />
      <rect
         x="597.64001"
         y="458.48999"
         width="156.5"
         height="98.339996"
         fill="#5a5773"
         opacity="0.2"
         id="rect1205" />
    </g>
    <path
       d="m 930.43,430.37 a 14.31,14.31 0 1 0 14.31,14.31 14.35,14.35 0 0 0 -14.31,-14.31 z M 888.59,318.08 v 14.31 h 14.31 l 25.76,52.18 -10.77,17.53 a 13.76,13.76 0 0 0 -1.79,6.8 c 0,9.58 6.55,14.31 15.43,14.31 h 83.67 v -13.76 h -81.92 a 1.69,1.69 0 0 1 -1.79,-1.79 9,9 0 0 1 0.76,-1.78 l 7.15,-11.29 h 53.31 a 14,14 0 0 0 12.52,-7.51 L 1031,342.77 a 8.31,8.31 0 0 0 0.72,-3.58 6.88,6.88 0 0 0 -7.16,-6.8 H 918.65 l -6.8,-14.31 z m 112.29,112.29 a 14.31,14.31 0 1 0 14.32,14.31 14.35,14.35 0 0 0 -14.32,-14.31 z"
       transform="translate(-41.9,-21.46)"
       fill="#6c63ff"
       id="path1312" />
    <polygon
       points="928.67,345.21 940.67,345.21 940.67,336.21 928.67,336.21 928.67,324.21 919.67,324.21 919.67,336.21 907.67,336.21 907.67,345.21 919.67,345.21 919.67,357.21 928.67,357.21 "
       fill="#ffffff"
       id="polygon1314" />
    <path
       style="opacity:1;fill:#264653;fill-opacity:1;stroke-width:4.29408;stroke-linecap:round;stroke-linejoin:round;stroke-opacity:0.934673"
       d="m 381.58946,226.2594 v -48.58504 h 77.86063 77.86063 v 48.58504 48.58503 h -77.86063 -77.86063 z"
       id="path1335" />
    <path
       style="opacity:1;fill:#264653;fill-opacity:1;stroke-width:4.29408;stroke-linecap:round;stroke-linejoin:round;stroke-opacity:0.934673"
       d="m 881.28038,398.92872 c -1.63752,-0.9076 -3.71989,-2.98998 -4.6275,-4.62749 -3.04347,-5.49108 -2.03614,-10.0724 4.57779,-20.81967 l 6.31626,-10.26358 -13.0885,-26.746 -13.0885,-26.74599 h -6.93123 -6.93124 v -6.22885 -6.22885 h 10.95241 10.95242 l 3.3419,6.81399 3.34189,6.814 54.94711,0.34918 c 52.73883,0.33515 55.01813,0.44637 56.71458,2.76739 0.97211,1.33001 1.76748,3.02942 1.76748,3.77648 0,2.08351 -26.91253,48.05522 -29.85877,51.00444 -2.4494,2.45189 -4.28633,2.63283 -32.6974,3.22072 l -30.1022,0.62289 -4.05971,6.76408 c -2.23284,3.72025 -3.77549,7.22398 -3.4281,7.78607 0.34739,0.56208 19.09822,1.02197 41.66851,1.02197 h 41.03689 v 6.22885 6.22885 l -43.9134,-0.0442 c -34.05474,-0.0342 -44.5818,-0.41461 -46.89069,-1.69433 z m 48.20472,-47.15799 0.3797,-5.91741 h 5.53771 5.5377 v -4.98308 -4.98308 h -5.60596 -5.60597 v -6.22885 -6.22885 h -5.60596 -5.60597 v 6.22885 6.22885 h -5.60596 -5.60597 v 4.98308 4.98308 h 5.60597 5.60596 v 5.39834 c 0,6.60812 0.60732,7.27661 6.18433,6.80721 4.31048,-0.3628 4.41284,-0.49734 4.78442,-6.28814 z"
       id="path1337" />
    <path
       style="opacity:1;fill:#264653;fill-opacity:1;stroke-width:4.29408;stroke-linecap:round;stroke-linejoin:round;stroke-opacity:0.934673"
       d="m 880.03543,433.60501 c -4.55816,-3.83543 -6.09141,-10.14677 -3.80563,-15.66512 1.78982,-4.32102 7.78199,-8.54056 12.13849,-8.54764 6.83485,-0.0111 13.95305,6.9774 13.95305,13.69881 0,4.22052 -3.49702,9.77792 -7.43384,11.81373 -5.40088,2.7929 -10.52069,2.34484 -14.85207,-1.29978 z"
       id="path1341" />
    <path
       style="opacity:1;fill:#264653;fill-opacity:1;stroke-width:4.29408;stroke-linecap:round;stroke-linejoin:round;stroke-opacity:0.934673"
       d="m 951.93537,434.66163 c -7.01169,-4.34991 -8.14128,-14.13134 -2.37695,-20.58275 5.27292,-5.90142 13.618,-5.90142 18.89092,0 5.32312,5.9576 5.10149,12.77805 -0.60049,18.48004 -4.83366,4.83365 -10.33887,5.56108 -15.91348,2.10271 z"
       id="path1343" />
    <path
       style="opacity:1;fill:#264653;fill-opacity:1;stroke-width:4.29408;stroke-linecap:round;stroke-linejoin:round;stroke-opacity:0.934673"
       d="M 139.91007,109.7799 V 97.945082 H 612.67981 1085.4495 V 109.7799 121.61471 H 612.67981 139.91007 Z m 22.63721,4.79 c 4.69942,-4.25291 1.92698,-11.64174 -4.36822,-11.64174 -5.13963,0 -7.05705,1.91252 -7.05705,7.03899 0,6.20573 6.68027,8.89692 11.42527,4.60275 z m 17.44079,0 c 4.69941,-4.25291 1.92697,-11.64174 -4.36823,-11.64174 -4.95899,0 -7.05705,1.89946 -7.05705,6.38902 0,6.4884 6.67094,9.55533 11.42528,5.25272 z m 17.44078,0 c 4.69941,-4.25291 1.92697,-11.64174 -4.36823,-11.64174 -4.95899,0 -7.05705,1.89946 -7.05705,6.38902 0,6.4884 6.67094,9.55533 11.42528,5.25272 z"
       id="path1345" />
    <path
       style="opacity:1;fill:#e9c46a;fill-opacity:1;stroke:none;stroke-width:3.44693;stroke-linecap:round;stroke-linejoin:round;stroke-opacity:1"
       d="m 381.58946,226.2594 v -48.58504 h 77.86063 77.86063 v 48.58504 48.58503 h -77.86063 -77.86063 z"
       id="path1347" />
    <path
       style="opacity:1;fill:#e9c46a;fill-opacity:1;stroke-width:4.29408;stroke-linecap:round;stroke-linejoin:round;stroke-opacity:0.934673"
       d="m 879.80165,431.90728 c -7.93884,-7.93884 -2.39008,-21.27392 8.85214,-21.27392 6.68153,0 12.42178,5.74025 12.42178,12.42179 0,11.24221 -13.33507,16.79098 -21.27392,8.85213 z"
       id="path1349" />
    <path
       style="opacity:1;fill:#e9c46a;fill-opacity:1;stroke:none;stroke-width:4.29408;stroke-linecap:round;stroke-linejoin:round;stroke-opacity:1"
       d="m 950.59277,432.40386 c -3.93155,-3.93154 -4.92214,-8.7881 -2.81914,-13.8213 4.37735,-10.47647 17.17518,-10.65983 22.52073,-0.32267 5.845,11.30297 -10.67949,23.16607 -19.70159,14.14397 z"
       id="path1351" />
    <path
       style="opacity:1;fill:#e9c46a;fill-opacity:1;stroke:none;stroke-width:0.379547;stroke-linecap:round;stroke-linejoin:round;stroke-opacity:1"
       d="m 380.96155,230.59199 v -44.98057 h 0.27528 0.27527 v 44.65023 44.65024 h 77.9038 77.90379 l 0.0278,-44.67777 0.0278,-44.67776 0.0274,45.0081 0.0274,45.0081 h -78.23426 -78.23426 z"
       id="path1353" />
    <path
       style="opacity:1;fill:#e9c46a;fill-opacity:1;stroke:none;stroke-width:0.379547;stroke-linecap:round;stroke-linejoin:round;stroke-opacity:1"
       d="m 381.62222,230.2066 v -44.59518 h 77.79381 77.79381 v 44.59518 44.59518 h -77.79381 -77.79381 z"
       id="path1355" />
    <path
       style="opacity:1;fill:#e9c46a;fill-opacity:1;stroke:none;stroke-width:0.379547;stroke-linecap:round;stroke-linejoin:round;stroke-opacity:1"
       d="m 380.96155,230.59199 v -44.98057 h 0.27528 0.27527 v 44.65023 44.65024 h 77.89911 77.8991 l 0.038,-0.79831 c 0.0326,-0.68553 0.0411,-0.63887 0.0599,0.33033 l 0.0219,1.12865 h -78.23426 -78.23426 z"
       id="path1357" />
    <path
       style="opacity:1;fill:#e9c46a;fill-opacity:1;stroke:none;stroke-width:0.0335475;stroke-linecap:round;stroke-linejoin:round;stroke-opacity:1"
       d="m 444.36123,274.87769 v -0.0292 h 9.34814 9.34814 v 0.0292 0.0292 h -9.34814 -9.34814 z"
       id="path1379" />
    <path
       style="opacity:1;fill:#e9c46a;fill-opacity:1;stroke:none;stroke-width:0.0335475;stroke-linecap:round;stroke-linejoin:round;stroke-opacity:1"
       d="m 444.36123,274.87769 v -0.0292 h 9.34814 9.34814 v 0.0292 0.0292 h -9.34814 -9.34814 z"
       id="path1381" />
    <path
       style="opacity:1;fill:#e9c46a;fill-opacity:1;stroke:none;stroke-width:0.0335475;stroke-linecap:round;stroke-linejoin:round;stroke-opacity:1"
       d="m 444.36123,275.61737 v -0.0389 h 9.34814 9.34814 v 0.0389 0.0389 h -9.34814 -9.34814 z"
       id="path1383" />
    <path
       style="opacity:1;fill:#e9c46a;fill-opacity:1;stroke:none;stroke-width:0.0335475;stroke-linecap:round;stroke-linejoin:round;stroke-opacity:1"
       d="m 444.36123,275.61737 v -0.0389 h 9.34814 9.34814 v 0.0389 0.0389 h -9.34814 -9.34814 z"
       id="path1385" />
    <path
       style="opacity:1;fill:#e9c46a;fill-opacity:1;stroke:none;stroke-width:0.0335475;stroke-linecap:round;stroke-linejoin:round;stroke-opacity:1"
       d="m 444.36123,275.61737 v -0.0389 h 9.34814 9.34814 v 0.0389 0.0389 h -9.34814 -9.34814 z"
       id="path1387" />
    <path
       style="opacity:1;fill:#e9c46a;fill-opacity:1;stroke:none;stroke-width:0.0335475;stroke-linecap:round;stroke-linejoin:round;stroke-opacity:1"
       d="m 444.36123,275.61737 v -0.0389 h 9.34814 9.34814 v 0.0389 0.0389 h -9.34814 -9.34814 z"
       id="path1389" />
    <path
       style="opacity:1;fill:#e9c46a;fill-opacity:1;stroke:none;stroke-width:0.0335475;stroke-linecap:round;stroke-linejoin:round;stroke-opacity:1"
       d="m 444.36123,275.24267 v -0.32605 h 9.34814 9.34814 v 0.32605 0.32604 h -9.34814 -9.34814 z"
       id="path1391" />
    <path
       style="opacity:1;fill:#e9c46a;fill-opacity:1;stroke:none;stroke-width:0.0335475;stroke-linecap:round;stroke-linejoin:round;stroke-opacity:1"
       d="m 444.36123,275.24267 v -0.32605 h 9.34814 9.34814 v 0.32605 0.32604 h -9.34814 -9.34814 z"
       id="path1393" />
    <path
       style="opacity:1;fill:#e9c46a;fill-opacity:1;stroke:none;stroke-width:0.0335475;stroke-linecap:round;stroke-linejoin:round;stroke-opacity:1"
       d="m 444.36123,275.24267 v -0.32605 h 9.34814 9.34814 v 0.32605 0.32604 h -9.34814 -9.34814 z"
       id="path1395" />
    <path
       style="opacity:1;fill:#e9c46a;fill-opacity:1;stroke:none;stroke-width:0.0335475;stroke-linecap:round;stroke-linejoin:round;stroke-opacity:1"
       d="m 444.36123,275.24267 v -0.32605 h 9.34814 9.34814 v 0.32605 0.32604 h -9.34814 -9.34814 z"
       id="path1397" />
    <path
       style="opacity:1;fill:#e9c46a;fill-opacity:1;stroke:none;stroke-width:0.0335475;stroke-linecap:round;stroke-linejoin:round;stroke-opacity:1"
       d="m 444.36123,275.24267 v -0.32605 h 9.34814 9.34814 v 0.32605 0.32604 h -9.34814 -9.34814 z"
       id="path1399" />
    <path
       style="opacity:1;fill:#e9c46a;fill-opacity:1;stroke:none;stroke-width:0.0335475;stroke-linecap:round;stroke-linejoin:round;stroke-opacity:1"
       d="m 444.36123,271.94332 v -3.62538 h 9.34814 9.34814 v 3.62538 3.62539 h -9.34814 -9.34814 z"
       id="path1401" />
    <path
       style="opacity:1;fill:#e9c46a;fill-opacity:1;stroke:none;stroke-width:0.0335475;stroke-linecap:round;stroke-linejoin:round;stroke-opacity:1"
       d="m 444.36123,271.94332 v -3.62538 h 9.34814 9.34814 v 3.62538 3.62539 h -9.34814 -9.34814 z"
       id="path1403" />
    <path
       style="opacity:1;fill:#e9c46a;fill-opacity:1;stroke:none;stroke-width:0.0335475;stroke-linecap:round;stroke-linejoin:round;stroke-opacity:1"
       d="m 444.36123,271.94332 v -3.62538 h 9.34814 9.34814 v 3.62538 3.62539 h -9.34814 -9.34814 z"
       id="path1405" />
    <path
       style="opacity:1;fill:#e9c46a;fill-opacity:1;stroke:none;stroke-width:0.0335475;stroke-linecap:round;stroke-linejoin:round;stroke-opacity:1"
       d="m 444.36123,271.98712 v -3.66918 h 9.34814 9.34814 v 3.66918 3.66918 h -9.34814 -9.34814 z"
       id="path1409" />
    <path
       style="opacity:1;fill:#e9c46a;fill-opacity:1;stroke:none;stroke-width:0.0948867;stroke-linecap:round;stroke-linejoin:round;stroke-opacity:1"
       d="m 463.06069,275.63359 c 0,-0.0135 0.0196,-0.0321 0.0435,-0.0413 0.024,-0.009 9.20932,-0.0167 20.41193,-0.0167 18.08688,0 20.36838,0.005 20.36838,0.0413 0,0.0367 -2.28634,0.0413 -20.41193,0.0413 -11.95927,0 -20.41193,-0.0102 -20.41193,-0.0246 z"
       id="path1415" />
    <path
       style="opacity:1;fill:#e9c46a;fill-opacity:1;stroke:none;stroke-width:0.0948867;stroke-linecap:round;stroke-linejoin:round;stroke-opacity:1"
       d="m 451.00348,269.67085 v -5.98731 h 26.44054 26.44053 v 5.58812 5.58813 l -10.50877,0.007 -10.50877,0.007 10.50877,0.007 10.50877,0.007 v 0.33033 0.33034 l -19.52415,0.006 c -10.73829,0.003 -19.61087,0.007 -19.71685,0.008 -1.61499,0.0142 -1.58286,0.0131 -1.58286,0.0554 0,0.0366 -0.68819,0.0413 -6.0286,0.0413 h -6.02861 z"
       id="path1417" />
    <path
       style="opacity:1;fill:#e9c46a;fill-opacity:1;stroke:none;stroke-width:0.0335475;stroke-linecap:round;stroke-linejoin:round;stroke-opacity:1"
       d="m 520.52607,275.61627 v -0.0389 h 8.45273 8.45273 l 0.002,-3.12659 0.002,-3.1266 0.002,3.16553 0.002,3.16552 h -8.45761 -8.45761 z"
       id="path1421" />
    <path
       style="opacity:1;fill:#e9c46a;fill-opacity:1;stroke:none;stroke-width:0.189773;stroke-linecap:round;stroke-linejoin:round;stroke-opacity:1"
       d="m 380.98532,207.42083 v -30.06046 h 33.00594 33.00594 v 0.13759 0.1376 l -32.68937,0.0138 -32.68936,0.0139 32.68936,0.0137 32.68937,0.0137 v 29.89528 29.89529 h -32.73649 -32.73648 l 0.0196,-29.88152 c 0.0108,-16.43484 0.005,-27.87474 -0.0139,-25.42201 -0.0184,2.45274 -0.037,15.89942 -0.0413,29.88152 l -0.008,25.42201 h -0.24776 -0.24775 z"
       id="path1433" />
    <path
       style="opacity:1;fill:#e9c46a;fill-opacity:1;stroke:none;stroke-width:0.0948867;stroke-linecap:round;stroke-linejoin:round;stroke-opacity:1"
       d="m 480.63144,177.4998 v -0.16517 h 26.44053 26.44054 v 0.16517 0.16517 h -26.44054 -26.44053 z"
       id="path1435" />
    <path
       style="opacity:1;fill:#e9c46a;fill-opacity:1;stroke:none;stroke-width:0.13419;stroke-linecap:round;stroke-linejoin:round;stroke-opacity:1"
       d="m 537.3982,199.01431 c -0.007,-9.16214 -0.0153,-11.34157 -0.0294,-7.44543 -0.0176,4.88279 -0.021,4.40621 -0.0294,-4.19474 l -0.01,-9.70338 h -1.90759 -1.90759 v -0.17518 -0.17519 h 1.96599 1.96598 v 17.32399 c 0,9.52819 -0.009,17.32399 -0.0195,17.32399 -0.0107,0 -0.0237,-5.82933 -0.029,-12.95406 z"
       id="path1437" />
    <path
       style="opacity:1;fill:#e9c46a;fill-opacity:1;stroke:none;stroke-width:0.13419;stroke-linecap:round;stroke-linejoin:round;stroke-opacity:1"
       d="m 453.82435,177.49558 v -0.17519 h 13.39203 13.39203 v 0.17519 0.17518 h -13.39203 -13.39203 z"
       id="path1439" />
    <path
       style="opacity:1;fill:#e9c46a;fill-opacity:1;stroke:none;stroke-width:0.0335475;stroke-linecap:round;stroke-linejoin:round;stroke-opacity:1"
       d="m 444.53342,177.65698 c 0,-0.009 1.05725,-0.021 1.90029,-0.0211 l 0.57179,-10e-6 v -0.14112 -0.14113 h -1.23604 c -1.09221,0 -1.23604,-0.002 -1.23604,-0.0146 0,-0.013 0.52232,-0.0146 4.64244,-0.0146 h 4.64244 v 0.17032 0.17032 h -4.64244 c -2.55334,0 -4.64244,-0.004 -4.64244,-0.008 z"
       id="path1441" />
    <path
       style="opacity:1;fill:#e9c46a;fill-opacity:1;stroke:none;stroke-width:0.0335475;stroke-linecap:round;stroke-linejoin:round;stroke-opacity:1"
       d="m 435.92982,181.10073 v -3.45505 l 3.20932,-0.002 3.20932,-0.002 -3.20932,-0.002 -3.20932,-0.002 v -0.13626 -0.13625 h 5.53297 5.53298 v 0.13071 c 0,0.12782 -4.9e-4,0.13081 -0.0219,0.13493 -0.0188,0.004 -0.0181,0.004 0.005,0.006 l 0.0268,0.001 v -0.14112 -0.14113 l -0.72751,-0.001 c -0.40013,-7.5e-4 -0.94869,-0.004 -1.21901,-0.007 -0.37144,-0.004 -0.079,-0.008 1.19711,-0.0132 0.92873,-0.004 3.01006,-0.007 4.62518,-0.007 h 2.93658 l 0.003,0.17275 0.003,0.17275 0.40147,0.003 0.40147,0.003 v 3.44035 3.44036 h -9.34814 -9.34815 z m 10.83236,-3.44531 c -1.31345,-0.004 -1.61401,-0.006 -1.11924,-0.01 0.50379,-0.004 0.36471,-0.005 -0.54503,-0.005 -0.67179,-4e-5 -1.07143,0.001 -0.8881,0.003 0.21097,0.002 0.33335,0.006 0.33335,0.0123 0,0.006 0.69178,0.009 2.00734,0.007 l 2.00734,-0.002 z"
       id="path1443" />
    <path
       style="opacity:1;fill:#e9c46a;fill-opacity:1;stroke:none;stroke-width:0.0335475;stroke-linecap:round;stroke-linejoin:round;stroke-opacity:1"
       d="m 435.92982,181.10073 v -3.45505 l 3.00494,-0.002 3.00493,-0.002 -3.00493,-0.002 -3.00494,-0.002 v -0.13626 -0.13625 h 5.53297 5.53298 v 0.13067 c 0,0.11627 -0.002,0.13117 -0.017,0.13513 -0.0128,0.003 -0.0116,0.005 0.005,0.006 0.0217,0.001 0.0219,2e-4 0.0219,-0.13999 v -0.14113 l -0.72751,-0.001 c -0.40013,-7.5e-4 -0.94869,-0.004 -1.21901,-0.007 -0.37144,-0.004 -0.079,-0.008 1.19711,-0.0132 0.92873,-0.004 3.01016,-0.007 4.62541,-0.007 h 2.9368 v 0.17518 0.17519 h 0.4039 0.40391 v 3.44047 3.44046 h -9.34814 -9.34815 z m 9.32138,-3.44291 c -0.17529,-0.002 -0.27981,-0.006 -0.27981,-0.0123 0,-0.006 -0.14517,-0.009 -0.40634,-0.008 -0.34365,0.001 -0.38231,0.003 -0.25061,0.009 0.0856,0.004 0.17324,0.01 0.19465,0.0115 0.0214,0.002 0.2601,0.003 0.53043,0.003 0.27032,-3.2e-4 0.36558,-0.002 0.21168,-0.003 z m 2.1655,0 c -0.3011,-10e-4 -0.79381,-10e-4 -1.09492,0 -0.3011,0.001 -0.0547,0.003 0.54746,0.003 0.60221,0 0.84856,-0.001 0.54746,-0.003 z"
       id="path1445" />
    <path
       style="opacity:1;fill:#e9c46a;fill-opacity:1;stroke:none;stroke-width:0.0335475;stroke-linecap:round;stroke-linejoin:round;stroke-opacity:1"
       d="m 435.92982,181.10074 v -3.45505 l 2.48911,-0.002 2.48911,-0.002 -2.48911,-0.002 -2.48911,-0.002 v -0.13626 -0.13625 h 5.53297 5.53298 v 0.13058 c 0,0.0953 -0.003,0.1319 -0.0122,0.13548 -0.007,0.003 -0.005,0.005 0.005,0.006 0.0155,7e-4 0.017,-0.0122 0.017,-0.14035 v -0.14113 l -0.84917,-0.001 c -0.46704,-7.5e-4 -1.01559,-0.004 -1.21901,-0.007 -0.24157,-0.004 0.2158,-0.008 1.31877,-0.0132 0.92873,-0.004 3.01016,-0.007 4.62541,-0.007 h 2.9368 v 0.17518 0.17519 h 0.4039 0.40391 v 3.44047 3.44046 h -9.34814 -9.34815 z m 9.21919,-3.44291 c -0.10722,-0.002 -0.17762,-0.007 -0.17762,-0.0124 0,-0.006 -0.13185,-0.009 -0.36254,-0.008 -0.1994,8.5e-4 -0.3494,0.003 -0.33334,0.005 0.10907,0.0134 0.32482,0.0196 0.66181,0.0189 0.21412,-4.4e-4 0.30938,-0.002 0.21169,-0.004 z m 1.84014,0 c -0.13479,-0.002 -0.35815,-0.002 -0.49637,-1e-5 -0.13821,0.002 -0.0279,0.003 0.24507,0.003 0.273,0 0.38608,-0.001 0.2513,-0.003 z"
       id="path1447" />
    <path
       style="opacity:1;fill:#e9c46a;fill-opacity:1;stroke:none;stroke-width:0.0335475;stroke-linecap:round;stroke-linejoin:round;stroke-opacity:1"
       d="m 435.92982,181.10074 v -3.45504 l 1.84676,-0.002 1.84676,-0.002 -1.84676,-0.002 -1.84676,-0.002 v -0.13626 -0.13625 h 5.53349 5.53348 l -0.003,0.13627 c -0.002,0.075 3.4e-4,0.13626 0.004,0.13626 0.004,-1e-5 0.007,-0.0635 0.007,-0.14114 v -0.14113 l -0.93676,-10e-4 c -0.51522,-7.4e-4 -1.06377,-0.004 -1.21901,-0.007 -0.44844,-0.009 2.80817,-0.0205 6.03177,-0.0205 h 2.9368 v 0.17518 0.17519 h 0.4039 0.40391 v 3.44047 3.44046 h -9.34814 -9.34815 z m 9.14875,-3.44291 c -0.0561,-0.002 -0.10629,-0.007 -0.11144,-0.0125 -0.006,-0.006 -0.14385,-0.009 -0.35049,-0.009 -0.18762,4.2e-4 -0.33638,0.003 -0.33058,0.005 0.0258,0.0107 0.31609,0.0204 0.59287,0.0198 0.16594,-3.4e-4 0.25578,-0.002 0.19964,-0.004 z m 1.60332,2e-4 c -0.0201,-0.002 -0.0529,-0.002 -0.073,0 -0.0201,0.002 -0.004,0.004 0.0365,0.004 0.0401,0 0.0566,-0.002 0.0365,-0.004 z"
       id="path1449" />
    <path
       style="opacity:1;fill:#e9c46a;fill-opacity:1;stroke:none;stroke-width:0.0335475;stroke-linecap:round;stroke-linejoin:round;stroke-opacity:1"
       d="m 435.92982,181.10075 v -3.45503 l 1.36013,-0.002 1.36013,-0.003 -1.36013,-0.002 -1.36013,-0.002 v -0.13626 -0.13625 h 5.53271 5.5327 l 0.003,0.13869 0.003,0.13869 0.002,-0.14356 0.002,-0.14356 -0.97083,-0.001 c -0.53395,-7.6e-4 -1.0825,-0.004 -1.219,-0.007 -0.39633,-0.009 2.87199,-0.0205 6.06583,-0.0205 h 2.9368 v 0.17518 0.17519 h 0.4039 0.40391 v 3.44047 3.44046 h -9.34814 -9.34815 z m 9.09023,-3.44775 c -0.0924,-0.0134 -0.45743,-0.02 -0.45743,-0.008 0,0.0138 0.0556,0.017 0.30171,0.0172 0.17444,1.8e-4 0.20611,-0.002 0.15572,-0.009 z m -0.48663,-0.007 c -0.0134,-0.004 -0.0747,-0.007 -0.13625,-0.007 -0.0914,5.4e-4 -0.10123,0.002 -0.0535,0.007 0.0862,0.01 0.21956,0.01 0.18978,0 z"
       id="path1451" />
    <path
       style="opacity:1;fill:#e9c46a;fill-opacity:1;stroke:none;stroke-width:0.0335475;stroke-linecap:round;stroke-linejoin:round;stroke-opacity:1"
       d="m 435.92982,181.10077 v -3.45502 l 0.93676,-0.003 0.93676,-0.003 -0.93676,-0.002 -0.93676,-0.002 v -0.13626 -0.13625 h 5.53269 5.53269 l 0.003,0.12895 0.003,0.12896 0.002,-0.13382 0.002,-0.13383 -0.99516,-0.001 c -0.54733,-7.1e-4 -1.09589,-0.004 -1.219,-0.007 -0.35706,-0.01 2.89485,-0.0206 6.09016,-0.0206 h 2.9368 v 0.17518 0.17519 h 0.4039 0.40391 v 3.44047 3.44046 h -9.34814 -9.34815 z m 9.0367,-3.45068 c -0.0914,-0.0149 -0.4039,-0.0187 -0.4039,-0.005 0,0.0118 0.0756,0.016 0.30171,0.0169 l 0.18005,7.1e-4 -0.0779,-0.0127 z m -0.4331,-0.004 c -0.008,-0.005 -0.0606,-0.009 -0.11679,-0.008 -0.0817,0.001 -0.0925,0.003 -0.0535,0.008 0.0793,0.0109 0.18716,0.0109 0.17032,0 z"
       id="path1453" />
    <path
       style="opacity:1;fill:#e9c46a;fill-opacity:1;stroke:none;stroke-width:0.0335475;stroke-linecap:round;stroke-linejoin:round;stroke-opacity:1"
       d="m 435.92982,181.10078 v -3.455 l 0.67885,-0.003 0.67885,-0.003 -0.67885,-0.002 -0.67885,-0.002 v -0.13626 -0.13625 h 5.53267 5.53266 l 0.003,0.11436 0.003,0.11435 0.002,-0.11922 0.002,-0.11923 -1.01462,-0.001 c -0.55805,-7.5e-4 -1.1066,-0.004 -1.21901,-0.007 -0.32998,-0.01 2.92529,-0.0205 6.10394,-0.0205 h 2.94249 v 0.17518 0.17519 h 0.4039 0.40391 v 3.44047 3.44046 h -9.34814 -9.34815 z m 9.05617,-3.44683 c -0.0443,-0.0144 -0.42337,-0.0234 -0.42337,-0.01 0,0.0114 0.0838,0.0162 0.32118,0.0183 0.0975,8.9e-4 0.12385,-0.001 0.10219,-0.008 z m -0.45743,-0.008 c -0.003,-0.006 -0.0448,-0.009 -0.0955,-0.008 -0.0688,0.001 -0.0805,0.003 -0.0505,0.008 0.0618,0.0111 0.15283,0.0111 0.14599,0 z"
       id="path1455" />
    <path
       style="opacity:1;fill:#e9c46a;fill-opacity:1;stroke:none;stroke-width:0.0335475;stroke-linecap:round;stroke-linejoin:round;stroke-opacity:1"
       d="m 435.92982,181.10082 v -3.45496 l 0.42094,-0.003 0.42093,-0.003 -0.42093,-0.002 -0.42094,-0.002 v -0.13626 -0.13625 h 5.53261 5.5326 l 0.003,0.09 0.003,0.09 0.002,-0.0949 0.002,-0.0949 -0.9465,-1e-5 c -0.52057,-1e-5 -1.06912,-0.003 -1.219,-0.007 -0.40803,-0.0109 1.14597,-0.0166 5.36995,-0.0196 l 3.60835,-0.003 v 0.17533 0.17534 h 0.4039 0.40391 v 3.44047 3.44046 h -9.34814 -9.34815 z m 9.04265,-3.44624 c -0.0319,-0.0128 -0.37373,-0.0239 -0.39649,-0.0129 -0.0121,0.006 0.0343,0.0106 0.1375,0.014 0.27246,0.009 0.28473,0.009 0.25899,-10e-4 z m -0.49258,-0.009 c -0.003,-0.005 -0.0309,-0.009 -0.0614,-0.008 -0.0496,10e-4 -0.0518,0.002 -0.0213,0.008 0.0522,0.011 0.0895,0.011 0.0827,0 z m 0.0438,0 c -0.0189,-0.0122 -0.0292,-0.0122 -0.0292,0 0,0.005 0.01,0.01 0.0219,0.01 0.0177,-1.2e-4 0.0191,-0.002 0.007,-0.01 z"
       id="path1457" />
    <path
       style="opacity:1;fill:#e9c46a;fill-opacity:1;stroke:none;stroke-width:0.0335475;stroke-linecap:round;stroke-linejoin:round;stroke-opacity:1"
       d="m 435.92982,181.10086 v -3.45492 l 0.28955,-0.003 0.28954,-0.003 -0.28954,-0.002 -0.28955,-0.002 v -0.13626 -0.13625 h 5.53255 5.53254 l 0.003,0.0706 0.003,0.0706 0.002,-0.0754 0.002,-0.0754 -0.96109,-2e-5 c -0.5286,-1e-5 -1.07716,-0.003 -1.21901,-0.007 -0.39137,-0.0111 1.15948,-0.0167 5.36022,-0.0195 l 3.63268,-0.002 v 0.17523 0.17522 h 0.4039 0.40391 v 3.44047 3.44046 h -9.34814 -9.34815 z m 9.02618,-3.44529 c -0.0144,-0.0144 -0.37391,-0.0256 -0.37391,-0.0117 0,0.008 0.0545,0.0119 0.18248,0.0139 0.10037,0.002 0.18665,0.004 0.19173,0.005 0.006,0.001 0.005,-0.002 -3e-4,-0.007 z m -0.47611,-0.01 c -0.003,-0.005 -0.0288,-0.009 -0.0565,-0.008 -0.0473,10e-4 -0.0483,0.002 -0.0165,0.008 0.0517,0.0109 0.0797,0.0109 0.073,0 z m 0.0535,0.006 c 0,-0.002 -0.009,-0.006 -0.0195,-0.009 -0.0107,-0.003 -0.0195,-0.001 -0.0195,0.004 0,0.005 0.009,0.009 0.0195,0.009 0.0107,0 0.0195,-0.002 0.0195,-0.004 z"
       id="path1459" />
    <path
       style="opacity:1;fill:#e9c46a;fill-opacity:1;stroke:none;stroke-width:0.0335475;stroke-linecap:round;stroke-linejoin:round;stroke-opacity:1"
       d="m 435.92982,181.1009 v -3.45488 l 0.21655,-0.003 0.21655,-0.003 -0.21655,-0.002 -0.21655,-0.002 v -0.13626 -0.13625 h 5.53249 5.53248 l 0.004,0.056 0.004,0.056 0.002,-0.0608 0.002,-0.0608 -1.03895,-0.001 c -0.57143,-6.8e-4 -1.11998,-0.004 -1.21901,-0.007 -0.3094,-0.0104 2.62348,-0.0207 5.91497,-0.0207 h 3.15579 v 0.17518 0.17519 h 0.4039 0.40391 v 3.44047 3.44046 h -9.34814 -9.34815 z m 8.54521,-3.45525 c -0.008,-0.005 -0.0299,-0.009 -0.0487,-0.009 -0.0312,7.5e-4 -0.032,0.001 -0.01,0.009 0.0134,0.004 0.0353,0.008 0.0487,0.009 0.0191,6.4e-4 0.0212,-0.001 0.01,-0.009 z m 0.046,0.004 c -0.003,-0.003 -0.0116,-0.004 -0.0186,-7.6e-4 -0.008,0.003 -0.005,0.005 0.006,0.006 0.0103,4.2e-4 0.016,-0.002 0.0128,-0.005 z m 0.23622,-0.004 c 0,-0.006 -0.0341,-0.01 -0.0827,-0.01 -0.0487,0 -0.0827,0.004 -0.0827,0.01 0,0.006 0.0341,0.01 0.0827,0.01 0.0487,0 0.0827,-0.004 0.0827,-0.01 z m 0.15355,0.003 c -0.0199,-0.002 -0.055,-0.002 -0.0779,-6e-5 -0.0229,0.002 -0.007,0.004 0.0362,0.004 0.0428,3e-5 0.0616,-0.002 0.0416,-0.004 z"
       id="path1461" />
    <path
       style="opacity:1;fill:#e9c46a;fill-opacity:1;stroke:none;stroke-width:0.0335475;stroke-linecap:round;stroke-linejoin:round;stroke-opacity:1"
       d="m 435.92982,181.10098 v -3.45481 l 0.14356,-0.003 0.14355,-0.003 -0.14355,-0.002 -0.14356,-0.002 v -0.13626 -0.13625 h 5.53244 5.53244 l 0.004,0.0462 0.004,0.0462 0.002,-0.0511 0.002,-0.0511 -1.05842,-0.001 c -0.58213,-7.4e-4 -1.13068,-0.004 -1.21901,-0.007 -0.28719,-0.0106 2.5292,-0.0206 5.84685,-0.0206 h 3.24338 v 0.17518 0.17519 h 0.4039 0.40391 v 3.44047 3.44046 h -9.34814 -9.34815 z m 8.53547,-3.45533 c -0.008,-0.005 -0.0255,-0.009 -0.0389,-0.009 l -0.0243,8.2e-4 0.0243,0.008 c 0.0134,0.004 0.0309,0.008 0.0389,0.009 0.013,7.3e-4 0.013,-2.3e-4 0,-0.009 z m 0.0558,0.004 c -0.003,-0.003 -0.0116,-0.004 -0.0186,-7.6e-4 -0.008,0.003 -0.005,0.005 0.006,0.006 0.0103,4.2e-4 0.016,-0.002 0.0128,-0.005 z m 0.1295,-0.005 c -0.0273,-0.005 -0.047,-0.005 -0.053,10e-4 -0.006,0.006 0.009,0.009 0.0435,0.009 l 0.053,-0.001 z m 0.10672,9.1e-4 c 0,-0.005 -0.009,-0.01 -0.0189,-0.01 -0.0104,0 -0.0216,0.004 -0.0249,0.01 -0.003,0.006 0.005,0.01 0.0189,0.01 0.0137,0 0.0249,-0.004 0.0249,-0.01 z m 0.13883,0.003 c -0.012,-0.002 -0.0339,-0.002 -0.0487,-1.3e-4 -0.0148,0.002 -0.005,0.004 0.0218,0.004 0.0268,7e-5 0.0389,-0.002 0.0269,-0.004 z"
       id="path1463" />
    <path
       style="opacity:1;fill:#e9c46a;fill-opacity:1;stroke:none;stroke-width:0.0335475;stroke-linecap:round;stroke-linejoin:round;stroke-opacity:1"
       d="m 435.92982,181.10106 v -3.45473 l 0.0998,-0.003 0.0998,-0.003 -0.0998,-0.002 -0.0998,-0.002 v -0.13626 -0.13625 h 5.53239 5.53238 l 0.004,0.0365 0.004,0.0365 0.002,-0.0414 0.002,-0.0414 -1.06815,-0.001 c -0.58749,-7.1e-4 -1.13604,-0.004 -1.21901,-0.007 -0.27751,-0.0111 2.39352,-0.0206 5.7633,-0.0206 h 3.33666 v 0.17518 0.17519 h 0.4039 0.40391 v 3.44047 3.44046 h -9.34814 -9.34815 z m 8.7269,-3.45757 c -0.0265,-0.007 -0.0404,-0.007 -0.0482,10e-4 -0.008,0.008 0.002,0.0106 0.0373,0.01 l 0.0482,-0.001 z m 0.0957,0.002 c -0.003,-0.005 -0.0121,-0.01 -0.0195,-0.01 -0.007,0 -0.0162,0.004 -0.0195,0.01 -0.003,0.006 0.005,0.01 0.0195,0.01 0.0145,0 0.0229,-0.004 0.0195,-0.01 z m 0.134,0.003 c -0.007,-0.003 -0.0197,-0.003 -0.0292,-3.6e-4 -0.009,0.002 -0.004,0.005 0.012,0.005 0.0161,2e-4 0.0238,-0.002 0.0172,-0.004 z m -0.44322,-0.009 c -0.003,-0.003 -0.0116,-0.004 -0.0187,-7.7e-4 -0.008,0.003 -0.005,0.005 0.006,0.006 0.0103,4.3e-4 0.016,-0.002 0.0128,-0.005 z"
       id="path1465" />
    <path
       style="opacity:1;fill:#e9c46a;fill-opacity:1;stroke:none;stroke-width:0.0335475;stroke-linecap:round;stroke-linejoin:round;stroke-opacity:1"
       d="m 435.92982,181.10114 v -3.45464 l 0.0706,-0.003 0.0706,-0.003 -0.0706,-0.002 -0.0706,-0.002 v -0.13626 -0.13625 h 5.53236 5.53235 l 0.004,0.0316 c 0.004,0.0311 0.004,0.0311 0.005,-0.005 l 0.002,-0.0365 -1.07789,-0.001 c -0.59283,-6.7e-4 -1.14138,-0.004 -1.219,-0.007 -0.25965,-0.0112 2.38576,-0.0207 5.76412,-0.0207 h 3.34557 v 0.17518 0.17519 h 0.4039 0.40391 v 3.44047 3.44046 h -9.34814 -9.34815 z m 8.73032,-3.45571 c -0.0188,-0.004 -0.0405,-0.004 -0.0487,7e-4 -0.01,0.006 10e-4,0.008 0.0339,0.008 0.0469,-6.7e-4 0.0474,-9.9e-4 0.0148,-0.009 z m 0.0923,2.2e-4 c -0.003,-0.005 -0.0121,-0.01 -0.0195,-0.01 -0.007,0 -0.0162,0.004 -0.0195,0.01 -0.003,0.006 0.005,0.01 0.0195,0.01 0.0145,0 0.0229,-0.004 0.0195,-0.01 z m 0.12875,0.004 c -0.003,-0.003 -0.0116,-0.004 -0.0187,-7.6e-4 -0.008,0.003 -0.005,0.005 0.006,0.006 0.0103,4.2e-4 0.016,-0.002 0.0128,-0.005 z"
       id="path1467" />
  </g>
</svg>
