<?xml version="1.0" encoding="UTF-8" standalone="no"?>
<svg
   xmlns:dc="http://purl.org/dc/elements/1.1/"
   xmlns:cc="http://creativecommons.org/ns#"
   xmlns:rdf="http://www.w3.org/1999/02/22-rdf-syntax-ns#"
   xmlns:svg="http://www.w3.org/2000/svg"
   xmlns="http://www.w3.org/2000/svg"
   xmlns:xlink="http://www.w3.org/1999/xlink"
   version="1.1"
   viewBox="0 0 572.12 355.10998"
   height="355.10999"
   width="572.12"
   data-name="Layer 1"
   id="158d9566-b2be-4f0f-bcdd-c9ed3d10c246">
  <metadata
     id="metadata4058">
    <rdf:RDF>
      <cc:Work
         rdf:about="">
        <dc:format>image/svg+xml</dc:format>
        <dc:type
           rdf:resource="http://purl.org/dc/dcmitype/StillImage" />
        <dc:title>make_it_rain</dc:title>
      </cc:Work>
    </rdf:RDF>
  </metadata>
  <defs
     id="defs3737">
    <linearGradient
       gradientUnits="userSpaceOnUse"
       y2="358.20001"
       x2="574.71997"
       y1="713.31"
       x1="574.71997"
       id="0716a939-3e70-42e2-b2a4-62d4623bb7b7">
      <stop
         id="stop3729"
         stop-opacity="0.25"
         stop-color="gray"
         offset="0" />
      <stop
         id="stop3731"
         stop-opacity="0.12"
         stop-color="gray"
         offset="0.54" />
      <stop
         id="stop3733"
         stop-opacity="0.1"
         stop-color="gray"
         offset="1" />
    </linearGradient>
    <linearGradient
       xlink:href="#0716a939-3e70-42e2-b2a4-62d4623bb7b7"
       gradientTransform="matrix(-1,0,0,1,3906,0)"
       y2="205.60001"
       x2="2975.3799"
       y1="757.78003"
       x1="2975.3799"
       id="246fdb29-47ea-4475-84d7-0cdffd1436cc" />
    <linearGradient
       gradientTransform="translate(-113,-92.74)"
       y2="358.20001"
       x2="574.71997"
       y1="713.31"
       x1="574.71997"
       gradientUnits="userSpaceOnUse"
       id="linearGradient4655"
       xlink:href="#0716a939-3e70-42e2-b2a4-62d4623bb7b7" />
  </defs>
  <title
     id="title3739">make_it_rain</title>
  <path
     style="fill:url(#linearGradient4655)"
     id="path3815"
     fill="url(#0716a939-3e70-42e2-b2a4-62d4623bb7b7)"
     d="M 548.23,0 H 23.89 A 23.89,23.89 0 0 0 0,23.89 v 307.33 a 23.89,23.89 0 0 0 23.89,23.89 h 524.34 a 23.89,23.89 0 0 0 23.89,-23.89 V 23.89 A 23.89,23.89 0 0 0 548.23,0 Z" />
  <rect
     style="fill:#2a9d8f;fill-opacity:1;stroke-width:3.44693;stroke-linecap:round;stroke-linejoin:round"
     id="rect3817"
     fill="#6c63ff"
     ry="24.809999"
     rx="24.809999"
     height="346.75"
     width="558.65002"
     y="4.1800146"
     x="6.7299995" />
  <rect
     id="rect3819"
     fill="#6c63ff"
     height="63.57"
     width="558.65002"
     y="64.860008"
     x="6.7299995" />
  <rect
     style="fill:#264653;fill-opacity:1;stroke-width:3.44693;stroke-linecap:round;stroke-linejoin:round"
     id="rect3821"
     opacity="0.3"
     height="63.57"
     width="558.65002"
     y="64.860008"
     x="6.7299995" />
  <rect
     id="rect3823"
     fill="#d6d6e3"
     height="30.82"
     width="452.70001"
     y="175.62999"
     x="59.709995" />
  <circle
     id="circle3825"
     fill="#6c63ff"
     r="44.310001"
     cy="283.50998"
     cx="97.269989" />
  <circle
     style="fill:#264653;fill-opacity:1;stroke-width:3.44693;stroke-linecap:round;stroke-linejoin:round"
     id="circle3827"
     opacity="0.3"
     r="44.310001"
     cy="283.50998"
     cx="97.269989" />
  <path
     id="path4627"
     d="m 84.79906,325.33534 c -7.95114,-2.53922 -13.69719,-6.32256 -19.9936,-13.16426 -7.98816,-8.67996 -10.3889,-15.11288 -10.50007,-28.13551 -0.0817,-9.57 0.34167,-11.89878 3.34443,-18.39616 4.30961,-9.32515 12.63678,-17.60301 22.12849,-21.99744 6.15648,-2.85031 8.93536,-3.38605 17.67863,-3.40826 9.29224,-0.0236 11.21985,0.39009 18.48676,3.96758 15.98645,7.8701 24.50271,21.75049 24.54378,40.00315 0.0196,8.7068 -0.44901,10.8658 -3.86381,17.80226 -7.29018,14.80846 -21.21933,24.0794 -37.29957,24.82577 -5.46259,0.25354 -10.74945,-0.29138 -14.52504,-1.49713 z"
     style="fill:#264653;fill-opacity:1;stroke-width:3.44693;stroke-linecap:round;stroke-linejoin:round" />
  <path
     id="path4629"
     d="m 81.91732,323.52875 c -8.08661,-3.19858 -18.27411,-12.45751 -22.74482,-20.67166 -2.81618,-5.17426 -3.5645,-8.30212 -4.03094,-16.84874 -0.77741,-14.24434 2.22021,-22.37394 11.74715,-31.85845 9.45708,-9.41498 16.46332,-12.58972 29.00082,-13.14116 9.10199,-0.40033 10.74579,-0.10311 17.8717,3.23151 10.63088,4.97479 17.8677,11.92117 22.12003,21.23227 2.98331,6.53239 3.47916,9.15261 3.51287,18.56305 0.0366,10.2061 -0.2467,11.48446 -4.13311,18.65247 -4.6916,8.65309 -12.00031,15.69972 -20.52198,19.78609 -8.34226,4.00033 -24.09473,4.50649 -32.82172,1.05462 z"
     style="fill:#264653;fill-opacity:1;stroke-width:3.44693;stroke-linecap:round;stroke-linejoin:round" />
  <path
     id="path4631"
     d="M 7.34,96.54819 V 65.5032 h 278.79616 278.79616 v 31.04499 31.04499 H 286.13616 7.34 Z"
     style="fill:#264653;fill-opacity:1;stroke-width:3.44693;stroke-linecap:round;stroke-linejoin:round" />
  <path
     id="path4633"
     d="m 283.93372,128.03579 v -0.38045 h 73.08508 73.08507 v 0.38045 0.38046 H 357.0188 283.93372 Z"
     style="fill:#264653;fill-opacity:1;stroke-width:0.262279;stroke-linecap:round;stroke-linejoin:round" />
  <path
     id="path4635"
     d="m 283.93372,113.84488 v -13.73436 h 73.08508 73.08507 v 13.73436 13.73437 H 357.0188 283.93372 Z"
     style="fill:#264653;fill-opacity:1;stroke-width:0.262279;stroke-linecap:round;stroke-linejoin:round" />
  <path
     id="path4637"
     d="m 283.93372,114.26338 v -14.15286 h 73.08508 73.08507 v 14.15286 14.15287 H 357.0188 283.93372 Z"
     style="fill:#264653;fill-opacity:1;stroke-width:0.262279;stroke-linecap:round;stroke-linejoin:round" />
  <path
     id="path4639"
     d="m 344.57797,65.18491 v -0.30436 h 73.08508 73.08507 v 0.30436 0.30436 h -73.08507 -73.08508 z"
     style="fill:#264653;fill-opacity:1;stroke-width:0.262279;stroke-linecap:round;stroke-linejoin:round" />
  <path
     id="path4641"
     d="M 564.93651,92.91995 V 65.48927 h -37.09419 -37.0942 v -0.30436 -0.30436 h 37.28442 37.28443 v 27.73504 27.73505 h -0.19023 -0.19023 z"
     style="fill:#264653;fill-opacity:1;stroke-width:0.262279;stroke-linecap:round;stroke-linejoin:round" />
  <path
     id="path4643"
     d="m 563.09935,128.35098 c -1.14532,-0.002 -11.99324,-0.001 -24.10648,0.001 -12.11324,0.002 -24.91287,0.002 -28.44362,3.7e-4 -8.81083,-0.005 -47.30254,-0.001 -65.11889,0.007 -8.05634,0.004 -14.78508,-0.008 -14.95274,-0.0253 -0.26764,-0.028 -0.29971,-0.0703 -0.26279,-0.34676 0.0371,-0.2776 8.00414,-0.31483 67.32351,-0.31464 37.00479,1.2e-4 67.32732,-0.0348 67.3834,-0.0777 0.0561,-0.0429 0.0979,-1.62178 0.093,-3.50871 -0.009,-3.2859 0.0434,-4.14332 0.21571,-3.55769 0.098,0.33291 0.12038,7.6719 0.0237,7.75967 -0.0398,0.0361 -1.00944,0.0644 -2.15477,0.0627 z"
     style="fill:#264653;fill-opacity:1;stroke-width:0.524558;stroke-linecap:round;stroke-linejoin:round" />
  <path
     id="path4645"
     d="m 461.21878,128.42411 c -0.0752,-9.5e-4 -0.83369,-0.002 -1.68549,-0.001 -0.8518,2.6e-4 -1.99827,4.2e-4 -2.54771,3.4e-4 -0.54944,-8e-5 -1.87503,-4e-5 -2.94576,9e-5 -1.07072,1.3e-4 -2.20211,8e-5 -2.51419,-1.1e-4 -0.31207,-1.8e-4 -1.44342,-1.8e-4 -2.5141,1e-5 -1.07068,1.9e-4 -2.20201,2.1e-4 -2.51406,6e-5 -0.66702,-3.2e-4 -2.51282,-2.9e-4 -5.02816,9e-5 -0.99156,1.5e-4 -2.12292,1.3e-4 -2.51414,-4e-5 -0.39121,-1.7e-4 -1.24457,-2.9e-4 -1.89635,-2.5e-4 -1.22607,6e-5 -4.35385,1.5e-4 -6.00735,1.7e-4 -0.51997,0 -0.94219,-0.002 -0.93826,-0.005 0.004,-0.003 -0.0282,-0.005 -0.0713,-0.005 -0.29454,1.8e-4 -2.00406,1.7e-4 -2.59058,-2e-5 -0.39118,-1.4e-4 -1.52255,-1.7e-4 -2.51416,-7e-5 -0.99161,9e-5 -2.36673,1.1e-4 -3.05583,5e-5 -0.6891,-6e-5 -1.84593,-6e-5 -2.57074,0 -0.72482,5e-5 -1.69652,2e-5 -2.15935,-7e-5 -0.46283,-9e-5 -1.59422,-5e-5 -2.5142,8e-5 -0.91999,1.4e-4 -2.01674,1.3e-4 -2.43723,-2e-5 -0.42049,-1.5e-4 -1.59098,-7e-5 -2.6011,1.7e-4 -1.01011,2.4e-4 -1.89573,2.8e-4 -1.96805,8e-5 l -0.13149,-3.7e-4 -1.51009,-1.97575 -1.5101,-1.97576 17.00298,-12.99559 17.00299,-12.9956 11.12482,14.55533 c 10.59133,13.85733 11.12371,14.55573 11.10162,14.56374 -0.0213,0.008 -0.0206,0.009 0.008,0.01 0.0219,7.5e-4 0.0391,0.0131 0.056,0.04 l 0.0244,0.0389 -2.35993,0.002 c -12.11546,0.0121 -20.26991,0.0449 -23.93337,0.096 -0.89744,0.0125 -1.8017,0.0298 -1.86054,0.0355 -0.11611,0.0113 0.0393,0.0124 0.451,0.003 2.93837,-0.0662 11.06445,-0.10491 25.27342,-0.12037 l 2.44858,-0.003 0.24789,0.32434 c 0.13634,0.17838 0.24569,0.32601 0.24301,0.32806 -0.004,0.003 -11.44243,0.009 -18.82857,0.009 -6.05686,2.3e-4 -11.46578,-0.0102 -11.87702,-0.0229 -0.15576,-0.005 -0.32015,-0.0317 -0.34017,-0.0557 -0.009,-0.0108 -0.0136,-0.0113 -0.0108,-10e-4 0.007,0.0257 0.0921,0.0542 0.19112,0.0639 0.1589,0.0156 2.09797,0.0234 7.01791,0.0281 2.90375,0.003 6.00199,0.003 15.70221,-5.2e-4 4.30083,-0.001 7.89802,-0.002 7.99375,-0.002 0.13599,5.3e-4 0.17838,0.006 0.19385,0.0266 0.0109,0.0143 0.0161,0.0285 0.0115,0.0316 -0.005,0.003 -0.0699,0.005 -0.14509,0.004 z m -0.56164,-0.83451 c -0.004,-0.006 -0.0133,-0.007 -0.0195,-0.002 -0.006,0.005 -0.005,0.0112 0.003,0.0143 0.008,0.003 0.0169,0.004 0.0195,0.002 0.003,-0.002 10e-4,-0.008 -0.003,-0.0143 z m -0.0798,-0.006 c -0.009,-0.003 -0.0209,-0.002 -0.0271,0.003 -0.007,0.005 -0.002,0.0109 0.0146,0.0146 0.0282,0.006 0.0383,-0.007 0.0125,-0.0173 z m -0.0736,0.004 c -0.004,-0.006 -0.0133,-0.007 -0.0195,-0.002 -0.006,0.005 -0.005,0.0112 0.003,0.0143 0.008,0.003 0.0169,0.004 0.0195,0.002 0.003,-0.002 0.001,-0.008 -0.003,-0.0143 z m -0.0672,6.1e-4 c -0.004,-0.006 -0.0133,-0.007 -0.0195,-0.002 -0.006,0.005 -0.005,0.0112 0.003,0.0143 0.008,0.003 0.0169,0.004 0.0195,0.002 0.003,-0.002 10e-4,-0.008 -0.003,-0.0143 z m -0.0673,6.1e-4 c -0.004,-0.006 -0.0133,-0.007 -0.0195,-0.002 -0.006,0.005 -0.005,0.0112 0.003,0.0143 0.008,0.003 0.0169,0.004 0.0195,0.002 0.003,-0.002 0.001,-0.008 -0.003,-0.0143 z m -0.0798,-0.006 c -0.009,-0.003 -0.0209,-0.002 -0.0271,0.003 -0.007,0.005 -0.002,0.0109 0.0146,0.0146 0.0282,0.006 0.0382,-0.008 0.0125,-0.0173 z m -0.0673,6.2e-4 c -0.009,-0.003 -0.0209,-0.002 -0.0271,0.003 -0.007,0.005 -0.002,0.0109 0.0146,0.0146 0.0281,0.006 0.0382,-0.007 0.0125,-0.0173 z m -0.0736,0.004 c -0.005,-0.006 -0.0133,-0.007 -0.0195,-0.002 -0.006,0.005 -0.005,0.0112 0.003,0.0143 0.008,0.003 0.0169,0.004 0.0195,0.002 0.003,-0.002 10e-4,-0.008 -0.003,-0.0143 z m -0.0673,6.1e-4 c -0.004,-0.006 -0.0133,-0.007 -0.0195,-0.002 -0.006,0.005 -0.005,0.0112 0.003,0.0143 0.008,0.003 0.0169,0.004 0.0195,0.002 0.003,-0.002 10e-4,-0.008 -0.003,-0.0143 z m -0.0798,-0.006 c -0.009,-0.003 -0.0209,-0.002 -0.0271,0.003 -0.007,0.005 -0.002,0.0109 0.0146,0.0146 0.0282,0.006 0.0383,-0.007 0.0125,-0.0173 z m -0.0672,6.1e-4 c -0.009,-0.003 -0.0209,-0.002 -0.0271,0.003 -0.007,0.005 -0.002,0.0109 0.0146,0.0146 0.0282,0.006 0.0382,-0.008 0.0125,-0.0173 z m -0.0736,0.004 c -0.004,-0.006 -0.0133,-0.007 -0.0195,-0.002 -0.006,0.005 -0.005,0.0112 0.003,0.0143 0.008,0.003 0.0169,0.004 0.0195,0.002 0.003,-0.002 0.001,-0.008 -0.003,-0.0143 z m -0.0673,6.2e-4 c -0.004,-0.006 -0.0133,-0.007 -0.0195,-0.002 -0.006,0.005 -0.005,0.0112 0.003,0.0143 0.008,0.003 0.0169,0.004 0.0195,0.002 0.003,-0.002 0.001,-0.008 -0.003,-0.0143 z m -0.0798,-0.006 c -0.009,-0.003 -0.0209,-0.002 -0.0271,0.003 -0.007,0.005 -0.002,0.0109 0.0146,0.0146 0.0282,0.006 0.0382,-0.007 0.0125,-0.0173 z m -0.0673,6.1e-4 c -0.009,-0.003 -0.0209,-0.002 -0.0271,0.003 -0.007,0.005 -0.002,0.0109 0.0146,0.0146 0.0281,0.006 0.0382,-0.007 0.0125,-0.0173 z m -0.0736,0.004 c -0.004,-0.006 -0.0133,-0.007 -0.0195,-0.002 -0.006,0.005 -0.005,0.0112 0.003,0.0143 0.008,0.003 0.0169,0.004 0.0195,0.002 0.003,-0.002 10e-4,-0.008 -0.003,-0.0143 z m -0.0673,6.2e-4 c -0.004,-0.006 -0.0133,-0.007 -0.0195,-0.002 -0.006,0.005 -0.005,0.0112 0.003,0.0143 0.008,0.003 0.0169,0.004 0.0195,0.002 0.003,-0.002 0.001,-0.008 -0.003,-0.0143 z m -0.0798,-0.006 c -0.009,-0.003 -0.0209,-0.002 -0.0271,0.003 -0.007,0.005 -0.002,0.0109 0.0146,0.0146 0.0282,0.006 0.0382,-0.007 0.0125,-0.0173 z m -0.0673,6.1e-4 c -0.009,-0.003 -0.0209,-0.002 -0.0271,0.003 -0.007,0.005 -0.002,0.0109 0.0146,0.0146 0.0282,0.006 0.0383,-0.007 0.0125,-0.0173 z m -0.0736,0.004 c -0.004,-0.006 -0.0133,-0.007 -0.0195,-0.002 -0.006,0.005 -0.005,0.0112 0.003,0.0143 0.008,0.003 0.0169,0.004 0.0195,0.002 0.003,-0.002 10e-4,-0.008 -0.003,-0.0143 z m -0.0672,6.1e-4 c -0.005,-0.006 -0.0133,-0.007 -0.0195,-0.002 -0.006,0.005 -0.005,0.0112 0.003,0.0143 0.008,0.003 0.0169,0.004 0.0195,0.002 0.003,-0.002 10e-4,-0.008 -0.003,-0.0143 z m -0.0798,-0.006 c -0.009,-0.003 -0.0209,-0.002 -0.0271,0.003 -0.007,0.005 -0.002,0.0109 0.0146,0.0146 0.0282,0.006 0.0382,-0.007 0.0125,-0.0173 z m -0.0673,6.1e-4 c -0.009,-0.003 -0.0209,-0.002 -0.0271,0.003 -0.007,0.005 -0.002,0.0109 0.0146,0.0146 0.0281,0.006 0.0382,-0.007 0.0125,-0.0173 z m -0.0736,0.004 c -0.004,-0.006 -0.0133,-0.007 -0.0195,-0.002 -0.006,0.005 -0.005,0.0112 0.003,0.0143 0.008,0.003 0.0169,0.004 0.0195,0.002 0.003,-0.002 0.001,-0.008 -0.003,-0.0143 z m -0.0672,6.1e-4 c -0.004,-0.006 -0.0133,-0.007 -0.0195,-0.002 -0.006,0.005 -0.005,0.0112 0.003,0.0143 0.008,0.003 0.0169,0.004 0.0195,0.002 0.003,-0.002 10e-4,-0.008 -0.003,-0.0143 z m -0.0798,-0.006 c -0.009,-0.003 -0.0209,-0.002 -0.0271,0.003 -0.007,0.005 -0.002,0.0109 0.0146,0.0146 0.0282,0.006 0.0382,-0.007 0.0125,-0.0173 z m -0.0673,6.1e-4 c -0.009,-0.003 -0.0209,-0.002 -0.0271,0.003 -0.007,0.005 -0.002,0.0109 0.0146,0.0146 0.0282,0.006 0.0383,-0.007 0.0125,-0.0173 z m -0.0736,0.004 c -0.004,-0.006 -0.0133,-0.007 -0.0195,-0.002 -0.006,0.005 -0.005,0.0112 0.003,0.0143 0.008,0.003 0.0169,0.004 0.0195,0.002 0.003,-0.002 0.001,-0.008 -0.003,-0.0143 z m -0.0672,6.1e-4 c -0.005,-0.006 -0.0133,-0.007 -0.0195,-0.002 -0.006,0.005 -0.005,0.0112 0.003,0.0143 0.008,0.003 0.0169,0.004 0.0195,0.002 0.003,-0.002 0.001,-0.008 -0.003,-0.0143 z m -0.0798,-0.006 c -0.009,-0.003 -0.0209,-0.002 -0.0271,0.003 -0.007,0.005 -0.002,0.0109 0.0146,0.0146 0.0281,0.006 0.0382,-0.007 0.0125,-0.0173 z m -0.0673,6.2e-4 c -0.009,-0.003 -0.0209,-0.002 -0.0271,0.003 -0.007,0.005 -0.002,0.0109 0.0146,0.0146 0.0281,0.006 0.0382,-0.007 0.0125,-0.0173 z m -0.0736,0.004 c -0.004,-0.006 -0.0133,-0.007 -0.0195,-0.002 -0.006,0.005 -0.005,0.0112 0.003,0.0143 0.008,0.003 0.0169,0.004 0.0195,0.002 0.003,-0.002 10e-4,-0.008 -0.003,-0.0143 z m -0.0672,6.1e-4 c -0.004,-0.006 -0.0133,-0.007 -0.0195,-0.002 -0.006,0.005 -0.005,0.0112 0.003,0.0143 0.008,0.003 0.0169,0.004 0.0195,0.002 0.003,-0.002 10e-4,-0.008 -0.003,-0.0143 z m -0.0673,6.1e-4 c -0.004,-0.006 -0.0133,-0.007 -0.0195,-0.002 -0.006,0.005 -0.005,0.0112 0.003,0.0143 0.008,0.003 0.0169,0.004 0.0195,0.002 0.003,-0.002 10e-4,-0.008 -0.003,-0.0143 z m -0.0798,-0.006 c -0.009,-0.003 -0.0209,-0.002 -0.0271,0.003 -0.007,0.005 -0.002,0.0109 0.0146,0.0146 0.0282,0.006 0.0382,-0.007 0.0125,-0.0173 z m -0.0736,0.004 c -0.004,-0.006 -0.0133,-0.007 -0.0195,-0.002 -0.006,0.005 -0.005,0.0112 0.003,0.0143 0.008,0.003 0.0169,0.004 0.0195,0.002 0.003,-0.002 0.001,-0.008 -0.003,-0.0143 z m -0.0672,6.1e-4 c -0.005,-0.006 -0.0133,-0.007 -0.0195,-0.002 -0.006,0.005 -0.005,0.0112 0.003,0.0143 0.008,0.003 0.0169,0.004 0.0195,0.002 0.003,-0.002 10e-4,-0.008 -0.003,-0.0143 z m -0.0673,6.1e-4 c -0.004,-0.006 -0.0133,-0.007 -0.0195,-0.002 -0.006,0.005 -0.005,0.0112 0.003,0.0143 0.008,0.003 0.0169,0.004 0.0195,0.002 0.003,-0.002 0.001,-0.008 -0.003,-0.0143 z m -0.0798,-0.006 c -0.009,-0.003 -0.0209,-0.002 -0.0271,0.003 -0.007,0.005 -0.002,0.0109 0.0146,0.0146 0.0281,0.006 0.0382,-0.007 0.0125,-0.0173 z m -0.0736,0.004 c -0.004,-0.006 -0.0133,-0.007 -0.0195,-0.002 -0.006,0.005 -0.005,0.0112 0.003,0.0143 0.008,0.003 0.0169,0.004 0.0195,0.002 0.003,-0.002 10e-4,-0.008 -0.003,-0.0143 z m -0.0672,6.2e-4 c -0.004,-0.006 -0.0133,-0.007 -0.0195,-0.002 -0.006,0.005 -0.005,0.0112 0.003,0.0143 0.008,0.003 0.0169,0.004 0.0195,0.002 0.003,-0.002 0.001,-0.008 -0.003,-0.0143 z m -0.0673,6.1e-4 c -0.004,-0.006 -0.0133,-0.007 -0.0195,-0.002 -0.006,0.005 -0.005,0.0112 0.003,0.0143 0.008,0.003 0.0169,0.004 0.0195,0.002 0.003,-0.002 10e-4,-0.008 -0.003,-0.0143 z m -0.0798,-0.006 c -0.009,-0.003 -0.0209,-0.002 -0.0271,0.003 -0.007,0.005 -0.002,0.0109 0.0146,0.0146 0.0282,0.006 0.0382,-0.007 0.0125,-0.0173 z m -0.0673,6.1e-4 c -0.009,-0.003 -0.0209,-0.002 -0.0271,0.003 -0.007,0.005 -0.002,0.0109 0.0146,0.0146 0.0281,0.006 0.0382,-0.007 0.0125,-0.0173 z m -0.0736,0.004 c -0.005,-0.006 -0.0133,-0.007 -0.0195,-0.002 -0.006,0.005 -0.005,0.0112 0.003,0.0143 0.008,0.003 0.0169,0.004 0.0195,0.002 0.003,-0.002 0.001,-0.008 -0.003,-0.0143 z m -0.0673,6.2e-4 c -0.004,-0.006 -0.0133,-0.007 -0.0195,-0.002 -0.006,0.005 -0.005,0.0112 0.003,0.0143 0.008,0.003 0.0169,0.004 0.0195,0.002 0.003,-0.002 0.001,-0.008 -0.003,-0.0143 z m -0.0798,-0.006 c -0.009,-0.003 -0.0209,-0.002 -0.0271,0.003 -0.007,0.005 -0.002,0.0109 0.0146,0.0147 0.0281,0.006 0.0382,-0.007 0.0125,-0.0173 z m -0.0673,6.1e-4 c -0.009,-0.003 -0.0209,-0.002 -0.0271,0.003 -0.007,0.005 -0.002,0.0109 0.0146,0.0146 0.0282,0.006 0.0383,-0.007 0.0125,-0.0173 z m -0.0736,0.004 c -0.004,-0.006 -0.0133,-0.007 -0.0195,-0.002 -0.006,0.005 -0.005,0.0112 0.003,0.0143 0.008,0.003 0.0169,0.004 0.0195,0.002 0.003,-0.002 10e-4,-0.008 -0.003,-0.0143 z m -0.0672,6.2e-4 c -0.004,-0.006 -0.0133,-0.007 -0.0195,-0.002 -0.006,0.005 -0.005,0.0112 0.003,0.0143 0.008,0.003 0.0169,0.004 0.0195,0.002 0.003,-0.002 10e-4,-0.008 -0.003,-0.0143 z m -0.0798,-0.006 c -0.009,-0.003 -0.0209,-0.002 -0.0271,0.003 -0.007,0.005 -0.002,0.0109 0.0146,0.0146 0.0282,0.006 0.0382,-0.007 0.0125,-0.0173 z m -0.0673,6.1e-4 c -0.009,-0.003 -0.0209,-0.002 -0.0271,0.003 -0.007,0.005 -0.002,0.0109 0.0146,0.0147 0.0282,0.006 0.0382,-0.007 0.0125,-0.0173 z m -0.0736,0.004 c -0.005,-0.006 -0.0133,-0.007 -0.0195,-0.002 -0.006,0.005 -0.005,0.0112 0.003,0.0143 0.008,0.003 0.0169,0.004 0.0195,0.002 0.003,-0.002 0.001,-0.008 -0.003,-0.0143 z m -0.0673,6.1e-4 c -0.004,-0.006 -0.0133,-0.007 -0.0195,-0.002 -0.006,0.005 -0.005,0.0112 0.003,0.0143 0.008,0.003 0.0169,0.004 0.0195,0.002 0.003,-0.002 10e-4,-0.008 -0.003,-0.0143 z m -0.0798,-0.006 c -0.009,-0.003 -0.0209,-0.002 -0.0271,0.003 -0.007,0.005 -0.002,0.0109 0.0146,0.0146 0.0281,0.006 0.0382,-0.007 0.0125,-0.0173 z m -0.0673,6.1e-4 c -0.009,-0.003 -0.0209,-0.002 -0.0271,0.003 -0.007,0.005 -0.002,0.0109 0.0146,0.0146 0.0282,0.006 0.0383,-0.007 0.0125,-0.0173 z m -0.0736,0.004 c -0.004,-0.006 -0.0133,-0.007 -0.0195,-0.002 -0.006,0.005 -0.005,0.0112 0.003,0.0143 0.008,0.003 0.0169,0.004 0.0195,0.002 0.003,-0.002 0.001,-0.008 -0.003,-0.0143 z m -0.0672,6.1e-4 c -0.004,-0.006 -0.0133,-0.007 -0.0195,-0.002 -0.006,0.005 -0.005,0.0112 0.003,0.0143 0.008,0.003 0.0169,0.004 0.0195,0.002 0.003,-0.002 10e-4,-0.008 -0.003,-0.0143 z m -0.0798,-0.006 c -0.009,-0.003 -0.0209,-0.002 -0.0271,0.003 -0.007,0.005 -0.002,0.0109 0.0146,0.0146 0.0282,0.006 0.0382,-0.007 0.0125,-0.0173 z m -0.0673,6.1e-4 c -0.009,-0.003 -0.0209,-0.002 -0.0271,0.003 -0.007,0.005 -0.002,0.0109 0.0146,0.0146 0.0281,0.006 0.0382,-0.007 0.0125,-0.0173 z m -0.0736,0.004 c -0.005,-0.006 -0.0133,-0.007 -0.0195,-0.002 -0.006,0.005 -0.005,0.0112 0.003,0.0143 0.008,0.003 0.0169,0.004 0.0195,0.002 0.003,-0.002 10e-4,-0.008 -0.003,-0.0143 z m -0.0673,6.1e-4 c -0.004,-0.006 -0.0133,-0.007 -0.0195,-0.002 -0.006,0.005 -0.005,0.0112 0.003,0.0143 0.008,0.003 0.0169,0.004 0.0195,0.002 0.003,-0.002 10e-4,-0.008 -0.003,-0.0143 z m -0.0798,-0.006 c -0.009,-0.003 -0.0209,-0.002 -0.0271,0.003 -0.007,0.005 -0.002,0.0109 0.0146,0.0146 0.0281,0.006 0.0382,-0.007 0.0125,-0.0173 z m -0.0672,6.2e-4 c -0.009,-0.003 -0.0209,-0.002 -0.0271,0.003 -0.007,0.005 -0.002,0.0109 0.0146,0.0146 0.0282,0.006 0.0382,-0.007 0.0125,-0.0173 z m -0.0736,0.004 c -0.004,-0.006 -0.0133,-0.007 -0.0195,-0.002 -0.006,0.005 -0.005,0.0112 0.003,0.0143 0.008,0.003 0.0169,0.004 0.0195,0.002 0.003,-0.002 10e-4,-0.008 -0.003,-0.0143 z m -0.0673,6.1e-4 c -0.004,-0.006 -0.0133,-0.007 -0.0195,-0.002 -0.006,0.005 -0.005,0.0112 0.003,0.0143 0.008,0.003 0.0169,0.004 0.0195,0.002 0.003,-0.002 10e-4,-0.008 -0.003,-0.0143 z m -0.0798,-0.006 c -0.009,-0.003 -0.0209,-0.002 -0.0271,0.003 -0.007,0.005 -0.002,0.0109 0.0146,0.0146 0.0282,0.006 0.0382,-0.007 0.0125,-0.0173 z m -0.0673,6.2e-4 c -0.009,-0.003 -0.0209,-0.002 -0.0271,0.003 -0.007,0.005 -0.002,0.0109 0.0146,0.0146 0.0281,0.006 0.0382,-0.007 0.0125,-0.0173 z m -0.0736,0.004 c -0.005,-0.006 -0.0133,-0.007 -0.0195,-0.002 -0.006,0.005 -0.005,0.0112 0.003,0.0143 0.008,0.003 0.0169,0.004 0.0195,0.002 0.003,-0.002 10e-4,-0.008 -0.003,-0.0143 z m -0.0673,6.1e-4 c -0.004,-0.006 -0.0133,-0.007 -0.0195,-0.002 -0.006,0.005 -0.005,0.0112 0.003,0.0143 0.008,0.003 0.0169,0.004 0.0195,0.002 0.003,-0.002 10e-4,-0.008 -0.003,-0.0143 z m -0.0672,6.1e-4 c -0.004,-0.006 -0.0133,-0.007 -0.0195,-0.002 -0.006,0.005 -0.005,0.0112 0.003,0.0143 0.008,0.003 0.0169,0.004 0.0195,0.002 0.003,-0.002 10e-4,-0.008 -0.003,-0.0143 z m -0.0798,-0.006 c -0.009,-0.003 -0.0209,-0.002 -0.0271,0.003 -0.007,0.005 -0.002,0.0109 0.0146,0.0146 0.0282,0.006 0.0382,-0.007 0.0125,-0.0173 z m -0.0736,0.004 c -0.004,-0.006 -0.0133,-0.007 -0.0195,-0.002 -0.006,0.005 -0.005,0.0112 0.003,0.0143 0.008,0.003 0.0169,0.004 0.0195,0.002 0.003,-0.002 10e-4,-0.008 -0.003,-0.0143 z m -0.0673,6.2e-4 c -0.004,-0.006 -0.0133,-0.007 -0.0195,-0.002 -0.006,0.005 -0.005,0.0112 0.003,0.0143 0.008,0.003 0.0169,0.004 0.0195,0.002 0.003,-0.002 0.001,-0.008 -0.003,-0.0143 z m -0.0672,6.1e-4 c -0.005,-0.006 -0.0133,-0.007 -0.0195,-0.002 -0.006,0.005 -0.005,0.0112 0.003,0.0143 0.008,0.003 0.0169,0.004 0.0195,0.002 0.003,-0.002 10e-4,-0.008 -0.003,-0.0143 z m -0.0798,-0.006 c -0.009,-0.003 -0.0209,-0.002 -0.0271,0.003 -0.007,0.005 -0.002,0.0109 0.0146,0.0146 0.0281,0.006 0.0382,-0.007 0.0125,-0.0173 z m -0.0673,6.1e-4 c -0.009,-0.003 -0.0209,-0.002 -0.0271,0.003 -0.007,0.005 -0.002,0.0109 0.0146,0.0146 0.0282,0.006 0.0383,-0.007 0.0125,-0.0173 z m -0.0736,0.004 c -0.004,-0.006 -0.0133,-0.007 -0.0195,-0.002 -0.006,0.005 -0.005,0.0112 0.003,0.0143 0.008,0.003 0.0169,0.004 0.0195,0.002 0.003,-0.002 10e-4,-0.008 -0.003,-0.0143 z m -0.0672,6.1e-4 c -0.004,-0.006 -0.0133,-0.007 -0.0195,-0.002 -0.006,0.005 -0.005,0.0112 0.003,0.0143 0.008,0.003 0.0169,0.004 0.0195,0.002 0.003,-0.002 0.001,-0.008 -0.003,-0.0143 z m -0.0798,-0.006 c -0.009,-0.003 -0.0209,-0.002 -0.0271,0.003 -0.007,0.005 -0.002,0.0109 0.0146,0.0147 0.0282,0.006 0.0382,-0.007 0.0125,-0.0173 z m -0.0672,6.1e-4 c -0.009,-0.003 -0.0209,-0.002 -0.0271,0.003 -0.007,0.005 -0.002,0.0109 0.0146,0.0146 0.0282,0.006 0.0382,-0.007 0.0125,-0.0173 z m -0.0736,0.004 c -0.004,-0.006 -0.0133,-0.007 -0.0195,-0.002 -0.006,0.005 -0.005,0.0112 0.003,0.0143 0.008,0.003 0.0169,0.004 0.0195,0.002 0.003,-0.002 10e-4,-0.008 -0.003,-0.0143 z m -0.0672,6.2e-4 c -0.005,-0.006 -0.0133,-0.007 -0.0195,-0.002 -0.006,0.005 -0.005,0.0112 0.003,0.0143 0.008,0.003 0.0169,0.004 0.0195,0.002 0.003,-0.002 0.001,-0.008 -0.003,-0.0143 z m -0.0798,-0.006 c -0.009,-0.003 -0.0209,-0.002 -0.0271,0.003 -0.007,0.005 -0.002,0.0109 0.0146,0.0146 0.0281,0.006 0.0382,-0.007 0.0125,-0.0173 z m -0.0673,6.1e-4 c -0.009,-0.003 -0.0209,-0.002 -0.0271,0.003 -0.007,0.005 -0.002,0.0109 0.0146,0.0147 0.0282,0.006 0.0383,-0.007 0.0125,-0.0173 z m -0.0736,0.004 c -0.004,-0.006 -0.0133,-0.007 -0.0195,-0.002 -0.006,0.005 -0.005,0.0112 0.003,0.0143 0.008,0.003 0.0169,0.004 0.0195,0.002 0.003,-0.002 10e-4,-0.008 -0.003,-0.0143 z m -0.0672,6.1e-4 c -0.004,-0.006 -0.0133,-0.007 -0.0195,-0.002 -0.006,0.005 -0.005,0.0112 0.003,0.0143 0.008,0.003 0.0169,0.004 0.0195,0.002 0.003,-0.002 10e-4,-0.008 -0.003,-0.0143 z m -0.0798,-0.006 c -0.009,-0.003 -0.0209,-0.002 -0.0271,0.003 -0.007,0.005 -0.002,0.0109 0.0146,0.0146 0.0282,0.006 0.0383,-0.007 0.0125,-0.0173 z m -0.0672,6.1e-4 c -0.009,-0.003 -0.0209,-0.002 -0.0271,0.003 -0.007,0.005 -0.002,0.0109 0.0146,0.0147 0.0282,0.006 0.0382,-0.007 0.0125,-0.0173 z m -0.0736,0.004 c -0.004,-0.006 -0.0133,-0.007 -0.0195,-0.002 -0.006,0.005 -0.005,0.0112 0.003,0.0143 0.008,0.003 0.0169,0.004 0.0195,0.002 0.003,-0.002 10e-4,-0.008 -0.003,-0.0143 z m -0.0673,6.1e-4 c -0.005,-0.006 -0.0133,-0.007 -0.0195,-0.002 -0.006,0.005 -0.005,0.0112 0.003,0.0143 0.008,0.003 0.0169,0.004 0.0195,0.002 0.003,-0.002 10e-4,-0.008 -0.003,-0.0143 z m -0.0798,-0.006 c -0.009,-0.003 -0.0209,-0.002 -0.0271,0.003 -0.007,0.005 -0.002,0.0109 0.0146,0.0146 0.0281,0.006 0.0382,-0.007 0.0125,-0.0173 z m -0.0672,6.1e-4 c -0.009,-0.003 -0.0209,-0.002 -0.0271,0.003 -0.007,0.005 -0.002,0.0109 0.0146,0.0146 0.0282,0.006 0.0382,-0.007 0.0125,-0.0173 z m -0.0736,0.004 c -0.004,-0.006 -0.0133,-0.007 -0.0195,-0.002 -0.006,0.005 -0.005,0.0112 0.003,0.0143 0.008,0.003 0.0169,0.004 0.0195,0.002 0.003,-0.002 0.001,-0.008 -0.003,-0.0143 z m -0.0673,6.1e-4 c -0.004,-0.006 -0.0133,-0.007 -0.0195,-0.002 -0.006,0.005 -0.005,0.0112 0.003,0.0143 0.008,0.003 0.0169,0.004 0.0195,0.002 0.003,-0.002 0.001,-0.008 -0.003,-0.0143 z m -0.0798,-0.006 c -0.009,-0.003 -0.0209,-0.002 -0.0271,0.003 -0.007,0.005 -0.002,0.0109 0.0146,0.0146 0.0282,0.006 0.0383,-0.007 0.0125,-0.0173 z m -0.0672,6.1e-4 c -0.009,-0.003 -0.0209,-0.002 -0.0271,0.003 -0.007,0.005 -0.002,0.0109 0.0146,0.0146 0.0282,0.006 0.0382,-0.007 0.0125,-0.0173 z m -0.0736,0.004 c -0.005,-0.006 -0.0133,-0.007 -0.0195,-0.002 -0.006,0.005 -0.005,0.0112 0.003,0.0143 0.008,0.003 0.0169,0.004 0.0195,0.002 0.003,-0.002 10e-4,-0.008 -0.003,-0.0143 z m -0.0673,6.1e-4 c -0.004,-0.006 -0.0133,-0.007 -0.0195,-0.002 -0.006,0.005 -0.005,0.0112 0.003,0.0143 0.008,0.003 0.0169,0.004 0.0195,0.002 0.003,-0.002 10e-4,-0.008 -0.003,-0.0143 z m -0.0798,-0.006 c -0.009,-0.003 -0.0209,-0.002 -0.0271,0.003 -0.007,0.005 -0.002,0.0109 0.0146,0.0146 0.0281,0.006 0.0382,-0.007 0.0125,-0.0173 z m -0.0672,6.2e-4 c -0.009,-0.003 -0.0209,-0.002 -0.0271,0.003 -0.007,0.005 -0.002,0.0109 0.0146,0.0146 0.0282,0.006 0.0382,-0.007 0.0125,-0.0173 z m -0.0736,0.004 c -0.004,-0.006 -0.0133,-0.007 -0.0195,-0.002 -0.006,0.005 -0.005,0.0112 0.003,0.0143 0.008,0.003 0.0169,0.004 0.0195,0.002 0.003,-0.002 10e-4,-0.008 -0.003,-0.0143 z m -0.0673,6.1e-4 c -0.004,-0.006 -0.0133,-0.007 -0.0195,-0.002 -0.006,0.005 -0.005,0.0112 0.003,0.0143 0.008,0.003 0.0169,0.004 0.0195,0.002 0.003,-0.002 0.001,-0.008 -0.003,-0.0143 z m -0.0672,6.1e-4 c -0.005,-0.006 -0.0133,-0.007 -0.0195,-0.002 -0.006,0.005 -0.005,0.0112 0.003,0.0143 0.008,0.003 0.0169,0.004 0.0195,0.002 0.003,-0.002 10e-4,-0.008 -0.003,-0.0143 z m -0.0798,-0.006 c -0.009,-0.003 -0.0209,-0.002 -0.0271,0.003 -0.007,0.005 -0.002,0.0109 0.0146,0.0146 0.0282,0.006 0.0382,-0.007 0.0125,-0.0173 z m -0.0736,0.004 c -0.005,-0.006 -0.0133,-0.007 -0.0195,-0.002 -0.006,0.005 -0.005,0.0112 0.003,0.0143 0.008,0.003 0.0169,0.004 0.0195,0.002 0.003,-0.002 0.001,-0.008 -0.003,-0.0143 z m -0.0673,6.1e-4 c -0.004,-0.006 -0.0133,-0.007 -0.0195,-0.002 -0.006,0.005 -0.005,0.0112 0.003,0.0143 0.008,0.003 0.0169,0.004 0.0195,0.002 0.003,-0.002 0.001,-0.008 -0.003,-0.0143 z m -0.0672,6.1e-4 c -0.004,-0.006 -0.0133,-0.007 -0.0195,-0.002 -0.006,0.005 -0.005,0.0112 0.003,0.0143 0.008,0.003 0.0169,0.004 0.0195,0.002 0.003,-0.002 0.001,-0.008 -0.003,-0.0143 z m -0.0798,-0.006 c -0.009,-0.003 -0.0209,-0.002 -0.0271,0.003 -0.007,0.005 -0.002,0.0109 0.0146,0.0146 0.0282,0.006 0.0382,-0.007 0.0125,-0.0173 z m -0.0736,0.004 c -0.004,-0.006 -0.0133,-0.007 -0.0195,-0.002 -0.006,0.005 -0.005,0.0112 0.003,0.0143 0.008,0.003 0.0169,0.004 0.0195,0.002 0.003,-0.002 10e-4,-0.008 -0.003,-0.0143 z m -0.0673,6.2e-4 c -0.004,-0.006 -0.0133,-0.007 -0.0195,-0.002 -0.006,0.005 -0.005,0.0112 0.003,0.0143 0.008,0.003 0.0169,0.004 0.0195,0.002 0.003,-0.002 10e-4,-0.008 -0.003,-0.0143 z m -0.0672,6.1e-4 c -0.005,-0.006 -0.0133,-0.007 -0.0195,-0.002 -0.006,0.005 -0.005,0.0112 0.003,0.0143 0.008,0.003 0.0169,0.004 0.0195,0.002 0.003,-0.002 10e-4,-0.008 -0.003,-0.0143 z m -0.0798,-0.006 c -0.009,-0.003 -0.0209,-0.002 -0.0271,0.003 -0.007,0.005 -0.002,0.0109 0.0146,0.0147 0.0281,0.006 0.0382,-0.007 0.0125,-0.0173 z m -0.0673,6.1e-4 c -0.009,-0.003 -0.0209,-0.002 -0.0271,0.003 -0.007,0.005 -0.002,0.0109 0.0146,0.0146 0.0281,0.006 0.0382,-0.007 0.0125,-0.0173 z m -0.0736,0.004 c -0.004,-0.006 -0.0133,-0.007 -0.0195,-0.002 -0.006,0.005 -0.005,0.0112 0.003,0.0143 0.008,0.003 0.0169,0.004 0.0195,0.002 0.003,-0.002 0.001,-0.008 -0.003,-0.0143 z m -0.0672,6.2e-4 c -0.004,-0.006 -0.0133,-0.007 -0.0195,-0.002 -0.006,0.005 -0.005,0.0112 0.003,0.0143 0.008,0.003 0.0169,0.004 0.0195,0.002 0.003,-0.002 10e-4,-0.008 -0.003,-0.0143 z m -0.0798,-0.006 c -0.009,-0.003 -0.0209,-0.002 -0.0271,0.003 -0.007,0.005 -0.002,0.0109 0.0146,0.0146 0.0282,0.006 0.0383,-0.007 0.0125,-0.0173 z m -0.0672,6.1e-4 c -0.009,-0.003 -0.0209,-0.002 -0.0271,0.003 -0.007,0.005 -0.002,0.0109 0.0146,0.0147 0.0282,0.006 0.0382,-0.007 0.0125,-0.0173 z m -0.0736,0.004 c -0.004,-0.006 -0.0133,-0.007 -0.0195,-0.002 -0.006,0.005 -0.005,0.0112 0.003,0.0143 0.008,0.003 0.0169,0.004 0.0195,0.002 0.003,-0.002 0.001,-0.008 -0.003,-0.0143 z m -0.0673,6.1e-4 c -0.005,-0.006 -0.0133,-0.007 -0.0195,-0.002 -0.006,0.005 -0.005,0.0112 0.003,0.0143 0.008,0.003 0.0169,0.004 0.0195,0.002 0.003,-0.002 0.001,-0.008 -0.003,-0.0143 z m -0.0798,-0.006 c -0.009,-0.003 -0.0209,-0.002 -0.0271,0.003 -0.007,0.005 -0.002,0.0109 0.0146,0.0146 0.0282,0.006 0.0382,-0.007 0.0125,-0.0173 z m -0.0672,6.1e-4 c -0.009,-0.003 -0.0209,-0.002 -0.0271,0.003 -0.007,0.005 -0.002,0.0109 0.0146,0.0147 0.0281,0.006 0.0382,-0.008 0.0125,-0.0173 z m -0.0736,0.004 c -0.004,-0.006 -0.0133,-0.007 -0.0195,-0.002 -0.006,0.005 -0.005,0.0112 0.003,0.0143 0.008,0.003 0.0169,0.004 0.0195,0.002 0.003,-0.002 10e-4,-0.008 -0.003,-0.0143 z m -0.0673,6.1e-4 c -0.004,-0.006 -0.0133,-0.007 -0.0195,-0.002 -0.006,0.005 -0.005,0.0112 0.003,0.0143 0.008,0.003 0.0169,0.004 0.0195,0.002 0.003,-0.002 10e-4,-0.008 -0.003,-0.0143 z m -0.0798,-0.006 c -0.009,-0.003 -0.0209,-0.002 -0.0271,0.003 -0.007,0.005 -0.002,0.0109 0.0146,0.0146 0.0282,0.006 0.0383,-0.007 0.0125,-0.0173 z m -0.0672,6.1e-4 c -0.009,-0.003 -0.0209,-0.002 -0.0271,0.003 -0.007,0.005 -0.002,0.0109 0.0146,0.0146 0.0282,0.006 0.0382,-0.007 0.0125,-0.0173 z m -0.0736,0.004 c -0.004,-0.006 -0.0133,-0.007 -0.0195,-0.002 -0.006,0.005 -0.005,0.0112 0.003,0.0143 0.008,0.003 0.0169,0.004 0.0195,0.002 0.003,-0.002 10e-4,-0.008 -0.003,-0.0143 z m -0.0673,6.1e-4 c -0.005,-0.006 -0.0133,-0.007 -0.0195,-0.002 -0.006,0.005 -0.005,0.0112 0.003,0.0143 0.008,0.003 0.0169,0.004 0.0195,0.002 0.003,-0.002 10e-4,-0.008 -0.003,-0.0143 z m -0.0798,-0.006 c -0.009,-0.003 -0.0209,-0.002 -0.0271,0.003 -0.007,0.005 -0.002,0.0109 0.0146,0.0146 0.0281,0.006 0.0382,-0.007 0.0125,-0.0173 z m -0.0672,6.1e-4 c -0.009,-0.003 -0.0209,-0.002 -0.0271,0.003 -0.007,0.005 -0.002,0.0109 0.0146,0.0146 0.0281,0.006 0.0382,-0.007 0.0125,-0.0173 z m -0.0736,0.004 c -0.004,-0.006 -0.0133,-0.007 -0.0195,-0.002 -0.006,0.005 -0.005,0.0112 0.003,0.0143 0.008,0.003 0.0169,0.004 0.0195,0.002 0.003,-0.002 0.001,-0.008 -0.003,-0.0143 z m -0.0673,6.1e-4 c -0.004,-0.006 -0.0133,-0.007 -0.0195,-0.002 -0.006,0.005 -0.005,0.0112 0.003,0.0143 0.008,0.003 0.0169,0.004 0.0195,0.002 0.003,-0.002 0.001,-0.008 -0.003,-0.0143 z m -0.0798,-0.006 c -0.009,-0.003 -0.0209,-0.002 -0.0271,0.003 -0.007,0.005 -0.002,0.0109 0.0146,0.0146 0.0282,0.006 0.0382,-0.007 0.0125,-0.0173 z m -0.0673,6.2e-4 c -0.009,-0.003 -0.0209,-0.002 -0.0271,0.003 -0.007,0.005 -0.002,0.0109 0.0146,0.0146 0.0282,0.006 0.0382,-0.007 0.0125,-0.0173 z m -0.0736,0.004 c -0.004,-0.006 -0.0133,-0.007 -0.0195,-0.002 -0.006,0.005 -0.005,0.0112 0.003,0.0143 0.008,0.003 0.0169,0.004 0.0195,0.002 0.003,-0.002 10e-4,-0.008 -0.003,-0.0143 z m -0.0672,6.1e-4 c -0.005,-0.006 -0.0133,-0.007 -0.0195,-0.002 -0.006,0.005 -0.005,0.0112 0.003,0.0143 0.008,0.003 0.0169,0.004 0.0195,0.002 0.003,-0.002 10e-4,-0.008 -0.003,-0.0143 z m -0.0798,-0.006 c -0.009,-0.003 -0.0209,-0.002 -0.0271,0.003 -0.007,0.005 -0.002,0.0109 0.0146,0.0146 0.0281,0.006 0.0382,-0.008 0.0125,-0.0173 z m -0.0673,6.1e-4 c -0.009,-0.003 -0.0209,-0.002 -0.0271,0.003 -0.007,0.005 -0.002,0.0109 0.0146,0.0146 0.0281,0.006 0.0382,-0.007 0.0125,-0.0173 z m -0.0736,0.004 c -0.004,-0.006 -0.0133,-0.007 -0.0195,-0.002 -0.006,0.005 -0.005,0.0112 0.003,0.0143 0.008,0.003 0.0169,0.004 0.0195,0.002 0.003,-0.002 0.001,-0.008 -0.003,-0.0143 z m -0.0672,6.1e-4 c -0.004,-0.006 -0.0133,-0.007 -0.0195,-0.002 -0.006,0.005 -0.005,0.0112 0.003,0.0143 0.008,0.003 0.0169,0.004 0.0195,0.002 0.003,-0.002 0.001,-0.008 -0.003,-0.0143 z m -0.0673,6.1e-4 c -0.004,-0.006 -0.0133,-0.007 -0.0195,-0.002 -0.006,0.005 -0.005,0.0112 0.003,0.0143 0.008,0.003 0.0169,0.004 0.0195,0.002 0.003,-0.002 0.001,-0.008 -0.003,-0.0143 z m -0.0798,-0.006 c -0.009,-0.003 -0.0209,-0.002 -0.0271,0.003 -0.007,0.005 -0.002,0.0109 0.0146,0.0146 0.0282,0.006 0.0382,-0.008 0.0125,-0.0173 z m -0.0736,0.004 c -0.004,-0.006 -0.0133,-0.007 -0.0195,-0.002 -0.006,0.005 -0.005,0.0112 0.003,0.0143 0.008,0.003 0.0169,0.004 0.0195,0.002 0.003,-0.002 10e-4,-0.008 -0.003,-0.0143 z m -0.0672,6.2e-4 c -0.005,-0.006 -0.0133,-0.007 -0.0195,-0.002 -0.006,0.005 -0.005,0.0112 0.003,0.0143 0.008,0.003 0.0169,0.004 0.0195,0.002 0.003,-0.002 10e-4,-0.008 -0.003,-0.0143 z m -0.0673,6.1e-4 c -0.004,-0.006 -0.0133,-0.007 -0.0195,-0.002 -0.006,0.005 -0.005,0.0112 0.003,0.0143 0.008,0.003 0.0169,0.004 0.0195,0.002 0.003,-0.002 10e-4,-0.008 -0.003,-0.0143 z m -0.0798,-0.006 c -0.009,-0.003 -0.0209,-0.002 -0.0271,0.003 -0.007,0.005 -0.002,0.0109 0.0146,0.0146 0.0282,0.006 0.0382,-0.007 0.0125,-0.0173 z m -0.0672,6.1e-4 c -0.009,-0.003 -0.0209,-0.002 -0.0271,0.003 -0.007,0.005 -0.002,0.0109 0.0146,0.0146 0.0282,0.006 0.0382,-0.008 0.0125,-0.0173 z m -0.0736,0.004 c -0.004,-0.006 -0.0133,-0.007 -0.0195,-0.002 -0.006,0.005 -0.005,0.0112 0.003,0.0143 0.008,0.003 0.0169,0.004 0.0195,0.002 0.003,-0.002 10e-4,-0.008 -0.003,-0.0143 z m -0.0673,6.2e-4 c -0.004,-0.006 -0.0133,-0.007 -0.0195,-0.002 -0.006,0.005 -0.005,0.0112 0.003,0.0143 0.008,0.003 0.0169,0.004 0.0195,0.002 0.003,-0.002 0.001,-0.008 -0.003,-0.0143 z m -0.0798,-0.006 c -0.009,-0.003 -0.0209,-0.002 -0.0271,0.003 -0.007,0.005 -0.002,0.0109 0.0146,0.0146 0.0282,0.006 0.0382,-0.007 0.0125,-0.0173 z m -0.0673,6.1e-4 c -0.009,-0.003 -0.0209,-0.002 -0.0271,0.003 -0.007,0.005 -0.002,0.0109 0.0146,0.0146 0.0281,0.006 0.0382,-0.007 0.0125,-0.0173 z m -0.0736,0.004 c -0.005,-0.006 -0.0133,-0.007 -0.0195,-0.002 -0.006,0.005 -0.005,0.0112 0.003,0.0143 0.008,0.003 0.0169,0.004 0.0195,0.002 0.003,-0.002 10e-4,-0.008 -0.003,-0.0143 z m -0.0673,6.1e-4 c -0.004,-0.006 -0.0133,-0.007 -0.0195,-0.002 -0.006,0.005 -0.005,0.0112 0.003,0.0143 0.008,0.003 0.0169,0.004 0.0195,0.002 0.003,-0.002 10e-4,-0.008 -0.003,-0.0143 z m -0.0798,-0.006 c -0.009,-0.003 -0.0209,-0.002 -0.0271,0.003 -0.007,0.005 -0.002,0.0109 0.0146,0.0146 0.0281,0.006 0.0382,-0.007 0.0125,-0.0173 z m -0.0672,6.1e-4 c -0.009,-0.003 -0.0209,-0.002 -0.0271,0.003 -0.007,0.005 -0.002,0.0109 0.0146,0.0146 0.0282,0.006 0.0382,-0.007 0.0125,-0.0173 z m -0.0736,0.004 c -0.004,-0.006 -0.0133,-0.007 -0.0195,-0.002 -0.006,0.005 -0.005,0.0112 0.003,0.0143 0.008,0.003 0.0169,0.004 0.0195,0.002 0.003,-0.002 0.001,-0.008 -0.003,-0.0143 z m -0.0673,6.1e-4 c -0.004,-0.006 -0.0133,-0.007 -0.0195,-0.002 -0.006,0.005 -0.005,0.0112 0.003,0.0143 0.008,0.003 0.0169,0.004 0.0195,0.002 0.003,-0.002 0.001,-0.008 -0.003,-0.0143 z m -0.0798,-0.006 c -0.009,-0.003 -0.0209,-0.002 -0.0271,0.003 -0.007,0.005 -0.002,0.0109 0.0146,0.0146 0.0282,0.006 0.0382,-0.007 0.0125,-0.0173 z m -0.0673,6.1e-4 c -0.009,-0.003 -0.0209,-0.002 -0.0271,0.003 -0.007,0.005 -0.002,0.0109 0.0146,0.0146 0.0281,0.006 0.0382,-0.007 0.0125,-0.0173 z m -0.0736,0.004 c -0.005,-0.006 -0.0133,-0.007 -0.0195,-0.002 -0.006,0.005 -0.005,0.0112 0.003,0.0143 0.008,0.003 0.0169,0.004 0.0195,0.002 0.003,-0.002 10e-4,-0.008 -0.003,-0.0143 z m -0.0673,6.1e-4 c -0.004,-0.006 -0.0133,-0.007 -0.0195,-0.002 -0.006,0.005 -0.005,0.0112 0.003,0.0143 0.008,0.003 0.0169,0.004 0.0195,0.002 0.003,-0.002 0.001,-0.008 -0.003,-0.0143 z m -0.0798,-0.006 c -0.009,-0.003 -0.0209,-0.002 -0.0271,0.003 -0.007,0.005 -0.002,0.0109 0.0146,0.0146 0.0282,0.006 0.0382,-0.007 0.0125,-0.0173 z m -0.0673,6.1e-4 c -0.009,-0.003 -0.0209,-0.002 -0.0271,0.003 -0.007,0.005 -0.002,0.0109 0.0146,0.0146 0.0282,0.006 0.0383,-0.007 0.0125,-0.0173 z m -0.0736,0.004 c -0.004,-0.006 -0.0133,-0.007 -0.0195,-0.002 -0.006,0.005 -0.005,0.0112 0.003,0.0143 0.008,0.003 0.0169,0.004 0.0195,0.002 0.003,-0.002 10e-4,-0.008 -0.003,-0.0143 z m -0.0672,6.1e-4 c -0.004,-0.006 -0.0133,-0.007 -0.0195,-0.002 -0.006,0.005 -0.005,0.0112 0.003,0.0143 0.008,0.003 0.0169,0.004 0.0195,0.002 0.003,-0.002 0.001,-0.008 -0.003,-0.0143 z m -0.0798,-0.006 c -0.009,-0.003 -0.0209,-0.002 -0.0271,0.003 -0.007,0.005 -0.002,0.0109 0.0146,0.0146 0.0282,0.006 0.0382,-0.007 0.0125,-0.0173 z m -0.0673,6.2e-4 c -0.009,-0.003 -0.0209,-0.002 -0.0271,0.003 -0.007,0.005 -0.002,0.0109 0.0146,0.0146 0.0282,0.006 0.0382,-0.007 0.0125,-0.0173 z m -0.0736,0.004 c -0.005,-0.006 -0.0133,-0.007 -0.0195,-0.002 -0.006,0.005 -0.005,0.0112 0.003,0.0143 0.008,0.003 0.0169,0.004 0.0195,0.002 0.003,-0.002 10e-4,-0.008 -0.003,-0.0143 z m -0.0673,6.1e-4 c -0.004,-0.006 -0.0133,-0.007 -0.0195,-0.002 -0.006,0.005 -0.005,0.0112 0.003,0.0143 0.008,0.003 0.0169,0.004 0.0195,0.002 0.003,-0.002 0.001,-0.008 -0.003,-0.0143 z m -0.0798,-0.006 c -0.009,-0.003 -0.0209,-0.002 -0.0271,0.003 -0.007,0.005 -0.002,0.0109 0.0146,0.0146 0.0282,0.006 0.0382,-0.007 0.0125,-0.0173 z m -0.0673,6.1e-4 c -0.009,-0.003 -0.0209,-0.002 -0.0271,0.003 -0.007,0.005 -0.002,0.0109 0.0146,0.0146 0.0282,0.006 0.0383,-0.007 0.0125,-0.0173 z m -0.0736,0.004 c -0.004,-0.006 -0.0133,-0.007 -0.0195,-0.002 -0.006,0.005 -0.005,0.0112 0.003,0.0143 0.008,0.003 0.0169,0.004 0.0195,0.002 0.003,-0.002 10e-4,-0.008 -0.003,-0.0143 z m -0.0672,6.1e-4 c -0.005,-0.006 -0.0133,-0.007 -0.0195,-0.002 -0.006,0.005 -0.005,0.0112 0.003,0.0143 0.008,0.003 0.0169,0.004 0.0195,0.002 0.003,-0.002 10e-4,-0.008 -0.003,-0.0143 z m -0.0673,6.1e-4 c -0.004,-0.006 -0.0133,-0.007 -0.0195,-0.002 -0.006,0.005 -0.005,0.0112 0.003,0.0143 0.008,0.003 0.0169,0.004 0.0195,0.002 0.003,-0.002 10e-4,-0.008 -0.003,-0.0143 z m -0.0798,-0.006 c -0.009,-0.003 -0.0209,-0.002 -0.0271,0.003 -0.007,0.005 -0.002,0.0109 0.0146,0.0146 0.0281,0.006 0.0382,-0.007 0.0125,-0.0173 z m -0.0736,0.004 c -0.004,-0.006 -0.0133,-0.007 -0.0195,-0.002 -0.006,0.005 -0.005,0.0112 0.003,0.0143 0.008,0.003 0.0169,0.004 0.0195,0.002 0.003,-0.002 0.001,-0.008 -0.003,-0.0143 z m -0.0672,6.2e-4 c -0.004,-0.006 -0.0133,-0.007 -0.0195,-0.002 -0.006,0.005 -0.005,0.0112 0.003,0.0143 0.008,0.003 0.0169,0.004 0.0195,0.002 0.003,-0.002 10e-4,-0.008 -0.003,-0.0143 z m -0.0673,6.1e-4 c -0.004,-0.006 -0.0133,-0.007 -0.0195,-0.002 -0.006,0.005 -0.005,0.0112 0.003,0.0143 0.008,0.003 0.0169,0.004 0.0195,0.002 0.003,-0.002 0.001,-0.008 -0.003,-0.0143 z m -0.0798,-0.006 c -0.009,-0.003 -0.0209,-0.002 -0.0271,0.003 -0.007,0.005 -0.002,0.0109 0.0146,0.0146 0.0282,0.006 0.0382,-0.007 0.0125,-0.0173 z m -0.0736,0.004 c -0.004,-0.006 -0.0133,-0.007 -0.0195,-0.002 -0.006,0.005 -0.005,0.0112 0.003,0.0143 0.008,0.003 0.0169,0.004 0.0195,0.002 0.003,-0.002 10e-4,-0.008 -0.003,-0.0143 z m -0.0672,6.1e-4 c -0.005,-0.006 -0.0133,-0.007 -0.0195,-0.002 -0.006,0.005 -0.005,0.0112 0.003,0.0143 0.008,0.003 0.0169,0.004 0.0195,0.002 0.003,-0.002 0.001,-0.008 -0.003,-0.0143 z m -0.0673,6.2e-4 c -0.004,-0.006 -0.0133,-0.007 -0.0195,-0.002 -0.006,0.005 -0.005,0.0112 0.003,0.0143 0.008,0.003 0.0169,0.004 0.0195,0.002 0.003,-0.002 10e-4,-0.008 -0.003,-0.0143 z m -0.0798,-0.006 c -0.009,-0.003 -0.0209,-0.002 -0.0271,0.003 -0.007,0.005 -0.002,0.0109 0.0146,0.0147 0.0281,0.006 0.0382,-0.007 0.0125,-0.0173 z m -0.0673,6.1e-4 c -0.009,-0.003 -0.0209,-0.002 -0.0271,0.003 -0.007,0.005 -0.002,0.0109 0.0146,0.0146 0.0282,0.006 0.0382,-0.007 0.0125,-0.0173 z m -0.0736,0.004 c -0.004,-0.006 -0.0133,-0.007 -0.0195,-0.002 -0.006,0.005 -0.005,0.0112 0.003,0.0143 0.008,0.003 0.0169,0.004 0.0195,0.002 0.003,-0.002 0.001,-0.008 -0.003,-0.0143 z m -0.0672,6.1e-4 c -0.004,-0.006 -0.0133,-0.007 -0.0195,-0.002 -0.006,0.005 -0.005,0.0112 0.003,0.0143 0.008,0.003 0.0169,0.004 0.0195,0.002 0.003,-0.002 10e-4,-0.008 -0.003,-0.0143 z m -0.0798,-0.006 c -0.009,-0.003 -0.0209,-0.002 -0.0271,0.003 -0.007,0.005 -0.002,0.0109 0.0146,0.0146 0.0282,0.006 0.0382,-0.007 0.0125,-0.0173 z m -0.0673,6.1e-4 c -0.009,-0.003 -0.0209,-0.002 -0.0271,0.003 -0.007,0.005 -0.002,0.0109 0.0146,0.0147 0.0281,0.006 0.0382,-0.007 0.0125,-0.0173 z m -0.0736,0.004 c -0.005,-0.006 -0.0133,-0.007 -0.0195,-0.002 -0.006,0.005 -0.005,0.0112 0.003,0.0143 0.008,0.003 0.0169,0.004 0.0195,0.002 0.003,-0.002 10e-4,-0.008 -0.003,-0.0143 z m -0.0673,6.1e-4 c -0.004,-0.006 -0.0133,-0.007 -0.0195,-0.002 -0.006,0.005 -0.005,0.0112 0.003,0.0143 0.008,0.003 0.0169,0.004 0.0195,0.002 0.003,-0.002 10e-4,-0.008 -0.003,-0.0143 z m -0.0798,-0.006 c -0.009,-0.003 -0.0209,-0.002 -0.0271,0.003 -0.007,0.005 -0.002,0.0109 0.0146,0.0146 0.0281,0.006 0.0382,-0.007 0.0125,-0.0173 z m -0.0673,6.1e-4 c -0.009,-0.003 -0.0209,-0.002 -0.0271,0.003 -0.007,0.005 -0.002,0.0109 0.0146,0.0146 0.0282,0.006 0.0383,-0.007 0.0125,-0.0173 z m -0.0736,0.004 c -0.004,-0.006 -0.0133,-0.007 -0.0195,-0.002 -0.006,0.005 -0.005,0.0112 0.003,0.0143 0.008,0.003 0.0169,0.004 0.0195,0.002 0.003,-0.002 0.001,-0.008 -0.003,-0.0143 z m -0.0672,6.1e-4 c -0.004,-0.006 -0.0133,-0.007 -0.0195,-0.002 -0.006,0.005 -0.005,0.0112 0.003,0.0143 0.008,0.003 0.0169,0.004 0.0195,0.002 0.003,-0.002 0.001,-0.008 -0.003,-0.0143 z m -0.0798,-0.006 c -0.009,-0.003 -0.0209,-0.002 -0.0271,0.003 -0.007,0.005 -0.002,0.0109 0.0146,0.0146 0.0282,0.006 0.0382,-0.007 0.0125,-0.0173 z m -0.0673,6.1e-4 c -0.009,-0.003 -0.0209,-0.002 -0.0271,0.003 -0.007,0.005 -0.002,0.0109 0.0146,0.0146 0.0282,0.006 0.0382,-0.007 0.0125,-0.0173 z m -0.0736,0.004 c -0.005,-0.006 -0.0133,-0.007 -0.0195,-0.002 -0.006,0.005 -0.005,0.0112 0.003,0.0143 0.008,0.003 0.0169,0.004 0.0195,0.002 0.003,-0.002 10e-4,-0.008 -0.003,-0.0143 z m -0.0673,6.1e-4 c -0.004,-0.006 -0.0133,-0.007 -0.0195,-0.002 -0.006,0.005 -0.005,0.0112 0.003,0.0143 0.008,0.003 0.0169,0.004 0.0195,0.002 0.003,-0.002 10e-4,-0.008 -0.003,-0.0143 z m -0.0798,-0.006 c -0.009,-0.003 -0.0209,-0.002 -0.0271,0.003 -0.007,0.005 -0.002,0.0109 0.0146,0.0146 0.0281,0.006 0.0382,-0.007 0.0125,-0.0173 z m -0.0673,6.2e-4 c -0.009,-0.003 -0.0209,-0.002 -0.0271,0.003 -0.007,0.005 -0.002,0.0109 0.0146,0.0146 0.0282,0.006 0.0383,-0.007 0.0125,-0.0173 z m -0.0736,0.004 c -0.004,-0.006 -0.0133,-0.007 -0.0195,-0.002 -0.006,0.005 -0.005,0.0112 0.003,0.0143 0.008,0.003 0.0169,0.004 0.0195,0.002 0.003,-0.002 10e-4,-0.008 -0.003,-0.0143 z m -0.0672,6.1e-4 c -0.004,-0.006 -0.0133,-0.007 -0.0195,-0.002 -0.006,0.005 -0.005,0.0112 0.003,0.0143 0.008,0.003 0.0169,0.004 0.0195,0.002 0.003,-0.002 0.001,-0.008 -0.003,-0.0143 z m -0.0798,-0.006 c -0.009,-0.003 -0.0209,-0.002 -0.0271,0.003 -0.007,0.005 -0.002,0.0109 0.0146,0.0146 0.0282,0.006 0.0382,-0.007 0.0125,-0.0173 z m -0.0673,6.1e-4 c -0.009,-0.003 -0.0209,-0.002 -0.0271,0.003 -0.007,0.005 -0.002,0.0109 0.0146,0.0146 0.0281,0.006 0.0382,-0.007 0.0125,-0.0173 z m -0.0736,0.004 c -0.005,-0.006 -0.0133,-0.007 -0.0195,-0.002 -0.006,0.005 -0.005,0.0112 0.003,0.0143 0.008,0.003 0.0169,0.004 0.0195,0.002 0.003,-0.002 10e-4,-0.008 -0.003,-0.0143 z m -0.0673,6.1e-4 c -0.004,-0.006 -0.0133,-0.007 -0.0195,-0.002 -0.006,0.005 -0.005,0.0112 0.003,0.0143 0.008,0.003 0.0169,0.004 0.0195,0.002 0.003,-0.002 0.001,-0.008 -0.003,-0.0143 z m -0.0798,-0.006 c -0.009,-0.003 -0.0209,-0.002 -0.0271,0.003 -0.007,0.005 -0.002,0.0109 0.0146,0.0147 0.0281,0.006 0.0382,-0.007 0.0125,-0.0173 z m -0.0672,6.1e-4 c -0.009,-0.003 -0.0209,-0.002 -0.0271,0.003 -0.007,0.005 -0.002,0.0109 0.0146,0.0146 0.0282,0.006 0.0382,-0.007 0.0125,-0.0173 z m -0.0736,0.004 c -0.004,-0.006 -0.0133,-0.007 -0.0195,-0.002 -0.006,0.005 -0.005,0.0112 0.003,0.0143 0.008,0.003 0.0169,0.004 0.0195,0.002 0.003,-0.002 0.001,-0.008 -0.003,-0.0143 z m -0.0673,6.2e-4 c -0.004,-0.006 -0.0133,-0.007 -0.0195,-0.002 -0.006,0.005 -0.005,0.0112 0.003,0.0143 0.008,0.003 0.0169,0.004 0.0195,0.002 0.003,-0.002 0.001,-0.008 -0.003,-0.0143 z m -0.0672,6.1e-4 c -0.005,-0.006 -0.0133,-0.007 -0.0195,-0.002 -0.006,0.005 -0.005,0.0112 0.003,0.0143 0.008,0.003 0.0169,0.004 0.0195,0.002 0.003,-0.002 0.001,-0.008 -0.003,-0.0143 z m -0.0798,-0.006 c -0.009,-0.003 -0.0209,-0.002 -0.0271,0.003 -0.007,0.005 -0.002,0.0109 0.0146,0.0147 0.0281,0.006 0.0382,-0.007 0.0125,-0.0173 z m -0.0736,0.004 c -0.005,-0.006 -0.0133,-0.007 -0.0195,-0.002 -0.006,0.005 -0.005,0.0112 0.003,0.0143 0.008,0.003 0.0169,0.004 0.0195,0.002 0.003,-0.002 10e-4,-0.008 -0.003,-0.0143 z m -0.0673,6.1e-4 c -0.004,-0.006 -0.0133,-0.007 -0.0195,-0.002 -0.006,0.005 -0.005,0.0112 0.003,0.0143 0.008,0.003 0.0169,0.004 0.0195,0.002 0.003,-0.002 10e-4,-0.008 -0.003,-0.0143 z m -0.0672,6.2e-4 c -0.004,-0.006 -0.0133,-0.007 -0.0195,-0.002 -0.006,0.005 -0.005,0.0112 0.003,0.0143 0.008,0.003 0.0169,0.004 0.0195,0.002 0.003,-0.002 10e-4,-0.008 -0.003,-0.0143 z m -0.0798,-0.006 c -0.009,-0.003 -0.0209,-0.002 -0.0271,0.003 -0.007,0.005 -0.002,0.0109 0.0146,0.0147 0.0282,0.006 0.0382,-0.007 0.0125,-0.0173 z m -0.0673,6.1e-4 c -0.009,-0.003 -0.0209,-0.002 -0.0271,0.003 -0.007,0.005 -0.002,0.0109 0.0146,0.0146 0.0282,0.006 0.0382,-0.007 0.0125,-0.0173 z m -0.0736,0.004 c -0.004,-0.006 -0.0133,-0.007 -0.0195,-0.002 -0.006,0.005 -0.005,0.0112 0.003,0.0143 0.008,0.003 0.0169,0.004 0.0195,0.002 0.003,-0.002 0.001,-0.008 -0.003,-0.0143 z m -0.0672,6.2e-4 c -0.005,-0.006 -0.0133,-0.007 -0.0195,-0.002 -0.006,0.005 -0.005,0.0112 0.003,0.0143 0.008,0.003 0.0169,0.004 0.0195,0.002 0.003,-0.002 10e-4,-0.008 -0.003,-0.0143 z m -0.0798,-0.006 c -0.009,-0.003 -0.0209,-0.002 -0.0271,0.003 -0.007,0.005 -0.002,0.0109 0.0146,0.0146 0.0281,0.006 0.0382,-0.007 0.0125,-0.0173 z m -0.0673,6.1e-4 c -0.009,-0.003 -0.0209,-0.002 -0.0271,0.003 -0.007,0.005 -0.002,0.0109 0.0146,0.0147 0.0282,0.006 0.0382,-0.007 0.0125,-0.0173 z m -0.0736,0.004 c -0.004,-0.006 -0.0133,-0.007 -0.0195,-0.002 -0.006,0.005 -0.005,0.0112 0.003,0.0143 0.008,0.003 0.0169,0.004 0.0195,0.002 0.003,-0.002 10e-4,-0.008 -0.003,-0.0143 z m -0.0672,6.1e-4 c -0.004,-0.006 -0.0133,-0.007 -0.0195,-0.002 -0.006,0.005 -0.005,0.0112 0.003,0.0143 0.008,0.003 0.0169,0.004 0.0195,0.002 0.003,-0.002 0.001,-0.008 -0.003,-0.0143 z m -0.0798,-0.006 c -0.009,-0.003 -0.0209,-0.002 -0.0271,0.003 -0.007,0.005 -0.002,0.0109 0.0146,0.0146 0.0282,0.006 0.0382,-0.007 0.0125,-0.0173 z m -0.0672,6.1e-4 c -0.009,-0.003 -0.0209,-0.002 -0.0271,0.003 -0.007,0.005 -0.002,0.0109 0.0146,0.0146 0.0282,0.006 0.0382,-0.007 0.0125,-0.0173 z m -0.0736,0.004 c -0.004,-0.006 -0.0133,-0.007 -0.0195,-0.002 -0.006,0.005 -0.005,0.0112 0.003,0.0143 0.008,0.003 0.0169,0.004 0.0195,0.002 0.003,-0.002 0.001,-0.008 -0.003,-0.0143 z m -0.0672,6.1e-4 c -0.005,-0.006 -0.0133,-0.007 -0.0195,-0.002 -0.006,0.005 -0.005,0.0112 0.003,0.0143 0.008,0.003 0.0169,0.004 0.0195,0.002 0.003,-0.002 0.001,-0.008 -0.003,-0.0143 z m -0.0798,-0.006 c -0.009,-0.003 -0.0209,-0.002 -0.0271,0.003 -0.007,0.005 -0.002,0.0109 0.0146,0.0146 0.0281,0.006 0.0382,-0.007 0.0125,-0.0173 z m -0.0673,6.1e-4 c -0.009,-0.003 -0.0209,-0.002 -0.0271,0.003 -0.007,0.005 -0.002,0.0109 0.0146,0.0146 0.0281,0.006 0.0382,-0.007 0.0125,-0.0173 z m -0.0736,0.004 c -0.004,-0.006 -0.0133,-0.007 -0.0195,-0.002 -0.006,0.005 -0.005,0.0112 0.003,0.0143 0.008,0.003 0.0169,0.004 0.0195,0.002 0.003,-0.002 10e-4,-0.008 -0.003,-0.0143 z m -0.0672,6.1e-4 c -0.004,-0.006 -0.0133,-0.007 -0.0195,-0.002 -0.006,0.005 -0.005,0.0112 0.003,0.0143 0.008,0.003 0.0169,0.004 0.0195,0.002 0.003,-0.002 10e-4,-0.008 -0.003,-0.0143 z m -0.0798,-0.006 c -0.009,-0.003 -0.0209,-0.002 -0.0271,0.003 -0.007,0.005 -0.002,0.0109 0.0146,0.0146 0.0282,0.006 0.0383,-0.007 0.0125,-0.0173 z m -0.0672,6.2e-4 c -0.009,-0.003 -0.0209,-0.002 -0.0271,0.003 -0.007,0.005 -0.002,0.0109 0.0146,0.0146 0.0282,0.006 0.0382,-0.007 0.0125,-0.0173 z m -0.0736,0.004 c -0.004,-0.006 -0.0133,-0.007 -0.0195,-0.002 -0.006,0.005 -0.005,0.0112 0.003,0.0143 0.008,0.003 0.0169,0.004 0.0195,0.002 0.003,-0.002 10e-4,-0.008 -0.003,-0.0143 z m -0.0673,6.1e-4 c -0.005,-0.006 -0.0133,-0.007 -0.0195,-0.002 -0.006,0.005 -0.005,0.0112 0.003,0.0143 0.008,0.003 0.0169,0.004 0.0195,0.002 0.003,-0.002 10e-4,-0.008 -0.003,-0.0143 z m -0.0798,-0.006 c -0.009,-0.003 -0.0209,-0.002 -0.0271,0.003 -0.007,0.005 -0.002,0.0109 0.0146,0.0146 0.0282,0.006 0.0382,-0.007 0.0125,-0.0173 z m -0.0672,6.2e-4 c -0.009,-0.003 -0.0209,-0.002 -0.0271,0.003 -0.007,0.005 -0.002,0.0109 0.0146,0.0146 0.0282,0.006 0.0382,-0.007 0.0125,-0.0173 z m -0.0736,0.004 c -0.004,-0.006 -0.0133,-0.007 -0.0195,-0.002 -0.006,0.005 -0.005,0.0112 0.003,0.0143 0.008,0.003 0.0169,0.004 0.0195,0.002 0.003,-0.002 0.001,-0.008 -0.003,-0.0143 z m -0.0673,6.1e-4 c -0.004,-0.006 -0.0133,-0.007 -0.0195,-0.002 -0.006,0.005 -0.005,0.0112 0.003,0.0143 0.008,0.003 0.0169,0.004 0.0195,0.002 0.003,-0.002 0.001,-0.008 -0.003,-0.0143 z m -0.0798,-0.006 c -0.009,-0.003 -0.0209,-0.002 -0.0271,0.003 -0.007,0.005 -0.002,0.0109 0.0146,0.0147 0.0282,0.006 0.0383,-0.007 0.0125,-0.0173 z m -0.0672,6.1e-4 c -0.009,-0.003 -0.0209,-0.002 -0.0271,0.003 -0.007,0.005 -0.002,0.0109 0.0146,0.0146 0.0282,0.006 0.0382,-0.007 0.0125,-0.0173 z m -0.0736,0.004 c -0.004,-0.006 -0.0133,-0.007 -0.0195,-0.002 -0.006,0.005 -0.005,0.0112 0.003,0.0143 0.008,0.003 0.0169,0.004 0.0195,0.002 0.003,-0.002 0.001,-0.008 -0.003,-0.0143 z m -0.0673,6.2e-4 c -0.005,-0.006 -0.0133,-0.007 -0.0195,-0.002 -0.006,0.005 -0.005,0.0112 0.003,0.0143 0.008,0.003 0.0169,0.004 0.0195,0.002 0.003,-0.002 10e-4,-0.008 -0.003,-0.0143 z m -0.0798,-0.006 c -0.009,-0.003 -0.0209,-0.002 -0.0271,0.003 -0.007,0.005 -0.002,0.0109 0.0146,0.0147 0.0281,0.006 0.0382,-0.007 0.0125,-0.0173 z m -0.0672,6.1e-4 c -0.009,-0.003 -0.0209,-0.002 -0.0271,0.003 -0.007,0.005 -0.002,0.0109 0.0146,0.0147 0.0282,0.006 0.0382,-0.007 0.0125,-0.0173 z m -0.0736,0.004 c -0.004,-0.006 -0.0133,-0.007 -0.0195,-0.002 -0.006,0.005 -0.005,0.0112 0.003,0.0143 0.008,0.003 0.0169,0.004 0.0195,0.002 0.003,-0.002 10e-4,-0.008 -0.003,-0.0143 z m -0.0673,6.1e-4 c -0.004,-0.006 -0.0133,-0.007 -0.0195,-0.002 -0.006,0.005 -0.005,0.0112 0.003,0.0143 0.008,0.003 0.0169,0.004 0.0195,0.002 0.003,-0.002 10e-4,-0.008 -0.003,-0.0143 z m -0.0672,6.2e-4 c -0.004,-0.006 -0.0133,-0.007 -0.0195,-0.002 -0.006,0.005 -0.005,0.0112 0.003,0.0143 0.008,0.003 0.0169,0.004 0.0195,0.002 0.003,-0.002 10e-4,-0.008 -0.003,-0.0143 z m -0.0798,-0.006 c -0.009,-0.003 -0.0209,-0.002 -0.0271,0.003 -0.007,0.005 -0.002,0.0109 0.0146,0.0147 0.0282,0.006 0.0382,-0.007 0.0125,-0.0173 z m -0.0736,0.004 c -0.005,-0.006 -0.0133,-0.007 -0.0195,-0.002 -0.006,0.005 -0.005,0.0112 0.003,0.0143 0.008,0.003 0.0169,0.004 0.0195,0.002 0.003,-0.002 0.001,-0.008 -0.003,-0.0143 z m -0.0673,6.1e-4 c -0.004,-0.006 -0.0133,-0.007 -0.0195,-0.002 -0.006,0.005 -0.005,0.0112 0.003,0.0143 0.008,0.003 0.0169,0.004 0.0195,0.002 0.003,-0.002 0.001,-0.008 -0.003,-0.0143 z m -0.0672,6.2e-4 c -0.004,-0.006 -0.0133,-0.007 -0.0195,-0.002 -0.006,0.005 -0.005,0.0112 0.003,0.0143 0.008,0.003 0.0169,0.004 0.0195,0.002 0.003,-0.002 0.001,-0.008 -0.003,-0.0143 z m -0.0798,-0.006 c -0.009,-0.003 -0.0209,-0.002 -0.0271,0.003 -0.007,0.005 -0.002,0.0109 0.0146,0.0146 0.0282,0.006 0.0382,-0.007 0.0125,-0.0173 z m -0.0672,6.1e-4 c -0.009,-0.003 -0.0209,-0.002 -0.0271,0.003 -0.007,0.005 -0.002,0.0109 0.0146,0.0147 0.0282,0.006 0.0382,-0.007 0.0125,-0.0173 z m -0.0736,0.004 c -0.004,-0.006 -0.0133,-0.007 -0.0195,-0.002 -0.006,0.005 -0.005,0.0112 0.003,0.0143 0.008,0.003 0.0169,0.004 0.0195,0.002 0.003,-0.002 0.001,-0.008 -0.003,-0.0143 z m -0.0673,6.1e-4 c -0.005,-0.006 -0.0133,-0.007 -0.0195,-0.002 -0.006,0.005 -0.005,0.0112 0.003,0.0143 0.008,0.003 0.0169,0.004 0.0195,0.002 0.003,-0.002 10e-4,-0.008 -0.003,-0.0143 z m -0.0798,-0.006 c -0.009,-0.003 -0.0209,-0.002 -0.0271,0.003 -0.007,0.005 -0.002,0.0109 0.0146,0.0146 0.0282,0.006 0.0382,-0.007 0.0125,-0.0173 z m -0.0673,6.1e-4 c -0.009,-0.003 -0.0209,-0.002 -0.0271,0.003 -0.007,0.005 -0.002,0.0109 0.0146,0.0146 0.0281,0.006 0.0382,-0.007 0.0125,-0.0173 z m -0.0736,0.004 c -0.004,-0.006 -0.0133,-0.007 -0.0195,-0.002 -0.006,0.005 -0.005,0.0112 0.003,0.0143 0.008,0.003 0.0169,0.004 0.0195,0.002 0.003,-0.002 0.001,-0.008 -0.003,-0.0143 z m -0.0672,6.1e-4 c -0.004,-0.006 -0.0133,-0.007 -0.0195,-0.002 -0.006,0.005 -0.005,0.0112 0.003,0.0143 0.008,0.003 0.0169,0.004 0.0195,0.002 0.003,-0.002 10e-4,-0.008 -0.003,-0.0143 z m -0.0798,-0.006 c -0.009,-0.003 -0.0209,-0.002 -0.0271,0.003 -0.007,0.005 -0.002,0.0109 0.0146,0.0146 0.0282,0.006 0.0383,-0.007 0.0125,-0.0173 z m -0.0672,6.1e-4 c -0.009,-0.003 -0.0209,-0.002 -0.0271,0.003 -0.007,0.005 -0.002,0.0109 0.0146,0.0146 0.0282,0.006 0.0382,-0.007 0.0125,-0.0173 z m -0.0736,0.004 c -0.004,-0.006 -0.0133,-0.007 -0.0195,-0.002 -0.006,0.005 -0.005,0.0112 0.003,0.0143 0.008,0.003 0.0169,0.004 0.0195,0.002 0.003,-0.002 0.001,-0.008 -0.003,-0.0143 z m -0.0673,6.1e-4 c -0.005,-0.006 -0.0133,-0.007 -0.0195,-0.002 -0.006,0.005 -0.005,0.0112 0.003,0.0143 0.008,0.003 0.0169,0.004 0.0195,0.002 0.003,-0.002 0.001,-0.008 -0.003,-0.0143 z m -0.0798,-0.006 c -0.009,-0.003 -0.0209,-0.002 -0.0271,0.003 -0.007,0.005 -0.002,0.0109 0.0146,0.0146 0.0282,0.006 0.0382,-0.007 0.0125,-0.0173 z m -0.0673,6.2e-4 c -0.009,-0.003 -0.0209,-0.002 -0.0271,0.003 -0.007,0.005 -0.002,0.0109 0.0146,0.0146 0.0281,0.006 0.0382,-0.007 0.0125,-0.0173 z m -0.0736,0.004 c -0.004,-0.006 -0.0133,-0.007 -0.0195,-0.002 -0.006,0.005 -0.005,0.0112 0.003,0.0143 0.008,0.003 0.0169,0.004 0.0195,0.002 0.003,-0.002 10e-4,-0.008 -0.003,-0.0143 z m -0.0673,6.1e-4 c -0.004,-0.006 -0.0133,-0.007 -0.0195,-0.002 -0.006,0.005 -0.005,0.0112 0.003,0.0143 0.008,0.003 0.0169,0.004 0.0195,0.002 0.003,-0.002 0.001,-0.008 -0.003,-0.0143 z m -0.0798,-0.006 c -0.009,-0.003 -0.0209,-0.002 -0.0271,0.003 -0.007,0.005 -0.002,0.0109 0.0146,0.0146 0.0282,0.006 0.0383,-0.007 0.0125,-0.0173 z m -0.0672,6.2e-4 c -0.009,-0.003 -0.0209,-0.002 -0.0271,0.003 -0.007,0.005 -0.002,0.0109 0.0146,0.0146 0.0282,0.006 0.0382,-0.007 0.0125,-0.0173 z m -0.0736,0.004 c -0.004,-0.006 -0.0133,-0.007 -0.0195,-0.002 -0.006,0.005 -0.005,0.0112 0.003,0.0143 0.008,0.003 0.0169,0.004 0.0195,0.002 0.003,-0.002 0.001,-0.008 -0.003,-0.0143 z m -0.0673,6.1e-4 c -0.005,-0.006 -0.0133,-0.007 -0.0195,-0.002 -0.006,0.005 -0.005,0.0112 0.003,0.0143 0.008,0.003 0.0169,0.004 0.0195,0.002 0.003,-0.002 0.001,-0.008 -0.003,-0.0143 z m -0.0798,-0.006 c -0.009,-0.003 -0.0209,-0.002 -0.0271,0.003 -0.007,0.005 -0.002,0.0109 0.0146,0.0147 0.0281,0.006 0.0382,-0.008 0.0125,-0.0173 z m -0.0673,6.1e-4 c -0.009,-0.003 -0.0209,-0.002 -0.0271,0.003 -0.007,0.005 -0.002,0.0109 0.0146,0.0146 0.0281,0.006 0.0382,-0.007 0.0125,-0.0173 z m -0.0736,0.004 c -0.004,-0.006 -0.0133,-0.007 -0.0195,-0.002 -0.006,0.005 -0.005,0.0112 0.003,0.0143 0.008,0.003 0.0169,0.004 0.0195,0.002 0.003,-0.002 10e-4,-0.008 -0.003,-0.0143 z m -0.0673,6.2e-4 c -0.004,-0.006 -0.0133,-0.007 -0.0195,-0.002 -0.006,0.005 -0.005,0.0112 0.003,0.0143 0.008,0.003 0.0169,0.004 0.0195,0.002 0.003,-0.002 0.001,-0.008 -0.003,-0.0143 z m -0.0798,-0.006 c -0.009,-0.003 -0.0209,-0.002 -0.0271,0.003 -0.007,0.005 -0.002,0.0109 0.0146,0.0146 0.0282,0.006 0.0382,-0.007 0.0125,-0.0173 z m -0.0673,6.1e-4 c -0.009,-0.003 -0.0209,-0.002 -0.0271,0.003 -0.007,0.005 -0.002,0.0109 0.0146,0.0146 0.0282,0.006 0.0382,-0.008 0.0125,-0.0173 z m -0.0736,0.004 c -0.004,-0.006 -0.0133,-0.007 -0.0195,-0.002 -0.006,0.005 -0.005,0.0112 0.003,0.0143 0.008,0.003 0.0169,0.004 0.0195,0.002 0.003,-0.002 10e-4,-0.008 -0.003,-0.0143 z m -0.0672,6.2e-4 c -0.005,-0.006 -0.0133,-0.007 -0.0195,-0.002 -0.006,0.005 -0.005,0.0112 0.003,0.0143 0.008,0.003 0.0169,0.004 0.0195,0.002 0.003,-0.002 10e-4,-0.008 -0.003,-0.0143 z m -0.0673,6.1e-4 c -0.004,-0.006 -0.0133,-0.007 -0.0195,-0.002 -0.006,0.005 -0.005,0.0112 0.003,0.0143 0.008,0.003 0.0169,0.004 0.0195,0.002 0.003,-0.002 10e-4,-0.008 -0.003,-0.0143 z m -0.0798,-0.006 c -0.009,-0.003 -0.0209,-0.002 -0.0271,0.003 -0.007,0.005 -0.002,0.0109 0.0146,0.0146 0.0281,0.006 0.0382,-0.007 0.0125,-0.0173 z m -0.0736,0.004 c -0.004,-0.006 -0.0133,-0.007 -0.0195,-0.002 -0.006,0.005 -0.005,0.0112 0.003,0.0143 0.008,0.003 0.0169,0.004 0.0195,0.002 0.003,-0.002 0.001,-0.008 -0.003,-0.0143 z m -0.0672,6.1e-4 c -0.004,-0.006 -0.0133,-0.007 -0.0195,-0.002 -0.006,0.005 -0.005,0.0112 0.003,0.0143 0.008,0.003 0.0169,0.004 0.0195,0.002 0.003,-0.002 10e-4,-0.008 -0.003,-0.0143 z m -0.0673,6.2e-4 c -0.004,-0.006 -0.0133,-0.007 -0.0195,-0.002 -0.006,0.005 -0.005,0.0112 0.003,0.0143 0.008,0.003 0.0169,0.004 0.0195,0.002 0.003,-0.002 0.001,-0.008 -0.003,-0.0143 z m -0.0798,-0.006 c -0.009,-0.003 -0.0209,-0.002 -0.0271,0.003 -0.007,0.005 -0.002,0.0109 0.0146,0.0146 0.0282,0.006 0.0382,-0.007 0.0125,-0.0173 z m -0.0736,0.004 c -0.004,-0.006 -0.0133,-0.007 -0.0195,-0.002 -0.006,0.005 -0.005,0.0112 0.003,0.0143 0.008,0.003 0.0169,0.004 0.0195,0.002 0.003,-0.002 10e-4,-0.008 -0.003,-0.0143 z m -0.0672,6.1e-4 c -0.005,-0.006 -0.0133,-0.007 -0.0195,-0.002 -0.006,0.005 -0.005,0.0112 0.003,0.0143 0.008,0.003 0.0169,0.004 0.0195,0.002 0.003,-0.002 0.001,-0.008 -0.003,-0.0143 z m -0.0673,6.1e-4 c -0.004,-0.006 -0.0133,-0.007 -0.0195,-0.002 -0.006,0.005 -0.005,0.0112 0.003,0.0143 0.008,0.003 0.0169,0.004 0.0195,0.002 0.003,-0.002 10e-4,-0.008 -0.003,-0.0143 z m -0.0798,-0.006 c -0.009,-0.003 -0.0209,-0.002 -0.0271,0.003 -0.007,0.005 -0.002,0.0109 0.0146,0.0146 0.0282,0.006 0.0382,-0.007 0.0125,-0.0173 z m -0.0672,6.1e-4 c -0.009,-0.003 -0.0209,-0.002 -0.0271,0.003 -0.007,0.005 -0.002,0.0109 0.0146,0.0146 0.0282,0.006 0.0382,-0.007 0.0125,-0.0173 z m -0.0736,0.004 c -0.004,-0.006 -0.0133,-0.007 -0.0195,-0.002 -0.006,0.005 -0.005,0.0112 0.003,0.0143 0.008,0.003 0.0169,0.004 0.0195,0.002 0.003,-0.002 10e-4,-0.008 -0.003,-0.0143 z m -0.0673,6.1e-4 c -0.004,-0.006 -0.0133,-0.007 -0.0195,-0.002 -0.006,0.005 -0.005,0.0112 0.003,0.0143 0.008,0.003 0.0169,0.004 0.0195,0.002 0.003,-0.002 10e-4,-0.008 -0.003,-0.0143 z m -0.0798,-0.006 c -0.009,-0.003 -0.0209,-0.002 -0.0271,0.003 -0.007,0.005 -0.002,0.0109 0.0146,0.0146 0.0282,0.006 0.0382,-0.007 0.0125,-0.0173 z m -0.0673,6.1e-4 c -0.009,-0.003 -0.0209,-0.002 -0.0271,0.003 -0.007,0.005 -0.002,0.0109 0.0146,0.0146 0.0281,0.006 0.0382,-0.007 0.0125,-0.0173 z m -0.0736,0.004 c -0.005,-0.006 -0.0133,-0.007 -0.0195,-0.002 -0.006,0.005 -0.005,0.0112 0.003,0.0143 0.008,0.003 0.0169,0.004 0.0195,0.002 0.003,-0.002 10e-4,-0.008 -0.003,-0.0143 z m -0.0673,6.1e-4 c -0.004,-0.006 -0.0133,-0.007 -0.0195,-0.002 -0.006,0.005 -0.005,0.0112 0.003,0.0143 0.008,0.003 0.0169,0.004 0.0195,0.002 0.003,-0.002 10e-4,-0.008 -0.003,-0.0143 z m -0.0798,-0.006 c -0.009,-0.003 -0.0209,-0.002 -0.0271,0.003 -0.007,0.005 -0.002,0.0109 0.0146,0.0146 0.0281,0.006 0.0382,-0.007 0.0125,-0.0173 z m -0.0672,6.1e-4 c -0.009,-0.003 -0.0209,-0.002 -0.0271,0.003 -0.007,0.005 -0.002,0.0109 0.0146,0.0146 0.0282,0.006 0.0382,-0.007 0.0125,-0.0173 z m -0.0736,0.004 c -0.004,-0.006 -0.0133,-0.007 -0.0195,-0.002 -0.006,0.005 -0.005,0.0112 0.003,0.0143 0.008,0.003 0.0169,0.004 0.0195,0.002 0.003,-0.002 10e-4,-0.008 -0.003,-0.0143 z m -0.0673,6.1e-4 c -0.004,-0.006 -0.0133,-0.007 -0.0195,-0.002 -0.006,0.005 -0.005,0.0112 0.003,0.0143 0.008,0.003 0.0169,0.004 0.0195,0.002 0.003,-0.002 0.001,-0.008 -0.003,-0.0143 z m -0.0798,-0.006 c -0.009,-0.003 -0.0209,-0.002 -0.0271,0.003 -0.007,0.005 -0.002,0.0109 0.0146,0.0146 0.0282,0.006 0.0382,-0.007 0.0125,-0.0173 z m -0.0673,6.2e-4 c -0.009,-0.003 -0.0209,-0.002 -0.0271,0.003 -0.007,0.005 -0.002,0.0109 0.0146,0.0146 0.0281,0.006 0.0382,-0.007 0.0125,-0.0173 z m -0.0736,0.004 c -0.005,-0.006 -0.0133,-0.007 -0.0195,-0.002 -0.006,0.005 -0.005,0.0112 0.003,0.0143 0.008,0.003 0.0169,0.004 0.0195,0.002 0.003,-0.002 10e-4,-0.008 -0.003,-0.0143 z m -0.0673,6.1e-4 c -0.004,-0.006 -0.0133,-0.007 -0.0195,-0.002 -0.006,0.005 -0.005,0.0112 0.003,0.0143 0.008,0.003 0.0169,0.004 0.0195,0.002 0.003,-0.002 10e-4,-0.008 -0.003,-0.0143 z m -0.0798,-0.006 c -0.009,-0.003 -0.0209,-0.002 -0.0271,0.003 -0.007,0.005 -0.002,0.0109 0.0146,0.0146 0.0281,0.006 0.0382,-0.007 0.0125,-0.0173 z m -0.0673,6.1e-4 c -0.009,-0.003 -0.0209,-0.002 -0.0271,0.003 -0.007,0.005 -0.002,0.0109 0.0146,0.0146 0.0282,0.006 0.0383,-0.007 0.0125,-0.0173 z m -0.0736,0.004 c -0.004,-0.006 -0.0133,-0.007 -0.0195,-0.002 -0.006,0.005 -0.005,0.0112 0.003,0.0143 0.008,0.003 0.0169,0.004 0.0195,0.002 0.003,-0.002 10e-4,-0.008 -0.003,-0.0143 z m -0.0672,6.2e-4 c -0.004,-0.006 -0.0133,-0.007 -0.0195,-0.002 -0.006,0.005 -0.005,0.0112 0.003,0.0143 0.008,0.003 0.0169,0.004 0.0195,0.002 0.003,-0.002 0.001,-0.008 -0.003,-0.0143 z m -0.0798,-0.006 c -0.009,-0.003 -0.0209,-0.002 -0.0271,0.003 -0.007,0.005 -0.002,0.0109 0.0146,0.0146 0.0282,0.006 0.0382,-0.007 0.0125,-0.0173 z m -0.0673,6.1e-4 c -0.009,-0.003 -0.0209,-0.002 -0.0271,0.003 -0.007,0.005 -0.002,0.0109 0.0146,0.0146 0.0282,0.006 0.0382,-0.007 0.0125,-0.0173 z m -0.0736,0.004 c -0.005,-0.006 -0.0133,-0.007 -0.0195,-0.002 -0.006,0.005 -0.005,0.0112 0.003,0.0143 0.008,0.003 0.0169,0.004 0.0195,0.002 0.003,-0.002 10e-4,-0.008 -0.003,-0.0143 z m -0.0673,6.2e-4 c -0.004,-0.006 -0.0133,-0.007 -0.0195,-0.002 -0.006,0.005 -0.005,0.0112 0.003,0.0143 0.008,0.003 0.0169,0.004 0.0195,0.002 0.003,-0.002 0.001,-0.008 -0.003,-0.0143 z m -0.0798,-0.006 c -0.009,-0.003 -0.0209,-0.002 -0.0271,0.003 -0.007,0.005 -0.002,0.0109 0.0146,0.0146 0.0282,0.006 0.0382,-0.007 0.0125,-0.0173 z m -0.0673,6.1e-4 c -0.009,-0.003 -0.0209,-0.002 -0.0271,0.003 -0.007,0.005 -0.002,0.0109 0.0146,0.0146 0.0282,0.006 0.0383,-0.007 0.0125,-0.0173 z m -0.0736,0.004 c -0.004,-0.006 -0.0133,-0.007 -0.0195,-0.002 -0.006,0.005 -0.005,0.0112 0.003,0.0143 0.008,0.003 0.0169,0.004 0.0195,0.002 0.003,-0.002 10e-4,-0.008 -0.003,-0.0143 z m -0.0672,6.1e-4 c -0.004,-0.006 -0.0133,-0.007 -0.0195,-0.002 -0.006,0.005 -0.005,0.0112 0.003,0.0143 0.008,0.003 0.0169,0.004 0.0195,0.002 0.003,-0.002 0.001,-0.008 -0.003,-0.0143 z m -0.0673,6.2e-4 c -0.005,-0.006 -0.0133,-0.007 -0.0195,-0.002 -0.006,0.005 -0.005,0.0112 0.003,0.0143 0.008,0.003 0.0169,0.004 0.0195,0.002 0.003,-0.002 10e-4,-0.008 -0.003,-0.0143 z m -0.0798,-0.006 c -0.009,-0.003 -0.0209,-0.002 -0.0271,0.003 -0.007,0.005 -0.002,0.0109 0.0146,0.0146 0.0281,0.006 0.0382,-0.007 0.0125,-0.0173 z m -0.0736,0.004 c -0.005,-0.006 -0.0133,-0.007 -0.0195,-0.002 -0.006,0.005 -0.005,0.0112 0.003,0.0143 0.008,0.003 0.0169,0.004 0.0195,0.002 0.003,-0.002 10e-4,-0.008 -0.003,-0.0143 z m -0.0673,6.1e-4 c -0.004,-0.006 -0.0133,-0.007 -0.0195,-0.002 -0.006,0.005 -0.005,0.0112 0.003,0.0143 0.008,0.003 0.0169,0.004 0.0195,0.002 0.003,-0.002 0.001,-0.008 -0.003,-0.0143 z m -0.0673,6.1e-4 c -0.004,-0.006 -0.0133,-0.007 -0.0195,-0.002 -0.006,0.005 -0.005,0.0112 0.003,0.0143 0.008,0.003 0.0169,0.004 0.0195,0.002 0.003,-0.002 0.001,-0.008 -0.003,-0.0143 z m -0.0798,-0.006 c -0.009,-0.003 -0.0209,-0.002 -0.0271,0.003 -0.007,0.005 -0.002,0.0109 0.0146,0.0146 0.0282,0.006 0.0382,-0.007 0.0125,-0.0173 z m -0.0673,6.1e-4 c -0.009,-0.003 -0.0209,-0.002 -0.0271,0.003 -0.007,0.005 -0.002,0.0109 0.0146,0.0147 0.0282,0.006 0.0382,-0.007 0.0125,-0.0173 z m -0.0736,0.004 c -0.004,-0.006 -0.0133,-0.007 -0.0195,-0.002 -0.006,0.005 -0.005,0.0112 0.003,0.0143 0.008,0.003 0.0169,0.004 0.0195,0.002 0.003,-0.002 10e-4,-0.008 -0.003,-0.0143 z m -0.0672,6.1e-4 c -0.005,-0.006 -0.0133,-0.007 -0.0195,-0.002 -0.006,0.005 -0.005,0.0112 0.003,0.0143 0.008,0.003 0.0169,0.004 0.0195,0.002 0.003,-0.002 10e-4,-0.008 -0.003,-0.0143 z m -0.0798,-0.006 c -0.009,-0.003 -0.0209,-0.002 -0.0271,0.003 -0.007,0.005 -0.002,0.0109 0.0146,0.0146 0.0281,0.006 0.0382,-0.007 0.0125,-0.0173 z m -0.0673,6.1e-4 c -0.009,-0.003 -0.0209,-0.002 -0.0271,0.003 -0.007,0.005 -0.002,0.0109 0.0146,0.0146 0.0282,0.006 0.0382,-0.007 0.0125,-0.0173 z m -0.0736,0.004 c -0.004,-0.006 -0.0133,-0.007 -0.0195,-0.002 -0.006,0.005 -0.005,0.0112 0.003,0.0143 0.008,0.003 0.0169,0.004 0.0195,0.002 0.003,-0.002 0.001,-0.008 -0.003,-0.0143 z m -0.0672,6.1e-4 c -0.004,-0.006 -0.0133,-0.007 -0.0195,-0.002 -0.006,0.005 -0.005,0.0112 0.003,0.0143 0.008,0.003 0.0169,0.004 0.0195,0.002 0.003,-0.002 0.001,-0.008 -0.003,-0.0143 z m -0.0798,-0.006 c -0.009,-0.003 -0.0209,-0.002 -0.0271,0.003 -0.007,0.005 -0.002,0.0109 0.0146,0.0146 0.0282,0.006 0.0382,-0.007 0.0125,-0.0173 z m -0.0673,6.1e-4 c -0.009,-0.003 -0.0209,-0.002 -0.0271,0.003 -0.007,0.005 -0.002,0.0109 0.0146,0.0146 0.0282,0.006 0.0382,-0.007 0.0125,-0.0173 z m -0.0736,0.004 c -0.005,-0.006 -0.0133,-0.007 -0.0195,-0.002 -0.006,0.005 -0.005,0.0112 0.003,0.0143 0.008,0.003 0.0169,0.004 0.0195,0.002 0.003,-0.002 10e-4,-0.008 -0.003,-0.0143 z m -0.0673,6.1e-4 c -0.004,-0.006 -0.0133,-0.007 -0.0195,-0.002 -0.006,0.005 -0.005,0.0112 0.003,0.0143 0.008,0.003 0.0169,0.004 0.0195,0.002 0.003,-0.002 10e-4,-0.008 -0.003,-0.0143 z m -0.0798,-0.006 c -0.009,-0.003 -0.0209,-0.002 -0.0271,0.003 -0.007,0.005 -0.002,0.0109 0.0146,0.0146 0.0281,0.006 0.0382,-0.007 0.0125,-0.0173 z m -0.0673,6.2e-4 c -0.009,-0.003 -0.0209,-0.002 -0.0271,0.003 -0.007,0.005 -0.002,0.0109 0.0146,0.0146 0.0282,0.006 0.0383,-0.007 0.0125,-0.0173 z m -0.0736,0.004 c -0.004,-0.006 -0.0133,-0.007 -0.0195,-0.002 -0.006,0.005 -0.005,0.0112 0.003,0.0143 0.008,0.003 0.0169,0.004 0.0195,0.002 0.003,-0.002 10e-4,-0.008 -0.003,-0.0143 z m -0.0672,6.1e-4 c -0.004,-0.006 -0.0133,-0.007 -0.0195,-0.002 -0.006,0.005 -0.005,0.0112 0.003,0.0143 0.008,0.003 0.0169,0.004 0.0195,0.002 0.003,-0.002 0.001,-0.008 -0.003,-0.0143 z m -0.0798,-0.006 c -0.009,-0.003 -0.0209,-0.002 -0.0271,0.003 -0.007,0.005 -0.002,0.0109 0.0146,0.0146 0.0282,0.006 0.0382,-0.007 0.0125,-0.0173 z m -0.0673,6.1e-4 c -0.009,-0.003 -0.0209,-0.002 -0.0271,0.003 -0.007,0.005 -0.002,0.0109 0.0146,0.0146 0.0282,0.006 0.0382,-0.007 0.0125,-0.0173 z m -0.0736,0.004 c -0.005,-0.006 -0.0133,-0.007 -0.0195,-0.002 -0.006,0.005 -0.005,0.0112 0.003,0.0143 0.008,0.003 0.0169,0.004 0.0195,0.002 0.003,-0.002 10e-4,-0.008 -0.003,-0.0143 z m -0.0673,6.1e-4 c -0.004,-0.006 -0.0133,-0.007 -0.0195,-0.002 -0.006,0.005 -0.005,0.0112 0.003,0.0143 0.008,0.003 0.0169,0.004 0.0195,0.002 0.003,-0.002 0.001,-0.008 -0.003,-0.0143 z m -0.0798,-0.006 c -0.009,-0.003 -0.0209,-0.002 -0.0271,0.003 -0.007,0.005 -0.002,0.0109 0.0146,0.0147 0.0281,0.006 0.0382,-0.007 0.0125,-0.0173 z m -0.0673,6.1e-4 c -0.009,-0.003 -0.0209,-0.002 -0.0271,0.003 -0.007,0.005 -0.002,0.0109 0.0146,0.0146 0.0282,0.006 0.0383,-0.007 0.0125,-0.0173 z m -0.0736,0.004 c -0.004,-0.006 -0.0133,-0.007 -0.0195,-0.002 -0.006,0.005 -0.005,0.0112 0.003,0.0143 0.008,0.003 0.0169,0.004 0.0195,0.002 0.003,-0.002 10e-4,-0.008 -0.003,-0.0143 z m -0.0672,6.2e-4 c -0.004,-0.006 -0.0133,-0.007 -0.0195,-0.002 -0.006,0.005 -0.005,0.0112 0.003,0.0143 0.008,0.003 0.0169,0.004 0.0195,0.002 0.003,-0.002 10e-4,-0.008 -0.003,-0.0143 z m -0.0798,-0.006 c -0.009,-0.003 -0.0209,-0.002 -0.0271,0.003 -0.007,0.005 -0.002,0.0109 0.0146,0.0146 0.0282,0.006 0.0383,-0.007 0.0125,-0.0173 z m -0.0672,6.1e-4 c -0.009,-0.003 -0.0209,-0.002 -0.0271,0.003 -0.007,0.005 -0.002,0.0109 0.0146,0.0147 0.0281,0.006 0.0382,-0.007 0.0125,-0.0173 z m -0.0736,0.004 c -0.005,-0.006 -0.0133,-0.007 -0.0195,-0.002 -0.006,0.005 -0.005,0.0112 0.003,0.0143 0.008,0.003 0.0169,0.004 0.0195,0.002 0.003,-0.002 10e-4,-0.008 -0.003,-0.0143 z m -0.0673,6.1e-4 c -0.004,-0.006 -0.0133,-0.007 -0.0195,-0.002 -0.006,0.005 -0.005,0.0112 0.003,0.0143 0.008,0.003 0.0169,0.004 0.0195,0.002 0.003,-0.002 10e-4,-0.008 -0.003,-0.0143 z m -0.0673,6.2e-4 c -0.004,-0.006 -0.0133,-0.007 -0.0195,-0.002 -0.006,0.005 -0.005,0.0112 0.003,0.0143 0.008,0.003 0.0169,0.004 0.0195,0.002 0.003,-0.002 0.001,-0.008 -0.003,-0.0143 z m -0.0798,-0.006 c -0.009,-0.003 -0.0209,-0.002 -0.0271,0.003 -0.007,0.005 -0.002,0.0109 0.0146,0.0147 0.0282,0.006 0.0382,-0.007 0.0125,-0.0173 z m -0.0736,0.004 c -0.004,-0.006 -0.0133,-0.007 -0.0195,-0.002 -0.006,0.005 -0.005,0.0112 0.003,0.0143 0.008,0.003 0.0169,0.004 0.0195,0.002 0.003,-0.002 10e-4,-0.008 -0.003,-0.0143 z m -0.0673,6.1e-4 c -0.004,-0.006 -0.0133,-0.007 -0.0195,-0.002 -0.006,0.005 -0.005,0.0112 0.003,0.0143 0.008,0.003 0.0169,0.004 0.0195,0.002 0.003,-0.002 10e-4,-0.008 -0.003,-0.0143 z m -0.0672,6.1e-4 c -0.005,-0.006 -0.0133,-0.007 -0.0195,-0.002 -0.006,0.005 -0.005,0.0112 0.003,0.0143 0.008,0.003 0.0169,0.004 0.0195,0.002 0.003,-0.002 0.001,-0.008 -0.003,-0.0143 z m -0.0798,-0.006 c -0.009,-0.003 -0.0209,-0.002 -0.0271,0.003 -0.007,0.005 -0.002,0.0109 0.0146,0.0146 0.0281,0.006 0.0382,-0.007 0.0125,-0.0173 z m -0.0736,0.004 c -0.005,-0.006 -0.0133,-0.007 -0.0195,-0.002 -0.006,0.005 -0.005,0.0112 0.003,0.0143 0.008,0.003 0.0169,0.004 0.0195,0.002 0.003,-0.002 10e-4,-0.008 -0.003,-0.0143 z m -0.0673,6.1e-4 c -0.004,-0.006 -0.0133,-0.007 -0.0195,-0.002 -0.006,0.005 -0.005,0.0112 0.003,0.0143 0.008,0.003 0.0169,0.004 0.0195,0.002 0.003,-0.002 10e-4,-0.008 -0.003,-0.0143 z m -0.0672,6.1e-4 c -0.004,-0.006 -0.0133,-0.007 -0.0195,-0.002 -0.006,0.005 -0.005,0.0112 0.003,0.0143 0.008,0.003 0.0169,0.004 0.0195,0.002 0.003,-0.002 10e-4,-0.008 -0.003,-0.0143 z m -0.0798,-0.006 c -0.009,-0.003 -0.0209,-0.002 -0.0271,0.003 -0.007,0.005 -0.002,0.0109 0.0146,0.0146 0.0282,0.006 0.0382,-0.007 0.0125,-0.0173 z m -0.0673,6.1e-4 c -0.009,-0.003 -0.0209,-0.002 -0.0271,0.003 -0.007,0.005 -0.002,0.0109 0.0146,0.0146 0.0282,0.006 0.0382,-0.007 0.0125,-0.0173 z m -0.0736,0.004 c -0.004,-0.006 -0.0133,-0.007 -0.0195,-0.002 -0.006,0.005 -0.005,0.0112 0.003,0.0143 0.008,0.003 0.0169,0.004 0.0195,0.002 0.003,-0.002 0.001,-0.008 -0.003,-0.0143 z m -0.0672,6.1e-4 c -0.005,-0.006 -0.0133,-0.007 -0.0195,-0.002 -0.006,0.005 -0.005,0.0112 0.003,0.0143 0.008,0.003 0.0169,0.004 0.0195,0.002 0.003,-0.002 0.001,-0.008 -0.003,-0.0143 z m -0.0798,-0.006 c -0.009,-0.003 -0.0209,-0.002 -0.0271,0.003 -0.007,0.005 -0.002,0.0109 0.0146,0.0146 0.0281,0.006 0.0382,-0.007 0.0125,-0.0173 z m -0.0673,6.1e-4 c -0.009,-0.003 -0.0209,-0.002 -0.0271,0.003 -0.007,0.005 -0.002,0.0109 0.0146,0.0146 0.0282,0.006 0.0382,-0.007 0.0125,-0.0173 z m -0.0736,0.004 c -0.004,-0.006 -0.0133,-0.007 -0.0195,-0.002 -0.006,0.005 -0.005,0.0112 0.003,0.0143 0.008,0.003 0.0169,0.004 0.0195,0.002 0.003,-0.002 10e-4,-0.008 -0.003,-0.0143 z m -0.0672,6.1e-4 c -0.004,-0.006 -0.0133,-0.007 -0.0195,-0.002 -0.006,0.005 -0.005,0.0112 0.003,0.0143 0.008,0.003 0.0169,0.004 0.0195,0.002 0.003,-0.002 10e-4,-0.008 -0.003,-0.0143 z m -0.0798,-0.006 c -0.009,-0.003 -0.0209,-0.002 -0.0271,0.003 -0.007,0.005 -0.002,0.0109 0.0146,0.0146 0.0282,0.006 0.0382,-0.007 0.0125,-0.0173 z m -0.0672,6.2e-4 c -0.009,-0.003 -0.0209,-0.002 -0.0271,0.003 -0.007,0.005 -0.002,0.0109 0.0146,0.0146 0.0282,0.006 0.0382,-0.007 0.0125,-0.0173 z m -0.0736,0.004 c -0.004,-0.006 -0.0133,-0.007 -0.0195,-0.002 -0.006,0.005 -0.005,0.0112 0.003,0.0143 0.008,0.003 0.0169,0.004 0.0195,0.002 0.003,-0.002 10e-4,-0.008 -0.003,-0.0143 z m -0.0672,6.1e-4 c -0.005,-0.006 -0.0133,-0.007 -0.0195,-0.002 -0.006,0.005 -0.005,0.0112 0.003,0.0143 0.008,0.003 0.0169,0.004 0.0195,0.002 0.003,-0.002 0.001,-0.008 -0.003,-0.0143 z m -0.0798,-0.006 c -0.009,-0.003 -0.0209,-0.002 -0.0271,0.003 -0.007,0.005 -0.002,0.0109 0.0146,0.0146 0.0281,0.006 0.0382,-0.007 0.0125,-0.0173 z m -0.0672,6.1e-4 c -0.009,-0.003 -0.0209,-0.002 -0.0271,0.003 -0.007,0.005 -0.002,0.0109 0.0146,0.0146 0.0281,0.006 0.0382,-0.007 0.0125,-0.0173 z m -0.0736,0.004 c -0.004,-0.006 -0.0133,-0.007 -0.0195,-0.002 -0.006,0.005 -0.005,0.0112 0.003,0.0143 0.008,0.003 0.0169,0.004 0.0195,0.002 0.003,-0.002 10e-4,-0.008 -0.003,-0.0143 z m -0.0672,6.1e-4 c -0.004,-0.006 -0.0133,-0.007 -0.0195,-0.002 -0.006,0.005 -0.005,0.0112 0.003,0.0143 0.008,0.003 0.0169,0.004 0.0195,0.002 0.003,-0.002 0.001,-0.008 -0.003,-0.0143 z m -0.0798,-0.006 c -0.009,-0.003 -0.0209,-0.002 -0.0271,0.003 -0.007,0.005 -0.002,0.0109 0.0146,0.0147 0.0282,0.006 0.0383,-0.007 0.0125,-0.0173 z m -0.0672,6.1e-4 c -0.009,-0.003 -0.0209,-0.002 -0.0271,0.003 -0.007,0.005 -0.002,0.0109 0.0146,0.0146 0.0282,0.006 0.0382,-0.007 0.0125,-0.0173 z m -0.0736,0.004 c -0.004,-0.006 -0.0133,-0.007 -0.0195,-0.002 -0.006,0.005 -0.005,0.0112 0.003,0.0143 0.008,0.003 0.0169,0.004 0.0195,0.002 0.003,-0.002 10e-4,-0.008 -0.003,-0.0143 z m -0.0673,6.2e-4 c -0.005,-0.006 -0.0133,-0.007 -0.0195,-0.002 -0.006,0.005 -0.005,0.0112 0.003,0.0143 0.008,0.003 0.0169,0.004 0.0195,0.002 0.003,-0.002 10e-4,-0.008 -0.003,-0.0143 z m -0.0798,-0.006 c -0.009,-0.003 -0.0209,-0.002 -0.0271,0.003 -0.007,0.005 -0.002,0.0109 0.0146,0.0146 0.0282,0.006 0.0382,-0.007 0.0125,-0.0173 z m -0.0672,6.1e-4 c -0.009,-0.003 -0.0209,-0.002 -0.0271,0.003 -0.007,0.005 -0.002,0.0109 0.0146,0.0147 0.0281,0.006 0.0382,-0.007 0.0125,-0.0173 z m -0.0736,0.004 c -0.004,-0.006 -0.0133,-0.007 -0.0195,-0.002 -0.006,0.005 -0.005,0.0112 0.003,0.0143 0.008,0.003 0.0169,0.004 0.0195,0.002 0.003,-0.002 10e-4,-0.008 -0.003,-0.0143 z m -0.0673,6.1e-4 c -0.004,-0.006 -0.0133,-0.007 -0.0195,-0.002 -0.006,0.005 -0.005,0.0112 0.003,0.0143 0.008,0.003 0.0169,0.004 0.0195,0.002 0.003,-0.002 0.001,-0.008 -0.003,-0.0143 z m -0.0798,-0.006 c -0.009,-0.003 -0.0209,-0.002 -0.0271,0.003 -0.007,0.005 -0.002,0.0109 0.0146,0.0146 0.0282,0.006 0.0383,-0.007 0.0125,-0.0173 z m -0.0672,6.1e-4 c -0.009,-0.003 -0.0209,-0.002 -0.0271,0.003 -0.007,0.005 -0.002,0.0109 0.0146,0.0147 0.0282,0.006 0.0382,-0.007 0.0125,-0.0173 z m -0.0736,0.004 c -0.004,-0.006 -0.0133,-0.007 -0.0195,-0.002 -0.006,0.005 -0.005,0.0112 0.003,0.0143 0.008,0.003 0.0169,0.004 0.0195,0.002 0.003,-0.002 0.001,-0.008 -0.003,-0.0143 z m -0.0673,6.1e-4 c -0.005,-0.006 -0.0133,-0.007 -0.0195,-0.002 -0.006,0.005 -0.005,0.0112 0.003,0.0143 0.008,0.003 0.0169,0.004 0.0195,0.002 0.003,-0.002 10e-4,-0.008 -0.003,-0.0143 z m -0.34088,0.22038 c -0.0159,-0.001 -0.63717,0.0173 -0.96698,0.0288 -0.72546,0.0253 -1.3369,0.0792 -1.39408,0.12294 -0.0139,0.0107 -0.0316,0.14343 -0.0275,0.20678 10e-4,0.0219 0.008,0.0471 0.0155,0.0558 0.007,0.009 0.009,-0.008 0.005,-0.0372 -0.004,-0.0292 -0.006,-0.0884 -0.003,-0.13148 0.005,-0.0765 0.006,-0.0787 0.0522,-0.0946 0.14829,-0.0514 0.93066,-0.10135 2.01542,-0.12859 0.16902,-0.004 0.30804,-0.0109 0.30893,-0.0148 8.9e-4,-0.004 -0.002,-0.007 -0.006,-0.008 z m 0.27362,-0.21977 c -0.004,-0.006 -0.0133,-0.007 -0.0195,-0.002 -0.006,0.005 -0.005,0.0112 0.003,0.0143 0.008,0.003 0.0169,0.004 0.0195,0.002 0.003,-0.002 10e-4,-0.008 -0.003,-0.0143 z m -0.0798,-0.006 c -0.009,-0.003 -0.0209,-0.002 -0.0271,0.003 -0.007,0.005 -0.002,0.0109 0.0146,0.0146 0.0281,0.006 0.0382,-0.007 0.0125,-0.0173 z m -0.0736,0.004 c -0.004,-0.006 -0.0133,-0.007 -0.0195,-0.002 -0.006,0.005 -0.005,0.0112 0.003,0.0143 0.008,0.003 0.0169,0.004 0.0195,0.002 0.003,-0.002 0.001,-0.008 -0.003,-0.0143 z m -0.0673,6.1e-4 c -0.004,-0.006 -0.0133,-0.007 -0.0195,-0.002 -0.006,0.005 -0.005,0.0112 0.003,0.0143 0.008,0.003 0.0169,0.004 0.0195,0.002 0.003,-0.002 10e-4,-0.008 -0.003,-0.0143 z m -0.0672,6.1e-4 c -0.004,-0.006 -0.0133,-0.007 -0.0195,-0.002 -0.006,0.005 -0.005,0.0112 0.003,0.0143 0.008,0.003 0.0169,0.004 0.0195,0.002 0.003,-0.002 0.001,-0.008 -0.003,-0.0143 z m -0.0861,-0.002 c -0.004,-0.006 -0.0133,-0.007 -0.0195,-0.002 -0.006,0.005 -0.005,0.0112 0.003,0.0143 0.008,0.003 0.0169,0.004 0.0195,0.002 0.003,-0.002 10e-4,-0.008 -0.003,-0.0143 z m -0.0609,-0.003 c -0.009,-0.003 -0.0209,-0.002 -0.0271,0.003 -0.007,0.005 -0.002,0.0109 0.0146,0.0146 0.0281,0.006 0.0382,-0.007 0.0125,-0.0173 z m -0.0736,0.004 c -0.005,-0.006 -0.0133,-0.007 -0.0195,-0.002 -0.006,0.005 -0.005,0.0112 0.003,0.0143 0.008,0.003 0.0169,0.004 0.0195,0.002 0.003,-0.002 0.001,-0.008 -0.003,-0.0143 z m -0.0673,6.1e-4 c -0.004,-0.006 -0.0133,-0.007 -0.0195,-0.002 -0.006,0.005 -0.005,0.0112 0.003,0.0143 0.008,0.003 0.0169,0.004 0.0195,0.002 0.003,-0.002 10e-4,-0.008 -0.003,-0.0143 z m -0.0798,-0.006 c -0.009,-0.003 -0.0209,-0.002 -0.0271,0.003 -0.007,0.005 -0.002,0.0109 0.0146,0.0146 0.0282,0.006 0.0382,-0.007 0.0125,-0.0173 z m -0.0672,6.1e-4 c -0.009,-0.003 -0.0209,-0.002 -0.0271,0.003 -0.007,0.005 -0.002,0.0109 0.0146,0.0146 0.0282,0.006 0.0382,-0.007 0.0125,-0.0173 z m -0.0736,0.004 c -0.004,-0.006 -0.0133,-0.007 -0.0195,-0.002 -0.006,0.005 -0.005,0.0112 0.003,0.0143 0.008,0.003 0.0169,0.004 0.0195,0.002 0.003,-0.002 10e-4,-0.008 -0.003,-0.0143 z m -0.0673,6.1e-4 c -0.004,-0.006 -0.0133,-0.007 -0.0195,-0.002 -0.006,0.005 -0.005,0.0112 0.003,0.0143 0.008,0.003 0.0169,0.004 0.0195,0.002 0.003,-0.002 10e-4,-0.008 -0.003,-0.0143 z m -0.0798,-0.006 c -0.009,-0.003 -0.0209,-0.002 -0.0271,0.003 -0.007,0.005 -0.002,0.0109 0.0146,0.0146 0.0282,0.006 0.0382,-0.007 0.0125,-0.0173 z m -0.0673,6.2e-4 c -0.009,-0.003 -0.0209,-0.002 -0.0271,0.003 -0.007,0.005 -0.002,0.0109 0.0146,0.0146 0.0281,0.006 0.0382,-0.007 0.0125,-0.0173 z m -0.0736,0.004 c -0.005,-0.006 -0.0133,-0.007 -0.0195,-0.002 -0.006,0.005 -0.005,0.0112 0.003,0.0143 0.008,0.003 0.0169,0.004 0.0195,0.002 0.003,-0.002 10e-4,-0.008 -0.003,-0.0143 z m -0.0673,6.1e-4 c -0.004,-0.006 -0.0133,-0.007 -0.0195,-0.002 -0.006,0.005 -0.005,0.0112 0.003,0.0143 0.008,0.003 0.0169,0.004 0.0195,0.002 0.003,-0.002 10e-4,-0.008 -0.003,-0.0143 z m -0.0798,-0.006 c -0.009,-0.003 -0.0209,-0.002 -0.0271,0.003 -0.007,0.005 -0.002,0.0109 0.0146,0.0146 0.0282,0.006 0.0383,-0.007 0.0125,-0.0173 z m -0.10191,10e-4 c -0.0664,-10e-4 -0.0682,0.0117 -0.002,0.0155 0.0279,0.002 0.0513,-9.5e-4 0.0519,-0.006 6.4e-4,-0.005 -0.0218,-0.009 -0.0498,-0.01 z m -0.082,0.003 c -0.008,-0.003 -0.0205,-10e-4 -0.0274,0.004 -0.008,0.006 -0.003,0.009 0.0113,0.008 0.0307,-0.002 0.0344,-0.005 0.016,-0.0122 z m -0.0915,0.002 c -0.005,-0.006 -0.0133,-0.007 -0.0195,-0.002 -0.006,0.005 -0.005,0.0112 0.003,0.0143 0.008,0.003 0.0169,0.004 0.0195,0.002 0.003,-0.002 10e-4,-0.008 -0.003,-0.0143 z m -0.0673,6.1e-4 c -0.004,-0.006 -0.0133,-0.007 -0.0195,-0.002 -0.006,0.005 -0.005,0.0112 0.003,0.0143 0.008,0.003 0.0169,0.004 0.0195,0.002 0.003,-0.002 10e-4,-0.008 -0.003,-0.0143 z m -1.16893,0.74106 c -8.6e-4,-0.009 -0.007,-0.0118 -0.0129,-0.007 -0.006,0.005 -0.008,0.0135 -0.003,0.0193 0.005,0.006 0.0103,0.009 0.0129,0.007 0.003,-0.002 0.004,-0.0107 0.003,-0.0193 z m 0.94832,-0.74174 c -0.004,-0.006 -0.0133,-0.007 -0.0195,-0.002 -0.006,0.005 -0.005,0.0112 0.003,0.0143 0.008,0.003 0.0169,0.004 0.0195,0.002 0.003,-0.002 10e-4,-0.008 -0.003,-0.0143 z m -0.94893,0.67449 c -8.6e-4,-0.009 -0.007,-0.0118 -0.0129,-0.007 -0.006,0.005 -0.008,0.0135 -0.003,0.0193 0.004,0.006 0.0103,0.009 0.0129,0.007 0.003,-0.002 0.004,-0.0107 0.003,-0.0193 z m 0.88168,-0.67388 c -0.005,-0.006 -0.0133,-0.007 -0.0195,-0.002 -0.006,0.005 -0.005,0.0112 0.003,0.0143 0.008,0.003 0.0169,0.004 0.0195,0.002 0.003,-0.002 10e-4,-0.008 -0.003,-0.0143 z m -0.22062,-6.8e-4 c -0.004,-0.006 -0.0133,-0.007 -0.0195,-0.002 -0.006,0.005 -0.005,0.0112 0.003,0.0143 0.008,0.003 0.0169,0.004 0.0195,0.002 0.003,-0.002 10e-4,-0.008 -0.003,-0.0143 z m -0.66038,0.45394 c -8.6e-4,-0.009 -0.007,-0.0118 -0.0129,-0.007 -0.006,0.005 -0.008,0.0135 -0.003,0.0193 0.005,0.006 0.0103,0.009 0.0129,0.007 0.003,-0.002 0.004,-0.0107 0.003,-0.0193 z m 0.59313,-0.45333 c -0.004,-0.006 -0.0133,-0.007 -0.0195,-0.002 -0.006,0.005 -0.005,0.0112 0.003,0.0143 0.008,0.003 0.0169,0.004 0.0195,0.002 0.003,-0.002 10e-4,-0.008 -0.003,-0.0143 z m -0.59374,0.38608 c -8.6e-4,-0.009 -0.007,-0.0118 -0.0129,-0.007 -0.006,0.005 -0.008,0.0134 -0.003,0.0193 0.005,0.006 0.0103,0.009 0.0129,0.007 0.003,-0.002 0.004,-0.0107 0.003,-0.0193 z m 0.30588,-0.38615 c -0.005,-0.006 -0.0133,-0.007 -0.0195,-0.002 -0.006,0.005 -0.005,0.0112 0.003,0.0143 0.008,0.003 0.0169,0.004 0.0195,0.002 0.003,-0.002 0.001,-0.008 -0.003,-0.0143 z m -0.30519,0.16554 c -8.6e-4,-0.009 -0.007,-0.0118 -0.0129,-0.007 -0.006,0.005 -0.008,0.0135 -0.003,0.0193 0.004,0.006 0.0103,0.009 0.0129,0.007 0.003,-0.002 0.004,-0.0107 0.003,-0.0193 z m -0.006,-0.1519 c -0.005,-0.006 -0.0108,6.2e-4 -0.014,0.0149 -0.003,0.0141 -0.002,0.0304 0.002,0.0362 0.005,0.006 0.0108,-6.2e-4 0.014,-0.0149 0.003,-0.0141 0.002,-0.0304 -0.002,-0.0362 z"
     style="fill:#264653;fill-opacity:1;stroke-width:0.0463648;stroke-linecap:round;stroke-linejoin:round" />
  <path
     id="path4647"
     d="m 492.93394,128.34017 c -8.89693,2.2e-4 -30.74186,0.004 -33.35991,0.006 -0.88843,5.8e-4 -2.08933,0.001 -2.66866,0.001 -0.57933,1e-4 -3.70303,0.001 -6.94154,0.002 -12.42535,0.005 -18.62208,-0.003 -19.327,-0.0225 -0.16484,-0.005 -0.24977,-0.0153 -0.3633,-0.0456 -0.0258,-0.007 -0.0324,-0.004 -0.0222,0.0102 0.0315,0.0434 0.2951,0.0622 0.94438,0.0676 2.0649,0.017 6.49966,0.0204 20.70284,0.0157 5.13442,-0.002 9.35829,-4e-4 9.3864,0.003 0.0281,0.003 0.0502,0.0129 0.049,0.0214 -0.001,0.008 -0.50728,0.0151 -1.12477,0.0146 -0.61749,-4.3e-4 -5.56154,-6.1e-4 -10.98679,-4e-4 -15.44338,6e-4 -17.63591,5.3e-4 -18.53208,-5.8e-4 -0.46133,-5.7e-4 -1.92152,-9.3e-4 -3.24485,-8.1e-4 l -2.40607,2.3e-4 -3.32749,-4.34568 -3.32749,-4.34569 24.04588,-18.37857 24.04587,-18.37856 17.05153,22.30962 c 13.63963,17.84562 17.04546,22.30952 17.02118,22.30909 -0.38228,-0.007 -36.31985,0.004 -36.32079,0.0109 -9.7e-4,0.007 35.99834,0.0163 36.32668,0.009 0.0241,-5.3e-4 0.0504,0.0128 0.0586,0.0296 0.0111,0.023 -2.73757,0.0308 -11.12979,0.0316 -17.43125,0.002 -25.2115,0.007 -25.21297,0.0181 -7.4e-4,0.006 2.83929,0.009 6.31119,0.007 3.4719,-0.002 11.65576,-0.004 18.18637,-0.006 6.5306,-10e-4 11.87665,-0.002 11.88009,-0.003 0.003,-1.5e-4 0.11686,0.14825 0.25205,0.32978 l 0.2458,0.33005 z m -29.95652,-0.66824 c -0.67883,3.1e-4 -1.44446,9.8e-4 -1.7014,0.002 -0.36898,7.5e-4 -0.47277,-0.006 -0.49384,-0.0339 -0.0236,-0.0309 -0.0218,-0.035 0.0158,-0.036 0.0234,-6.5e-4 0.79423,-10e-4 1.71303,-8.7e-4 0.91881,1.8e-4 1.67117,-0.004 1.67193,-0.01 7.5e-4,-0.006 -0.62547,-0.0102 -1.39162,-0.01 -0.76615,1.6e-4 -1.55195,2.6e-4 -1.74624,2.3e-4 -0.34403,-6e-5 -0.352,0.001 -0.30547,0.0419 l 0.0478,0.042 -0.0934,6.7e-4 c -0.0514,3.7e-4 -0.49722,0.001 -0.99074,0.001 -7.16773,0.006 -15.61009,0.0279 -19.9245,0.0521 -3.47272,0.0195 -7.0119,0.062 -7.14499,0.0859 -0.0793,0.0142 0.15112,0.0151 0.75865,0.003 1.54483,-0.0313 6.0839,-0.0676 10.52789,-0.0842 2.86298,-0.0107 10.44703,-0.0278 12.53635,-0.0282 0.38182,-9e-5 1.53393,-10e-4 2.56024,-0.002 1.02632,-0.001 2.60913,-0.002 3.51736,-0.003 0.90824,-4.7e-4 1.65721,-0.005 1.66438,-0.0108 0.007,-0.005 -0.54235,-0.01 -1.22117,-0.009 z m -2.3057,-0.0829 c -0.003,-0.004 -0.0151,-0.006 -0.0273,-0.004 -0.0122,10e-4 -0.0168,0.009 -0.01,0.0182 0.007,0.009 0.019,0.0108 0.0273,0.004 0.008,-0.006 0.0128,-0.0146 0.01,-0.0182 z m -0.0964,-1.6e-4 c -0.0202,-0.005 -0.0375,-0.003 -0.0384,0.004 -0.002,0.0185 0.0407,0.0309 0.059,0.0169 0.01,-0.008 0.002,-0.0155 -0.0206,-0.0207 z m -0.10801,-8.1e-4 c -0.0278,-0.005 -0.0515,-0.003 -0.0525,0.004 -10e-4,0.008 0.0189,0.0137 0.0441,0.0136 0.0645,-3.2e-4 0.0676,-0.007 0.008,-0.018 z m -0.0809,0.004 c -0.003,-0.004 -0.0151,-0.006 -0.0273,-0.004 -0.0122,0.001 -0.0168,0.009 -0.01,0.0182 0.007,0.009 0.019,0.0108 0.0273,0.004 0.008,-0.006 0.0128,-0.0145 0.01,-0.0182 z m -0.1292,-0.009 c -0.0325,-0.001 -0.0661,0.003 -0.0746,0.009 -0.008,0.006 0.0175,0.0119 0.0577,0.0128 0.0869,0.002 0.10256,-0.0179 0.0169,-0.0215 z m -0.15613,0.0116 c -0.003,-0.004 -0.0151,-0.006 -0.0274,-0.004 -0.0122,0.001 -0.0168,0.009 -0.01,0.0182 0.007,0.009 0.019,0.0108 0.0273,0.004 0.008,-0.006 0.0128,-0.0145 0.01,-0.0182 z m -0.12823,-0.0111 c -0.0332,-3.7e-4 -0.0672,0.005 -0.0755,0.0109 -0.008,0.006 0.012,0.0119 0.0453,0.0122 0.0332,3.7e-4 0.0672,-0.005 0.0755,-0.0109 0.008,-0.006 -0.0121,-0.0118 -0.0453,-0.0122 z m -0.28457,0.003 c -0.0328,-9e-5 -0.0603,0.005 -0.0612,0.0116 -0.002,0.0151 0.0854,0.015 0.10558,-8e-5 0.008,-0.006 -0.0116,-0.0115 -0.0444,-0.0115 z m -0.28533,0.003 c -0.0328,-8e-5 -0.0603,0.005 -0.0612,0.0116 -0.002,0.0151 0.0854,0.015 0.10558,-7e-5 0.008,-0.006 -0.0116,-0.0115 -0.0444,-0.0116 z m -0.16941,-0.002 c -0.003,-0.004 -0.0151,-0.006 -0.0274,-0.004 -0.0122,10e-4 -0.0167,0.009 -0.01,0.0182 0.007,0.009 0.019,0.0108 0.0273,0.004 0.008,-0.006 0.0128,-0.0146 0.01,-0.0182 z m -0.10912,-0.002 c -0.0277,-0.005 -0.0574,-0.004 -0.0659,0.002 -0.0185,0.0141 0.0813,0.0302 0.10197,0.0164 0.008,-0.005 -0.008,-0.0138 -0.0361,-0.0189 z m -0.17621,0.004 c -0.003,-0.004 -0.0151,-0.006 -0.0273,-0.004 -0.0122,0.001 -0.0168,0.009 -0.01,0.0182 0.007,0.009 0.019,0.0108 0.0273,0.004 0.008,-0.006 0.0128,-0.0145 0.01,-0.0182 z m -0.13579,-0.005 c -0.0277,-0.005 -0.0578,-0.003 -0.0667,0.004 -0.009,0.007 0.0109,0.0133 0.0441,0.0137 0.0778,8.7e-4 0.0862,-0.006 0.0227,-0.0173 z m -0.14954,0.008 c -0.003,-0.004 -0.0151,-0.006 -0.0273,-0.004 -0.0122,0.001 -0.0168,0.009 -0.01,0.0182 0.007,0.009 0.019,0.0108 0.0273,0.004 0.008,-0.006 0.0128,-0.0145 0.01,-0.0182 z m -0.13235,-0.008 c -0.0338,-4.7e-4 -0.0671,0.004 -0.074,0.009 -0.0162,0.0131 0.10395,0.0146 0.12191,0.002 0.007,-0.005 -0.0141,-0.0103 -0.0479,-0.0107 z m -0.30141,0.004 c -0.003,-0.004 -0.0151,-0.006 -0.0273,-0.004 -0.0122,0.001 -0.0168,0.009 -0.01,0.0182 0.007,0.009 0.019,0.0108 0.0274,0.004 0.008,-0.006 0.0128,-0.0146 0.01,-0.0182 z m -0.21689,-0.002 c -0.003,-0.004 -0.0151,-0.006 -0.0273,-0.004 -0.0122,0.001 -0.0167,0.009 -0.01,0.0182 0.007,0.009 0.019,0.0108 0.0273,0.004 0.008,-0.006 0.0128,-0.0145 0.01,-0.0182 z m -0.21688,-0.002 c -0.003,-0.004 -0.0151,-0.006 -0.0273,-0.004 -0.0122,10e-4 -0.0168,0.009 -0.01,0.0182 0.007,0.009 0.019,0.0108 0.0274,0.004 0.008,-0.006 0.0128,-0.0145 0.01,-0.0182 z m -0.0684,0.004 c -0.003,-0.004 -0.0151,-0.006 -0.0273,-0.004 -0.0122,0.001 -0.0168,0.009 -0.01,0.0182 0.007,0.009 0.019,0.0108 0.0274,0.004 0.008,-0.006 0.0128,-0.0145 0.01,-0.0182 z m -0.14844,-0.006 c -0.003,-0.004 -0.0151,-0.006 -0.0273,-0.004 -0.0122,0.001 -0.0168,0.009 -0.01,0.0182 0.007,0.009 0.019,0.0108 0.0273,0.004 0.008,-0.006 0.0128,-0.0145 0.01,-0.0182 z m -0.28532,0.003 c -0.003,-0.004 -0.0151,-0.006 -0.0273,-0.004 -0.0122,0.001 -0.0168,0.009 -0.01,0.0182 0.007,0.009 0.019,0.0108 0.0274,0.004 0.008,-0.006 0.0128,-0.0145 0.01,-0.0182 z m -0.21689,-0.002 c -0.003,-0.004 -0.0151,-0.006 -0.0273,-0.004 -0.0122,0.001 -0.0168,0.009 -0.01,0.0182 0.007,0.009 0.019,0.0108 0.0273,0.004 0.008,-0.006 0.0128,-0.0146 0.01,-0.0182 z m -0.28533,0.003 c -0.003,-0.004 -0.0151,-0.006 -0.0273,-0.004 -0.0122,0.001 -0.0168,0.009 -0.01,0.0182 0.007,0.009 0.019,0.0108 0.0274,0.004 0.008,-0.006 0.0128,-0.0146 0.01,-0.0182 z m -0.21688,-0.002 c -0.003,-0.004 -0.0151,-0.006 -0.0273,-0.004 -0.0122,10e-4 -0.0167,0.009 -0.01,0.0182 0.007,0.009 0.019,0.0108 0.0274,0.004 0.008,-0.006 0.0128,-0.0145 0.01,-0.0182 z m -0.28533,0.003 c -0.003,-0.004 -0.0151,-0.006 -0.0273,-0.004 -0.0122,10e-4 -0.0168,0.009 -0.01,0.0182 0.007,0.009 0.019,0.0108 0.0273,0.004 0.008,-0.006 0.0128,-0.0145 0.01,-0.0182 z m -0.43377,-0.004 c -0.003,-0.004 -0.0151,-0.006 -0.0273,-0.004 -0.0122,0.001 -0.0168,0.009 -0.01,0.0182 0.007,0.009 0.019,0.0108 0.0273,0.004 0.008,-0.006 0.0128,-0.0145 0.01,-0.0182 z m -0.50221,7.6e-4 c -0.003,-0.004 -0.0151,-0.006 -0.0273,-0.004 -0.0122,0.001 -0.0168,0.009 -0.01,0.0182 0.007,0.009 0.019,0.0108 0.0273,0.004 0.008,-0.006 0.0128,-0.0145 0.01,-0.0182 z m -22.7698,0.15713 c -0.0124,-0.0149 -1.31611,0.0309 -1.72467,0.0607 -0.36662,0.0267 -0.5996,0.0577 -0.63466,0.0845 -0.0272,0.0208 -0.0515,0.2395 -0.0298,0.26764 0.008,0.0105 0.0178,-0.0343 0.0215,-0.0997 0.004,-0.0654 0.0175,-0.12708 0.0307,-0.13717 0.0648,-0.0495 0.7597,-0.10228 1.73698,-0.13181 0.32178,-0.01 0.59046,-0.0212 0.59707,-0.0254 0.007,-0.004 0.008,-0.0127 0.003,-0.0188 z m -2.46201,0.22371 c -0.006,-0.008 -0.0146,-0.0128 -0.0182,-0.01 -0.004,0.003 -0.006,0.0151 -0.004,0.0274 10e-4,0.0122 0.009,0.0168 0.0182,0.01 0.009,-0.007 0.0108,-0.019 0.004,-0.0274 z m -0.003,-0.28533 c -0.006,-0.008 -0.0145,-0.0128 -0.0182,-0.01 -0.004,0.003 -0.006,0.0151 -0.004,0.0274 10e-4,0.0122 0.009,0.0168 0.0182,0.01 0.009,-0.007 0.0108,-0.019 0.004,-0.0274 z"
     style="fill:#264653;fill-opacity:1;stroke-width:0.0655698;stroke-linecap:round;stroke-linejoin:round" />
  <path
     id="path4649"
     d="m 500.61963,128.34029 c -1.54733,2.2e-4 -17.56338,0.002 -18.45853,0.002 -1.32766,0 -12.03054,0.002 -14.06441,0.002 -0.83601,2.5e-4 -1.78949,2.9e-4 -2.11884,1e-4 -0.92442,-5.3e-4 -2.87256,1.3e-4 -8.05465,0.003 -1.70467,8.5e-4 -5.03294,0.002 -7.39617,0.003 -2.36322,6.8e-4 -4.68994,0.001 -5.17048,0.001 -0.48054,1.4e-4 -1.81105,2.8e-4 -2.95669,3e-4 -1.14564,3e-5 -2.35771,6e-5 -2.69349,8e-5 -0.33578,2e-5 -0.76715,-5.1e-4 -0.9586,-10e-4 -0.19146,-6.7e-4 -1.04341,-0.002 -1.89324,-0.002 -5.09947,-0.004 -6.3921,-0.0133 -6.51216,-0.0488 -0.0499,-0.0148 -0.0913,-0.022 -0.0921,-0.0162 -0.003,0.0231 0.0817,0.0461 0.21246,0.0576 0.31496,0.0277 4.2234,0.0363 15.42666,0.0341 2.22513,-4.4e-4 5.48386,-0.001 7.24161,-0.001 1.75775,-3.1e-4 3.86378,-7.4e-4 4.68007,-9.4e-4 3.11918,-7.8e-4 3.48346,2e-5 3.5036,0.008 0.0725,0.0277 -0.0654,0.0339 -0.74583,0.0336 -0.4197,-1.6e-4 -2.08824,-1.9e-4 -3.70787,-7e-5 -6.06109,4.8e-4 -22.65274,1.1e-4 -24.61349,-5.4e-4 -1.1196,-3.7e-4 -2.17755,-5.4e-4 -2.351,-3.8e-4 -0.17344,1.7e-4 -1.3384,0.001 -2.5888,0.002 l -2.27345,0.002 -3.32485,-4.34828 -3.32485,-4.34828 24.04585,-18.37855 24.04585,-18.37854 17.05153,22.30962 c 13.63963,17.84563 17.04546,22.30952 17.02118,22.30908 -0.0167,-3e-4 -0.51474,4e-5 -1.10677,7.6e-4 -0.59203,7.2e-4 -1.62072,0.001 -2.28599,6.9e-4 -0.66527,-3.4e-4 -2.0553,-5.4e-4 -3.08895,-4.4e-4 -3.35261,3.1e-4 -6.12628,3.8e-4 -7.98474,1.9e-4 -1.00088,-1.1e-4 -3.58107,1.9e-4 -5.73376,6.7e-4 -2.15268,4.7e-4 -4.40071,7.4e-4 -4.99561,5.9e-4 -0.5949,-1.4e-4 -1.21447,-2e-4 -1.37681,-1.3e-4 -0.16234,7e-5 -1.65787,4.3e-4 -3.32339,8e-4 -2.64815,6e-4 -5.27173,0.003 -5.56262,0.005 -0.0524,4e-4 -0.0711,0.004 -0.0416,0.008 0.0295,0.004 1.17995,0.008 2.55655,0.009 10.86493,0.005 26.37655,0.008 30.32316,0.006 1.19523,-6.8e-4 2.17237,0.005 2.17143,0.0116 -0.003,0.0237 -0.82939,0.025 -19.01413,0.0305 -10.54119,0.003 -14.68324,0.006 -16.02101,0.0113 -0.38733,10e-4 -0.71772,0.003 -0.7342,0.003 -0.0165,-3e-5 -0.0271,0.004 -0.0237,0.008 0.01,0.0126 -0.0853,0.0125 6.65127,0.009 7.28386,-0.003 7.47147,-0.003 10.62757,-0.004 7.6362,-10e-4 9.70494,-10e-4 14.22007,-0.002 2.65959,-5.7e-4 4.83859,-9.6e-4 4.84222,-8.7e-4 0.004,10e-5 0.11725,0.14876 0.25249,0.33035 l 0.24589,0.33018 z m -36.44588,-0.66425 c -0.0377,-0.0144 -2.0712,-0.0208 -2.0898,-0.007 -0.006,0.004 -0.0252,0.004 -0.0433,-10e-6 -0.018,-0.004 -0.25878,-0.008 -0.53507,-0.007 -0.56781,6.8e-4 -0.70523,-0.005 -0.70216,-0.0307 10e-4,-0.01 0.26753,-0.0178 0.5919,-0.0178 0.54158,-1.4e-4 0.70223,-0.006 0.5941,-0.0232 -0.0552,-0.009 -1.26041,-0.009 -1.27234,-9.2e-4 -0.005,0.004 0.008,0.0227 0.0302,0.0422 l 0.0396,0.0354 -0.0931,7.5e-4 c -0.0512,4.1e-4 -0.52363,0.001 -1.04981,0.002 -13.08151,0.0181 -18.63108,0.0365 -23.02244,0.0763 -1.90946,0.0173 -3.87736,0.0461 -3.98381,0.0583 -0.0151,0.002 -0.0251,0.006 -0.0221,0.0103 0.003,0.004 0.38544,3.5e-4 0.84987,-0.008 2.33849,-0.0418 7.90666,-0.078 14.41545,-0.0938 1.05582,-0.003 2.08813,-0.005 2.29402,-0.006 0.8093,-0.003 4.3395,-0.008 7.53724,-0.0116 1.84859,-0.002 4.02851,-0.004 4.84426,-0.005 0.81574,-9.1e-4 1.51576,-10e-4 1.5556,-8.7e-4 0.0815,8.9e-4 0.0922,-0.001 0.0617,-0.013 z m -0.0545,-0.0866 c -0.0873,-0.01 -2.01542,-0.008 -2.0488,0.002 -0.0145,0.004 -0.0237,0.0112 -0.0205,0.0154 0.003,0.004 0.44904,0.006 0.99075,0.004 0.54171,-0.002 1.01728,-0.004 1.05682,-0.003 0.0933,1.1e-4 0.10398,-0.009 0.0217,-0.0178 z m -3.44751,-4e-4 c -0.003,-0.004 -0.0151,-0.006 -0.0273,-0.004 -0.0122,10e-4 -0.0168,0.009 -0.01,0.0182 0.007,0.009 0.019,0.0108 0.0273,0.004 0.008,-0.006 0.0128,-0.0146 0.01,-0.0182 z m -0.0684,0.004 c -0.003,-0.004 -0.0151,-0.006 -0.0273,-0.004 -0.0122,0.001 -0.0168,0.009 -0.01,0.0182 0.007,0.009 0.019,0.0108 0.0273,0.004 0.008,-0.006 0.0128,-0.0145 0.01,-0.0182 z m -0.13594,-0.005 c -0.0278,-0.005 -0.0515,-0.003 -0.0525,0.004 -10e-4,0.008 0.0189,0.0137 0.0441,0.0136 0.0645,-3.2e-4 0.0676,-0.007 0.008,-0.018 z m -0.0809,0.004 c -0.003,-0.004 -0.0151,-0.006 -0.0273,-0.004 -0.0122,10e-4 -0.0168,0.009 -0.01,0.0182 0.007,0.009 0.019,0.0108 0.0273,0.004 0.008,-0.006 0.0128,-0.0145 0.01,-0.0182 z m -0.13595,-0.005 c -0.0278,-0.005 -0.0514,-0.003 -0.0525,0.004 -0.001,0.008 0.0188,0.0137 0.0441,0.0135 0.0645,-3.1e-4 0.0676,-0.007 0.008,-0.018 z m -0.14938,0.008 c -0.003,-0.004 -0.0151,-0.006 -0.0274,-0.004 -0.0122,10e-4 -0.0168,0.009 -0.01,0.0182 0.007,0.009 0.019,0.0108 0.0273,0.004 0.008,-0.006 0.0128,-0.0145 0.01,-0.0182 z m -0.12748,-0.0106 c -0.0328,-8e-5 -0.0603,0.005 -0.0612,0.0116 -0.002,0.0151 0.0854,0.015 0.10559,-7e-5 0.008,-0.006 -0.0116,-0.0115 -0.0444,-0.0116 z m -0.28532,0.003 c -0.0328,-9e-5 -0.0603,0.005 -0.0612,0.0116 -0.002,0.0151 0.0854,0.015 0.10558,-8e-5 0.008,-0.006 -0.0116,-0.0115 -0.0444,-0.0115 z m -0.23721,0.003 c -0.002,-0.003 -0.0323,-0.004 -0.0664,-8e-4 l -0.062,0.005 0.0537,0.0106 c 0.0475,0.009 0.0872,0.002 0.0748,-0.0148 z m -0.21753,-0.003 c -0.003,-0.004 -0.0151,-0.006 -0.0274,-0.004 -0.0122,0.001 -0.0167,0.009 -0.01,0.0182 0.007,0.009 0.019,0.0108 0.0273,0.004 0.008,-0.006 0.0128,-0.0146 0.01,-0.0182 z m -0.12246,-0.004 c -0.0199,-0.005 -0.0434,-0.003 -0.0523,0.004 -0.009,0.007 0.005,0.0122 0.0301,0.0121 0.0598,-3e-4 0.0674,-0.006 0.0222,-0.0162 z m -0.16287,0.006 c -0.003,-0.004 -0.0151,-0.006 -0.0273,-0.004 -0.0122,10e-4 -0.0168,0.009 -0.01,0.0182 0.007,0.009 0.019,0.0108 0.0273,0.004 0.008,-0.006 0.0128,-0.0145 0.01,-0.0182 z m -0.13594,-0.005 c -0.0278,-0.005 -0.0514,-0.003 -0.0525,0.004 -10e-4,0.008 0.0188,0.0137 0.0441,0.0136 0.0645,-3.2e-4 0.0676,-0.007 0.008,-0.018 z m -0.28533,0.003 c -0.0278,-0.005 -0.0514,-0.003 -0.0524,0.004 -10e-4,0.008 0.0188,0.0137 0.0441,0.0136 0.0645,-3.2e-4 0.0676,-0.007 0.008,-0.018 z m -0.29782,0.002 c -0.003,-0.004 -0.0151,-0.006 -0.0273,-0.004 -0.0122,10e-4 -0.0168,0.009 -0.01,0.0182 0.007,0.009 0.019,0.0108 0.0274,0.004 0.008,-0.006 0.0128,-0.0146 0.01,-0.0182 z m -0.21689,-0.002 c -0.003,-0.004 -0.0151,-0.006 -0.0273,-0.004 -0.0122,0.001 -0.0167,0.009 -0.01,0.0182 0.007,0.009 0.019,0.0108 0.0273,0.004 0.008,-0.006 0.0128,-0.0145 0.01,-0.0182 z m -0.28533,0.003 c -0.003,-0.004 -0.0151,-0.006 -0.0273,-0.004 -0.0122,0.001 -0.0168,0.009 -0.01,0.0182 0.007,0.009 0.019,0.0108 0.0274,0.004 0.008,-0.006 0.0128,-0.0145 0.01,-0.0182 z m -0.43376,-0.004 c -0.003,-0.004 -0.0151,-0.006 -0.0273,-0.004 -0.0122,10e-4 -0.0168,0.009 -0.01,0.0182 0.007,0.009 0.019,0.0108 0.0274,0.004 0.008,-0.006 0.0128,-0.0145 0.01,-0.0182 z m -0.21689,-0.002 c -0.003,-0.004 -0.0151,-0.006 -0.0273,-0.004 -0.0122,0.001 -0.0168,0.009 -0.01,0.0182 0.007,0.009 0.019,0.0108 0.0273,0.004 0.008,-0.006 0.0128,-0.0146 0.01,-0.0182 z m -0.50221,7.7e-4 c -0.003,-0.004 -0.0151,-0.006 -0.0273,-0.004 -0.0122,0.001 -0.0167,0.009 -0.01,0.0182 0.007,0.009 0.019,0.0108 0.0274,0.004 0.008,-0.006 0.0128,-0.0145 0.01,-0.0182 z m -23.99998,0.15891 c -0.0254,-0.01 -0.80276,0.0119 -1.32706,0.0369 -0.47124,0.0224 -0.98165,0.0743 -1.02004,0.10366 -0.0287,0.0219 -0.0567,0.23964 -0.0345,0.26863 0.007,0.01 0.0171,-0.0352 0.0216,-0.0998 0.004,-0.0645 0.0189,-0.12555 0.032,-0.1356 0.059,-0.0451 0.59478,-0.092 1.36311,-0.11953 0.99233,-0.0355 1.01143,-0.0365 0.96488,-0.0543 z"
     style="fill:#264653;fill-opacity:1;stroke-width:0.0655698;stroke-linecap:round;stroke-linejoin:round" />
  <path
     id="path4651"
     d="m 122.0847,320.15183 c -5.98734,4.061 -13.1266,6.65114 -20.33491,7.37757 -3.60127,0.36292 -6.42708,0.30603 -10.28837,-0.20714 -5.91114,-0.78559 -10.8915,-2.4368 -15.97051,-5.29493 -2.84725,-1.60224 -6.02049,-3.92617 -8.40412,-6.15477 -2.02192,-1.89041 -2.83443,-2.8079 -5.00359,-5.65004 -2.19236,-2.87255 -2.85317,-3.9048 -4.24994,-6.63885 -4.82073,-9.43611 -6.07017,-20.44518 -3.49297,-30.77744 2.94479,-11.80603 10.58937,-21.84888 21.18689,-27.83368 10.89763,-6.15427 23.88848,-7.39581 35.76596,-3.41816 6.64873,2.2266 12.40234,5.80093 17.46466,10.84962 1.5073,1.50325 4.46212,5.18341 5.64917,7.03593 5.0129,7.82316 7.44166,16.72166 7.07493,25.9211 -0.0836,2.09605 -0.57704,5.77748 -1.05827,7.89481 -2.14256,9.42689 -7.12792,17.6604 -14.52897,23.99515 -1.59117,1.36192 -2.00006,1.67324 -3.80995,2.90083 z m 5.33053,-5.3415 c 3.08139,-3.03121 5.84841,-6.60996 7.85398,-10.15805 1.02197,-1.80799 2.80643,-5.49563 3.46487,-7.16025 1.44909,-3.66351 1.85641,-6.6999 1.80299,-13.44045 -0.10762,-13.57713 -4.84325,-24.75583 -13.89136,-32.79126 -3.23984,-2.87723 -6.97346,-5.30636 -11.58246,-7.53565 -6.58083,-3.18303 -8.85967,-3.62285 -18.34232,-3.54012 -4.63692,0.0405 -7.07649,0.2325 -9.55455,0.75214 -3.26891,0.68548 -7.84566,2.63426 -11.87501,5.05639 -1.93447,1.16285 -5.80441,4.12716 -7.51757,5.75834 -4.33197,4.12467 -7.57794,8.51011 -9.96169,13.45866 -2.93251,6.08775 -3.57177,9.09924 -3.56722,16.8047 0.006,10.67012 1.02834,16.00027 4.1677,21.73558 0.92572,1.69121 3.57964,5.34659 5.22068,7.19072 5.89934,6.62942 11.00643,10.45483 17.53669,13.13564 5.09297,2.09078 9.76578,2.91373 16.18544,2.85052 8.66984,-0.0854 16.56175,-2.42359 23.72309,-7.02867 1.05094,-0.67581 5.40681,-4.17346 6.33674,-5.08824 z"
     style="fill:#264653;fill-opacity:1;stroke-width:0.370919;stroke-linecap:round;stroke-linejoin:round" />
  <path
     id="path4653"
     d="m 282.66788,128.37576 c -0.66184,-0.002 -6.01761,-0.003 -11.90172,-0.002 -5.88412,9.9e-4 -15.45258,0.002 -21.26324,0.001 -5.81066,-3.6e-4 -17.57326,1.4e-4 -26.13911,0.001 -8.56586,9.7e-4 -17.61696,5.6e-4 -20.11358,-9.1e-4 -2.49661,-0.001 -11.54739,-0.001 -20.11285,3e-5 -8.56545,0.001 -17.61623,0.002 -20.11285,4e-5 -2.49661,-0.001 -11.54739,-0.001 -20.11284,3e-5 -8.56546,10e-4 -17.61608,0.002 -20.1125,5e-4 -5.05463,-0.002 -18.04151,-0.002 -41.37679,2.7e-4 -8.56585,9.8e-4 -17.61696,5.7e-4 -20.11357,-9.1e-4 -6.17847,-0.004 -33.59769,-5e-4 -44.89451,0.005 -5.06354,0.003 -9.30129,-0.005 -9.41724,-0.0172 -0.18092,-0.0187 -0.21083,-0.248 -0.21097,-1.61726 -0.003,-25.60511 -0.005,-37.42737 -0.01,-48.24747 -0.003,-7.26066 0.002,-13.28844 0.012,-13.39507 0.0143,-0.15795 21.96244,-0.19523 118.43842,-0.20118 65.13149,-0.004 118.57586,0.01 118.76524,0.0302 0.22575,0.0246 0.39171,0.11968 0.48188,0.27606 0.12548,0.21763 -10.25985,0.23843 -118.48055,0.23741 -65.23995,-6.2e-4 -118.64367,0.022 -118.67494,0.0503 -0.0941,0.0851 -0.0419,61.91563 0.0524,62.03898 0.048,0.0628 62.19116,0.11126 138.09596,0.10775 75.90479,-0.004 138.09991,0.002 138.21137,0.0133 0.17168,0.0167 0.20189,0.0735 0.19775,0.37147 l -0.005,0.35174 z"
     style="fill:#264653;fill-opacity:1;stroke-width:0.370919;stroke-linecap:round;stroke-linejoin:round" />
</svg>
