<?xml version="1.0" encoding="UTF-8" standalone="no"?>
<svg
   xmlns:dc="http://purl.org/dc/elements/1.1/"
   xmlns:cc="http://creativecommons.org/ns#"
   xmlns:rdf="http://www.w3.org/1999/02/22-rdf-syntax-ns#"
   xmlns:svg="http://www.w3.org/2000/svg"
   xmlns="http://www.w3.org/2000/svg"
   version="1.1"
   viewBox="0 0 842 501.32537"
   height="501.32535"
   width="842"
   data-name="Layer 1"
   id="b582dbfc-ed60-4217-aa06-1e10ec960023">
  <metadata
     id="metadata1813">
    <rdf:RDF>
      <cc:Work
         rdf:about="">
        <dc:format>image/svg+xml</dc:format>
        <dc:type
           rdf:resource="http://purl.org/dc/dcmitype/StillImage" />
        <dc:title>business_shop</dc:title>
      </cc:Work>
    </rdf:RDF>
  </metadata>
  <defs
     id="defs1811" />
  <title
     id="title1686">business_shop</title>
  <ellipse
     id="ellipse1688"
     fill="#3f3d56"
     ry="32.5"
     rx="416"
     cy="468.82535"
     cx="426" />
  <path
     id="path1692"
     fill="#a0616a"
     d="m 650.70151,15.94965 c 0,0 2.59933,35.091 2.59933,36.39069 0,1.29969 -18.19534,90.97675 -18.19534,90.97675 0,0 -25.99336,49.38737 0,48.0877 25.99336,-1.29967 18.19534,-46.788 18.19534,-46.788 l 27.293,-75.38072 -11.697,-53.28638 z" />
  <rect
     id="rect1712"
     fill="#f2f2f2"
     height="362.79825"
     width="516.46277"
     y="105.781"
     x="146.16914" />
  <rect
     id="rect1714"
     fill="#3f3d56"
     height="226.37411"
     width="129.67789"
     y="244.20514"
     x="189.64496" />
  <rect
     id="rect1716"
     fill="#f2f2f2"
     height="32.563412"
     width="34.93166"
     y="257.78558"
     x="213.63162" />
  <rect
     id="rect1718"
     fill="#f2f2f2"
     height="32.563412"
     width="34.93166"
     y="257.78558"
     x="260.40454" />
  <rect
     id="rect1720"
     fill="#f2f2f2"
     height="33.74754"
     width="34.93166"
     y="302.19025"
     x="213.63162" />
  <rect
     id="rect1722"
     fill="#f2f2f2"
     height="33.74754"
     width="34.93166"
     y="302.19025"
     x="260.40454" />
  <circle
     style="fill:#e9c46a;fill-opacity:1;stroke-width:3.44693;stroke-linecap:round;stroke-linejoin:round"
     id="circle1724"
     fill="#6c63ff"
     r="8.24541"
     cy="372.6326"
     cx="302.83203" />
  <rect
     id="rect1726"
     fill="#3f3d56"
     height="215.13036"
     width="256.35745"
     y="222.71597"
     x="362.79868" />
  <polygon
     transform="translate(0,-177.051)"
     id="polygon1728"
     fill="#3f3d56"
     points="133.831,264.092 143.148,244.603 155.337,219.117 164.654,199.628 175.455,177.051 667.407,177.051 673.786,199.628 679.295,219.117 686.499,244.603 692.008,264.092 716.602,351.134 92.199,351.134 " />
  <rect
     style="fill:#e9c46a;fill-opacity:1;stroke-width:3.44693;stroke-linecap:round;stroke-linejoin:round"
     id="rect1730"
     fill="#6c63ff"
     height="55.469151"
     width="8.9949999"
     y="311.91638"
     x="371.79367" />
  <rect
     id="rect1732"
     fill="#f2f2f2"
     height="6.7462502"
     width="8.9949999"
     y="320.16177"
     x="371.79367" />
  <rect
     id="rect1734"
     fill="#f2f2f2"
     height="6.7462502"
     width="8.9949999"
     y="352.39389"
     x="371.79367" />
  <rect
     style="fill:#e9c46a;fill-opacity:1;stroke-width:3.44693;stroke-linecap:round;stroke-linejoin:round"
     id="rect1736"
     fill="#6c63ff"
     height="55.469151"
     width="21.737909"
     y="311.91638"
     x="385.28616" />
  <rect
     id="rect1738"
     fill="#f2f2f2"
     height="6.7462502"
     width="21.737909"
     y="320.16177"
     x="385.28616" />
  <rect
     id="rect1740"
     fill="#f2f2f2"
     height="6.7462502"
     width="21.737909"
     y="352.39389"
     x="385.28616" />
  <rect
     style="fill:#e9c46a;fill-opacity:1;stroke-width:3.44693;stroke-linecap:round;stroke-linejoin:round"
     id="rect1742"
     fill="#6c63ff"
     height="55.469151"
     width="8.9949999"
     y="311.91638"
     x="412.27115" />
  <rect
     id="rect1744"
     fill="#f2f2f2"
     height="6.7462502"
     width="8.9949999"
     y="320.16177"
     x="412.27115" />
  <rect
     id="rect1746"
     fill="#f2f2f2"
     height="6.7462502"
     width="8.9949999"
     y="352.39389"
     x="412.27115" />
  <rect
     style="fill:#e9c46a;fill-opacity:1;stroke-width:3.44693;stroke-linecap:round;stroke-linejoin:round"
     id="rect1748"
     fill="#6c63ff"
     height="55.469151"
     width="8.9949999"
     y="311.91638"
     x="425.76367" />
  <rect
     id="rect1750"
     fill="#f2f2f2"
     height="6.7462502"
     width="8.9949999"
     y="320.16177"
     x="425.76367" />
  <rect
     id="rect1752"
     fill="#f2f2f2"
     height="6.7462502"
     width="8.9949999"
     y="352.39389"
     x="425.76367" />
  <rect
     style="fill:#e9c46a;fill-opacity:1;stroke-width:3.44693;stroke-linecap:round;stroke-linejoin:round"
     id="rect1754"
     fill="#6c63ff"
     transform="rotate(-20.65411)"
     height="55.469151"
     width="8.9949999"
     y="448.45993"
     x="295.84097" />
  <rect
     id="rect1756"
     fill="#f2f2f2"
     transform="rotate(-20.65411)"
     height="6.7462502"
     width="8.9949999"
     y="456.70535"
     x="295.841" />
  <rect
     id="rect1758"
     fill="#f2f2f2"
     transform="rotate(-20.65411)"
     height="6.7462502"
     width="8.9949999"
     y="488.93741"
     x="295.84094" />
  <rect
     style="fill:#e9c46a;fill-opacity:1;stroke-width:3.44693;stroke-linecap:round;stroke-linejoin:round"
     id="rect1760"
     fill="#6c63ff"
     height="55.469151"
     width="21.737909"
     y="311.91638"
     x="589.17279" />
  <rect
     id="rect1762"
     fill="#f2f2f2"
     height="6.7462502"
     width="21.737909"
     y="320.16177"
     x="589.17279" />
  <rect
     id="rect1764"
     fill="#f2f2f2"
     height="6.7462502"
     width="21.737909"
     y="352.39389"
     x="589.17279" />
  <rect
     style="fill:#e9c46a;fill-opacity:1;stroke-width:3.44693;stroke-linecap:round;stroke-linejoin:round"
     id="rect1766"
     fill="#6c63ff"
     height="55.469151"
     width="8.9949999"
     y="311.91638"
     x="574.93073" />
  <rect
     id="rect1768"
     fill="#f2f2f2"
     height="6.7462502"
     width="8.9949999"
     y="320.16177"
     x="574.93073" />
  <rect
     id="rect1770"
     fill="#f2f2f2"
     height="6.7462502"
     width="8.9949999"
     y="352.39389"
     x="574.93073" />
  <rect
     style="fill:#e9c46a;fill-opacity:1;stroke-width:3.44693;stroke-linecap:round;stroke-linejoin:round"
     id="rect1772"
     fill="#6c63ff"
     height="55.469151"
     width="8.9949999"
     y="311.91638"
     x="561.43823" />
  <rect
     id="rect1774"
     fill="#f2f2f2"
     height="6.7462502"
     width="8.9949999"
     y="320.16177"
     x="561.43823" />
  <rect
     id="rect1776"
     fill="#f2f2f2"
     height="6.7462502"
     width="8.9949999"
     y="352.39389"
     x="561.43823" />
  <rect
     style="fill:#e9c46a;fill-opacity:1;stroke-width:3.44693;stroke-linecap:round;stroke-linejoin:round"
     id="rect1778"
     fill="#6c63ff"
     transform="rotate(-69.34589)"
     height="8.9949999"
     width="55.469151"
     y="627.33209"
     x="-152.54504" />
  <rect
     id="rect1780"
     fill="#f2f2f2"
     transform="rotate(-69.34589)"
     height="8.9949999"
     width="6.7462502"
     y="627.33209"
     x="-112.06752" />
  <rect
     id="rect1782"
     fill="#f2f2f2"
     transform="rotate(-69.34589)"
     height="8.9949999"
     width="6.7462502"
     y="627.33215"
     x="-144.29959" />
  <rect
     id="rect1784"
     fill="#f2f2f2"
     height="5.2470798"
     width="256.35745"
     y="367.38553"
     x="362.79868" />
  <rect
     style="fill:#e9c46a;fill-opacity:1;stroke-width:3.44693;stroke-linecap:round;stroke-linejoin:round"
     id="rect1786"
     fill="#6c63ff"
     height="55.469151"
     width="47.22374"
     y="311.91638"
     x="474.48657" />
  <rect
     id="rect1788"
     fill="#f2f2f2"
     height="10.49416"
     width="23.98666"
     y="323.9097"
     x="486.1051" />
  <rect
     id="rect1790"
     fill="#f2f2f2"
     height="47.97332"
     width="4.4974999"
     y="222.71597"
     x="488.72864" />
  <circle
     id="circle1792"
     fill="#f2f2f2"
     r="7.4958301"
     cy="270.6893"
     cx="490.97739" />
  <polygon
     transform="translate(0,-177.051)"
     style="fill:#e9c46a;fill-opacity:1;stroke-width:3.44693;stroke-linecap:round;stroke-linejoin:round"
     id="polygon1794"
     fill="#6c63ff"
     points="164.654,199.628 673.786,199.628 679.295,219.117 155.337,219.117 " />
  <polygon
     transform="translate(0,-177.051)"
     style="fill:#e9c46a;fill-opacity:1;stroke-width:3.44693;stroke-linecap:round;stroke-linejoin:round"
     id="polygon1796"
     fill="#6c63ff"
     points="143.148,244.603 686.499,244.603 692.008,264.092 133.831,264.092 " />
  <circle
     style="fill:#2a9d8f;fill-opacity:1;stroke-width:3.44693;stroke-linecap:round;stroke-linejoin:round"
     id="circle1802"
     fill="#6c63ff"
     r="100"
     cy="209.32538"
     cx="100" />
  <circle
     style="fill:#264653;fill-opacity:1;stroke-width:3.44693;stroke-linecap:round;stroke-linejoin:round"
     id="circle1804"
     opacity="0.1"
     r="86"
     cy="209.32538"
     cx="100" />
  <path
     id="path1806"
     fill="#f2f2f2"
     d="m 95.87909,260.07328 v -12.51709 c -6.32734,-0.12344 -12.87306,-2.355 -16.69109,-5.45314 l 2.618,-8.30317 a 26.68122,26.68122 0 0 0 15.70942,5.3285 c 7.74578,0 12.98225,-5.081 12.98225,-12.14493 0,-6.81643 -4.2548,-11.02973 -12.32763,-14.74806 -11.12757,-4.957 -18.00034,-10.65821 -18.00034,-21.43985 0,-10.28668 6.43653,-18.09426 16.47324,-19.95312 v -12.51705 h 6.76358 v 12.02149 a 26.54267,26.54267 0 0 1 14.18228,4.33733 l -2.7277,8.17972 A 24.10671,24.10671 0 0 0 101.11556,178.65 c -8.39987,0 -11.56381,5.70063 -11.56381,10.65821 0,6.44429 4.03642,9.66644 13.52769,14.12844 11.23623,5.20506 16.90948,11.64935 16.90948,22.67909 0,9.79049 -6.0003,18.962 -17.23706,21.06771 v 12.88981 z" />
  <path
     id="path2382"
     d="m 264.89171,32.59181 v -9.39919 h 204.29561 204.29562 l 1.60851,5.51692 c 2.13871,7.33536 3.35451,11.91928 3.36007,12.66847 0.003,0.33714 -93.04742,0.61299 -206.77762,0.61299 H 264.89171 Z"
     style="fill:#e9c46a;fill-opacity:1;stroke-width:2.81725;stroke-linecap:round;stroke-linejoin:round" />
  <path
     id="path2384"
     d="m 264.89171,77.54446 v -9.39919 h 210.7348 210.73481 l 2.16556,8.0758 c 1.19106,4.44169 2.39408,8.67132 2.67339,9.39919 0.46722,1.21756 -16.55864,1.32339 -212.90036,1.32339 h -213.4082 z"
     style="fill:#e9c46a;fill-opacity:1;stroke-width:3.44693;stroke-linecap:round;stroke-linejoin:round" />
  <path
     id="path2386"
     d="m 385.8552,339.49581 v -12.25982 h 10.21651 10.21651 v 12.25982 12.25981 H 396.07171 385.8552 Z"
     style="fill:#e9c46a;fill-opacity:1;stroke-width:3.44693;stroke-linecap:round;stroke-linejoin:round" />
  <path
     id="path2388"
     d="m 297.52167,377.97276 c -3.29733,-3.29733 -3.29733,-7.45358 0,-10.75091 3.75511,-3.75511 9.53511,-2.90282 11.94722,1.76168 4.12231,7.97169 -5.62829,15.30815 -11.94722,8.98923 z"
     style="fill:#e9c46a;fill-opacity:1;stroke-width:2.81725;stroke-linecap:round;stroke-linejoin:round" />
  <path
     id="path2390"
     d="m 371.96075,316.20216 v -3.67794 h 4.0866 4.08661 v 3.67794 3.67794 h -4.08661 -4.0866 z"
     style="fill:#e9c46a;fill-opacity:1;stroke-width:2.81725;stroke-linecap:round;stroke-linejoin:round" />
  <path
     id="path2392"
     d="m 385.38255,363.29785 v -4.0866 h 10.77842 10.77842 v 4.0866 4.0866 h -10.77842 -10.77842 z"
     style="fill:#e9c46a;fill-opacity:1;stroke-width:0.352156;stroke-linecap:round;stroke-linejoin:round" />
  <path
     id="path2394"
     d="m 412.35414,339.64663 v -12.71956 h 4.44418 4.44418 v 12.71956 12.71955 h -4.44418 -4.44418 z"
     style="fill:#e9c46a;fill-opacity:1;stroke-width:3.44693;stroke-linecap:round;stroke-linejoin:round" />
  <path
     id="path2396"
     d="m 385.38255,316.04649 v -4.03553 h 10.77842 10.77842 v 4.03553 4.03552 h -10.77842 -10.77842 z"
     style="fill:#e9c46a;fill-opacity:1;stroke-width:0.352156;stroke-linecap:round;stroke-linejoin:round" />
  <path
     id="path2398"
     d="m 406.9889,339.64663 c 0,-7.02385 0.0122,-9.88219 0.0271,-6.35186 0.0149,3.53033 0.0149,9.27712 -1e-5,12.77064 -0.0149,3.49352 -0.0271,0.60507 -0.0271,-6.41878 z"
     style="fill:#e9c46a;fill-opacity:1;stroke-width:0.352156;stroke-linecap:round;stroke-linejoin:round" />
  <path
     id="path2400"
     d="m 385.38255,339.64663 v -12.71956 h 10.77842 10.77842 v 12.71956 12.71955 h -10.77842 -10.77842 z m 20.91872,-0.12771 0.026,-12.28535 h -10.26801 -10.268 v 12.24278 c 0,6.73353 0.0309,12.27366 0.0686,12.31139 0.0377,0.0377 4.64665,0.0569 10.24205,0.0426 l 10.17345,-0.026 z"
     style="fill:#e9c46a;fill-opacity:1;stroke-width:3.44693;stroke-linecap:round;stroke-linejoin:round" />
  <path
     id="path2402"
     d="m 412.35414,316.04649 v -4.03553 h 4.44418 4.44418 v 4.03553 4.03552 h -4.44418 -4.44418 z"
     style="fill:#e9c46a;fill-opacity:1;stroke-width:0.352156;stroke-linecap:round;stroke-linejoin:round" />
  <path
     id="path2404"
     d="m 425.83993,316.04649 v -4.03553 h 4.44418 4.44419 v 4.03553 4.03552 h -4.44419 -4.44418 z"
     style="fill:#e9c46a;fill-opacity:1;stroke-width:0.352156;stroke-linecap:round;stroke-linejoin:round" />
  <path
     id="path2406"
     d="m 425.83993,339.64663 v -12.71956 h 4.44418 4.44419 v 12.71956 12.71955 h -4.44419 -4.44418 z"
     style="fill:#e9c46a;fill-opacity:1;stroke-width:3.44693;stroke-linecap:round;stroke-linejoin:round" />
  <path
     id="path2408"
     d="m 449.30062,353.00081 c -0.10737,-0.17535 -8.85108,-23.45138 -8.85108,-23.56183 0,-0.10064 8.16538,-3.27197 8.23475,-3.19828 0.0588,0.0625 8.93662,23.6991 8.90959,23.72127 -0.031,0.0254 -5.90606,2.24655 -7.46058,2.82054 -0.43349,0.16006 -0.8082,0.2583 -0.83268,0.2183 z"
     style="fill:#e9c46a;fill-opacity:1;stroke-width:0.352156;stroke-linecap:round;stroke-linejoin:round" />
  <path
     id="path2410"
     d="m 436.51465,319.1302 -1.43185,-3.81413 4.00174,-1.50903 c 2.20096,-0.82996 4.07768,-1.51614 4.1705,-1.52484 0.13163,-0.0123 0.47921,0.80443 1.58017,3.7132 0.77628,2.05097 1.38287,3.75953 1.34796,3.79681 -0.0349,0.0373 -1.83347,0.7343 -3.99682,1.54894 -2.16335,0.81465 -4.00232,1.50862 -4.08661,1.54218 -0.12139,0.0483 -0.45083,-0.73171 -1.58509,-3.75313 z"
     style="fill:#e9c46a;fill-opacity:1;stroke-width:0.352156;stroke-linecap:round;stroke-linejoin:round" />
  <path
     id="path2412"
     d="m 474.57269,339.69771 v -27.68675 h 23.54906 23.54906 v 27.68675 27.68674 h -23.54906 -23.54906 z m 35.55346,-10.52301 v -5.31258 h -12.05548 -12.05549 v 5.31258 5.31259 h 12.05549 12.05548 z"
     style="fill:#e9c46a;fill-opacity:1;stroke-width:3.44693;stroke-linecap:round;stroke-linejoin:round" />
  <path
     id="path2414"
     d="m 453.18936,363.36391 c -0.76972,-2.04273 -1.39864,-3.75528 -1.3976,-3.80565 0.002,-0.0814 8.17941,-3.20716 8.25144,-3.15397 0.0475,0.0351 2.87153,7.55174 2.84659,7.57669 -0.0422,0.0422 -8.16198,3.09698 -8.23193,3.09698 -0.038,0 -0.69877,-1.67132 -1.4685,-3.71405 z"
     style="fill:#e9c46a;fill-opacity:1;stroke-width:0.352156;stroke-linecap:round;stroke-linejoin:round" />
  <path
     id="path2416"
     d="m 425.83993,363.29785 v -4.0866 h 4.44418 4.44419 v 4.0866 4.0866 h -4.44419 -4.44418 z"
     style="fill:#e9c46a;fill-opacity:1;stroke-width:0.352156;stroke-linecap:round;stroke-linejoin:round" />
  <path
     id="path2418"
     d="m 412.35414,363.29785 v -4.0866 h 4.44418 4.44418 v 4.0866 4.0866 h -4.44418 -4.44418 z"
     style="fill:#e9c46a;fill-opacity:1;stroke-width:0.352156;stroke-linecap:round;stroke-linejoin:round" />
  <path
     id="path2420"
     d="m 371.84169,316.03188 v -4.11214 h 4.46972 4.46972 v 4.11214 4.11215 h -4.46972 -4.46972 z m 8.32645,0.15325 v -3.70348 h -4.11214 -4.11215 v 3.70348 3.70349 h 4.11215 4.11214 z"
     style="fill:#e9c46a;fill-opacity:1;stroke-width:0.176078;stroke-linecap:round;stroke-linejoin:round" />
  <path
     id="path2422"
     d="m 371.84616,316.91739 v -3.21927 h 0.0452 0.0451 v 3.09736 3.09736 h 4.11777 4.11777 l -0.002,-1.07234 -0.002,-1.07233 -0.002,1.06782 c -0.002,0.94081 -0.004,1.06782 -0.0158,1.06782 -0.0119,0 -0.0138,-0.1234 -0.0157,-1.03621 l -0.002,-1.03622 -0.002,1.0317 -0.002,1.0317 h -4.08162 -4.08161 v -3.08833 -3.08833 h 4.08163 4.08163 l 0.002,1.97536 0.002,1.97536 0.002,-1.97536 c 0.002,-1.74757 0.004,-1.97536 0.0158,-1.97536 0.012,0 0.0138,0.23336 0.0158,2.02502 l 0.002,2.02503 0.002,-2.02503 0.002,-2.02502 h 0.30252 0.30251 v 3.21927 3.21927 h -4.46544 -4.46544 z"
     style="fill:#e9c46a;fill-opacity:1;stroke-width:0.0311265;stroke-linecap:round;stroke-linejoin:round" />
  <path
     id="path2424"
     d="m 371.84616,316.91739 v -3.21927 h 0.0452 0.0451 v 3.09736 3.09736 h 4.11777 c 3.28854,0 4.11765,-0.002 4.11714,-0.0113 -3.5e-4,-0.006 -0.004,-0.0194 -0.008,-0.0293 -0.007,-0.0173 -0.008,-0.0173 -0.008,-7.6e-4 -3.5e-4,0.01 -0.003,0.0148 -0.006,0.0118 -0.003,-0.003 -0.007,-0.42733 -0.01,-0.9429 -0.002,-0.51557 -0.006,-0.94146 -0.007,-0.94643 -0.002,-0.005 -0.003,0.4207 -0.004,0.94592 l -7.2e-4,0.95494 h -4.08165 -4.08165 v -3.08833 -3.08833 h 4.08165 4.08165 l 0.002,1.82184 0.002,1.82185 0.006,-1.50805 c 0.003,-0.82942 0.007,-1.6418 0.007,-1.80528 7.2e-4,-0.16349 0.004,-0.2942 0.008,-0.29048 0.004,0.004 0.009,0.87706 0.0118,1.94075 l 0.005,1.93396 0.002,-1.95729 0.002,-1.9573 h 0.30252 0.30251 v 3.21927 3.21927 h -4.46544 -4.46544 z m 8.32334,1.78346 c -2.1e-4,-0.48921 -0.002,-0.87728 -0.003,-0.86238 -0.002,0.0149 -0.004,0.47002 -0.005,1.01138 -10e-4,0.54136 2e-5,0.92944 0.003,0.86239 0.003,-0.067 0.006,-0.52217 0.005,-1.01139 z m -0.0365,-1.3201 c -0.003,-0.007 -0.005,-0.005 -0.005,0.005 -4e-4,0.01 0.002,0.0149 0.005,0.0118 0.003,-0.003 0.003,-0.0108 7.1e-4,-0.0173 z"
     style="fill:#e9c46a;fill-opacity:1;stroke-width:0.0311265;stroke-linecap:round;stroke-linejoin:round" />
  <path
     id="path2426"
     d="m 371.84616,316.91739 v -3.21927 h 0.0452 0.0451 v 3.09801 c 0,2.75378 0.002,3.0965 0.0135,3.08446 0.012,-0.012 0.0135,-0.36831 0.0135,-3.09801 v -3.08446 h 4.08165 4.08165 l 0.002,1.49676 0.002,1.49675 0.006,-1.14232 c 0.003,-0.62827 0.007,-1.29436 0.007,-1.4802 7.2e-4,-0.18583 0.004,-0.33487 0.008,-0.3312 0.004,0.004 0.009,0.7551 0.0118,1.66984 l 0.005,1.66315 0.002,-1.68639 0.002,-1.68639 h 0.30252 0.30251 v 3.21927 3.21927 h -4.46544 -4.46544 z m 8.30554,2.96976 c 0.0116,-0.003 0.0203,-0.0125 0.0203,-0.0219 0,-0.0224 -0.0157,-0.0306 -0.0208,-0.0109 -0.005,0.0199 -0.007,-0.12377 -0.0148,-0.99547 l -0.006,-0.69532 -0.002,0.85983 -0.002,0.85983 -0.10159,0.003 -0.10159,0.003 0.10385,0.002 c 0.0571,9.9e-4 0.11299,-6.5e-4 0.12417,-0.004 z m 0.0181,-1.48586 c -0.001,-0.24499 -0.002,-0.0472 -0.002,0.43953 0,0.48673 10e-4,0.68717 0.002,0.44543 10e-4,-0.24175 10e-4,-0.63998 10e-6,-0.88496 z m -8e-4,-1.3191 c -0.003,-0.006 -0.005,-0.001 -0.005,0.0113 0,0.0124 0.002,0.0175 0.005,0.0113 0.003,-0.006 0.003,-0.0164 0,-0.0226 z"
     style="fill:#e9c46a;fill-opacity:1;stroke-width:0.0311265;stroke-linecap:round;stroke-linejoin:round" />
  <path
     id="path2428"
     d="m 371.84616,316.91739 v -3.21927 h 0.0452 0.0451 v 3.05095 c 0,1.67802 0.003,3.07082 0.006,3.0951 0.006,0.0411 0.007,0.0423 0.0125,0.0171 0.003,-0.0149 0.007,-1.4077 0.007,-3.09511 l 0.001,-3.06801 h 4.08165 4.08165 v 1.24767 c 0,0.68622 0.002,1.24569 0.004,1.24326 0.002,-0.002 0.005,-0.35156 0.007,-0.77585 10e-4,-0.42428 0.004,-0.97663 0.007,-1.22745 0.004,-0.41902 0.005,-0.4366 0.009,-0.21672 0.003,0.13161 0.006,0.76726 0.007,1.41254 0.001,0.64528 0.004,1.17524 0.007,1.17769 0.002,0.002 0.004,-0.64031 0.004,-1.42835 v -1.43279 h 0.30252 0.30251 v 3.21927 3.21927 h -4.46544 -4.46544 z m 8.29764,2.96981 c 0.0192,-0.004 0.0282,-0.0109 0.0282,-0.022 0,-0.0216 -0.0179,-0.0324 -0.0187,-0.0112 -5.7e-4,0.0146 -10e-4,0.0144 -0.008,-0.002 -0.007,-0.0173 -0.008,-0.0172 -0.008,0.002 -7.8e-4,0.0248 -0.0155,0.0287 -0.12254,0.0322 l -0.0813,0.003 0.0914,0.002 c 0.0503,10e-4 0.10413,-6.8e-4 0.11966,-0.004 z m -0.007,-0.77096 -0.007,-0.66372 -10e-4,0.596 c -0.001,0.51607 0.003,0.77314 0.0132,0.74046 0.002,-0.005 -5.4e-4,-0.30769 -0.005,-0.67274 z m 0.0327,-0.48149 c -0.001,-0.13499 -0.003,-0.0219 -0.003,0.25122 0,0.27317 0.001,0.38361 0.003,0.24544 10e-4,-0.13818 10e-4,-0.36168 0,-0.49666 z"
     style="fill:#e9c46a;fill-opacity:1;stroke-width:0.0311265;stroke-linecap:round;stroke-linejoin:round" />
  <path
     id="path2430"
     d="m 371.84616,316.91739 v -3.21927 h 0.0452 0.0451 l 10e-4,3.04769 c 6.2e-4,1.67624 0.002,3.05176 0.003,3.05673 0.001,0.005 0.003,0.0263 0.005,0.0474 l 0.002,0.0384 0.007,-0.0497 c 0.004,-0.0273 0.007,-1.42011 0.008,-3.0951 l 9e-4,-3.04544 h 4.08165 4.08165 l 0.002,1.13103 0.002,1.13104 0.006,-0.78563 c 0.003,-0.4321 0.007,-0.93361 0.007,-1.11448 7.2e-4,-0.18087 0.004,-0.32602 0.008,-0.32256 0.003,0.003 0.009,0.5964 0.0119,1.31766 l 0.006,1.31137 0.002,-1.33422 0.002,-1.33421 h 0.30252 0.30251 v 3.21927 3.21927 h -4.46544 -4.46544 z m 8.29199,2.96966 c 0.0246,-0.004 0.0339,-0.0101 0.0339,-0.022 0,-0.0217 -0.0178,-0.0321 -0.0191,-0.0112 -9.8e-4,0.0152 -10e-4,0.0151 -0.005,-5.7e-4 -0.004,-0.0153 -0.005,-0.0148 -0.015,0.005 -0.01,0.0193 -0.0182,0.0219 -0.0872,0.0265 l -0.0765,0.005 0.0677,0.002 c 0.0372,8.7e-4 0.083,-9.4e-4 0.10159,-0.004 z m 0.007,-0.19287 c 0,-0.0602 -0.004,-0.0993 -0.009,-0.0993 -0.005,0 -0.009,0.0278 -0.009,0.0655 1e-4,0.0633 0.008,0.1332 0.0146,0.1332 0.002,0 0.003,-0.0447 0.003,-0.0993 z m -0.007,-0.53956 c -10e-4,-0.20239 -0.004,-0.3822 -0.005,-0.39958 -0.002,-0.0174 -0.003,0.1482 -0.004,0.36798 -8.3e-4,0.21977 0.002,0.39958 0.005,0.39959 0.004,0 0.006,-0.16559 0.004,-0.36799 z m 0.0318,-0.32509 c -0.002,-0.0385 -0.003,-0.007 -0.003,0.07 0,0.077 0.001,0.10847 0.003,0.07 0.002,-0.0385 0.002,-0.10147 0,-0.13997 z"
     style="fill:#e9c46a;fill-opacity:1;stroke-width:0.0311265;stroke-linecap:round;stroke-linejoin:round" />
  <path
     id="path2432"
     d="m 371.84616,316.91739 v -3.21927 h 0.0452 0.0451 l 5.3e-4,3.00932 c 4.9e-4,2.72917 0.002,3.15451 0.0139,3.16659 0.002,0.002 0.004,-0.0416 0.005,-0.0971 6.2e-4,-0.0555 0.002,-0.1049 0.003,-0.10986 10e-4,-0.005 0.003,-1.35002 0.003,-2.989 l 0.001,-2.97997 h 4.08165 4.08165 v 0.96774 c 0,0.53225 10e-4,0.96604 0.003,0.96397 0.002,-0.002 0.006,-0.42834 0.01,-0.94727 0.003,-0.51892 0.008,-0.94526 0.0102,-0.94741 0.005,-0.005 0.006,0.0331 0.0125,1.21365 l 0.006,1.03848 0.002,-1.14458 0.002,-1.14458 h 0.30252 0.30251 v 3.21927 3.21927 h -4.46544 -4.46544 z m 8.23346,2.969 c -0.0136,-0.002 -0.0379,-0.002 -0.0542,-9e-5 -0.0162,0.002 -0.005,0.004 0.0247,0.004 0.0298,6e-5 0.0431,-0.002 0.0295,-0.004 z m 0.0832,-0.0274 c -1.1e-4,-0.0127 -0.002,-0.0133 -0.008,-0.003 -0.006,0.0101 -0.009,0.009 -0.0124,-0.005 -0.004,-0.0145 -0.005,-0.014 -0.005,0.003 -6.4e-4,0.0125 0.004,0.0203 0.0125,0.0203 0.007,0 0.0135,-0.007 0.0134,-0.0158 z m -0.0179,-0.1648 c 0,-0.0602 -0.004,-0.0993 -0.009,-0.0993 -0.005,0 -0.009,0.0233 -0.009,0.0519 8e-5,0.0552 0.009,0.14674 0.0147,0.14674 0.002,0 0.003,-0.0447 0.003,-0.0993 z m -0.0113,-0.68404 c -0.001,-0.0931 -0.003,-0.0169 -0.003,0.16932 0,0.18624 10e-4,0.26244 0.003,0.16931 10e-4,-0.0931 10e-4,-0.24551 0,-0.33863 z"
     style="fill:#e9c46a;fill-opacity:1;stroke-width:0.0311265;stroke-linecap:round;stroke-linejoin:round" />
  <path
     id="path2434"
     d="m 371.85427,316.03394 v -4.11215 h 4.45695 4.45696 v 4.11215 4.11214 h -4.45696 -4.45695 z m 0.12401,-3.30121 0.004,-0.19795 h 4.07383 4.07384 v 0.80966 c 0,0.49563 0.009,0.80025 0.0236,0.78539 0.0141,-0.0145 0.0176,-0.35698 0.009,-0.84797 l -0.0147,-0.8237 h -4.10824 -4.10824 l 0.005,3.68433 0.005,3.68433 0.0167,-3.44808 c 0.009,-1.89644 0.0184,-3.53714 0.0204,-3.64601 z m 8.16881,1.45745 c -0.008,-0.0204 -0.0142,-0.0143 -0.0154,0.0154 -10e-4,0.0269 0.005,0.042 0.0134,0.0335 0.008,-0.008 0.009,-0.0305 0.002,-0.0489 z"
     style="fill:#e9c46a;fill-opacity:1;stroke-width:0.088039;stroke-linecap:round;stroke-linejoin:round" />
  <path
     id="path2436"
     d="m 371.85427,316.03394 v -4.11215 h 4.45695 4.45696 v 4.11215 4.11214 h -4.45696 -4.45695 z m 0.0993,-3.55024 c -0.0116,-0.0211 -0.0194,1.40413 -0.0173,3.16712 l 0.004,3.20543 0.0173,-3.16712 c 0.01,-1.74192 0.008,-3.18436 -0.004,-3.20543 z m 8.22266,0.90671 c -8.4e-4,-0.22476 -0.01,-0.52359 -0.0199,-0.66407 -0.0129,-0.18003 -0.0187,-0.0293 -0.0196,0.51083 -7.7e-4,0.4661 0.007,0.72622 0.0199,0.66407 0.0116,-0.0562 0.0204,-0.28606 0.0196,-0.51083 z"
     style="fill:#e9c46a;fill-opacity:1;stroke-width:0.088039;stroke-linecap:round;stroke-linejoin:round" />
  <path
     id="path2438"
     d="m 371.85427,316.03394 v -4.11215 h 4.45695 4.45696 v 4.11215 4.11214 h -4.45696 -4.45695 z m 0.0935,1.52609 c -0.007,-0.0176 -0.0129,-0.003 -0.0129,0.0319 0,0.0351 0.006,0.0495 0.0129,0.0319 0.007,-0.0176 0.007,-0.0463 0,-0.0638 z m 0.008,-4.98694 c -0.0108,-0.0562 -0.0189,1.0357 -0.018,2.42642 l 0.002,2.52859 0.018,-2.42642 c 0.01,-1.33453 0.009,-2.4724 -0.002,-2.52859 z m 8.2121,0.58905 c -0.008,-0.26602 -0.0196,-0.48919 -0.0264,-0.49592 -0.007,-0.007 -0.0109,0.26839 -0.009,0.61139 0.002,0.46072 0.009,0.59027 0.0264,0.49592 0.0129,-0.0702 0.017,-0.34536 0.009,-0.61139 z"
     style="fill:#e9c46a;fill-opacity:1;stroke-width:0.088039;stroke-linecap:round;stroke-linejoin:round" />
  <path
     id="path2440"
     d="m 371.85427,316.03394 v -4.11215 h 4.45695 4.45696 v 4.11215 4.11214 h -4.45696 -4.45695 z m 0.0958,-2.47112 c -0.004,-0.54435 -0.007,-0.099 -0.007,0.98972 0,1.0887 0.003,1.53408 0.007,0.98973 0.004,-0.54435 0.004,-1.4351 0,-1.97945 z m 8.22889,-0.17879 c 10e-4,-0.19276 -0.008,-0.31288 -0.0237,-0.31288 -0.0159,0 -0.0249,0.13715 -0.0238,0.36396 10e-4,0.22712 0.01,0.34476 0.0238,0.31288 0.0121,-0.0281 0.0228,-0.19188 0.0237,-0.36396 z"
     style="fill:#e9c46a;fill-opacity:1;stroke-width:0.088039;stroke-linecap:round;stroke-linejoin:round" />
  <path
     id="path2442"
     d="m 371.85427,316.03394 v -4.11215 h 4.45695 4.45696 v 4.11215 4.11214 h -4.45696 -4.45695 z m 0.0941,-1.05199 c -0.008,-0.0204 -0.0142,-0.0143 -0.0154,0.0154 -0.001,0.0269 0.005,0.042 0.0134,0.0335 0.008,-0.008 0.009,-0.0305 0.002,-0.049 z m 2.6e-4,-0.14158 c -0.006,-0.0249 -0.0122,-0.0107 -0.0127,0.0314 -5.2e-4,0.0421 0.005,0.0625 0.0118,0.0452 0.007,-0.0173 0.007,-0.0518 9.5e-4,-0.0766 z m 0.001,-0.40915 c -0.005,-0.0667 -0.01,-0.0121 -0.01,0.12132 0,0.13346 0.004,0.18805 0.01,0.12132 0.005,-0.0667 0.005,-0.17591 0,-0.24264 z m 8.22887,-1.02804 c 7.7e-4,-0.1475 -0.01,-0.28542 -0.0233,-0.30649 -0.0166,-0.0257 -0.0243,0.0796 -0.0234,0.31927 8.8e-4,0.22321 0.01,0.33838 0.0234,0.30649 0.0121,-0.0281 0.0226,-0.17176 0.0233,-0.31927 z m -8.229,0.058 c -0.006,-0.053 -0.0102,-0.0159 -0.0103,0.0824 -1.2e-4,0.0983 0.004,0.14169 0.01,0.0964 0.006,-0.0453 0.006,-0.1258 2.1e-4,-0.17879 z"
     style="fill:#e9c46a;fill-opacity:1;stroke-width:0.088039;stroke-linecap:round;stroke-linejoin:round" />
  <path
     id="path2444"
     d="m 371.85427,316.03394 v -4.11215 h 4.45695 4.45696 v 4.11215 4.11214 h -4.45696 -4.45695 z m 8.3143,-2.64638 c -0.008,-0.37737 -0.039,-0.36302 -0.0385,0.0177 2.3e-4,0.18551 0.009,0.30284 0.0222,0.28269 0.012,-0.0189 0.0193,-0.15415 0.0163,-0.30044 z m -8.21997,0.1502 c -0.006,-0.0248 -0.0122,-0.0107 -0.0127,0.0314 -5.2e-4,0.0421 0.005,0.0625 0.0118,0.0452 0.007,-0.0173 0.007,-0.0518 9.5e-4,-0.0766 z"
     style="fill:#e9c46a;fill-opacity:1;stroke-width:0.088039;stroke-linecap:round;stroke-linejoin:round" />
  <path
     id="path2446"
     d="m 371.85427,316.03394 v -4.11215 h 4.45695 4.45696 v 4.11215 4.11214 h -4.45696 -4.45695 z m 8.29425,-2.77762 c -0.005,-0.0808 -0.009,-0.0147 -0.009,0.14686 0,0.16155 0.004,0.22764 0.009,0.14687 0.005,-0.0808 0.005,-0.21295 0,-0.29373 z"
     style="fill:#e9c46a;fill-opacity:1;stroke-width:0.088039;stroke-linecap:round;stroke-linejoin:round" />
  <path
     id="path2448"
     d="m 371.85427,316.03394 v -4.11215 h 4.45695 4.45696 v 4.11215 4.11214 h -4.45696 -4.45695 z m 8.29398,-2.72654 c -0.006,-0.0527 -0.01,-0.01 -0.01,0.0958 0,0.10536 0.005,0.14846 0.01,0.0958 0.006,-0.0527 0.006,-0.13888 0,-0.19156 z"
     style="fill:#e9c46a;fill-opacity:1;stroke-width:0.088039;stroke-linecap:round;stroke-linejoin:round" />
  <path
     id="path2450"
     d="m 371.85427,316.03394 v -4.11215 h 4.45695 4.45696 v 4.11215 4.11214 h -4.45696 -4.45695 z m 8.2934,-2.68822 c -0.006,-0.0316 -0.0111,-0.006 -0.0111,0.0575 0,0.0632 0.005,0.0891 0.0111,0.0575 0.006,-0.0316 0.006,-0.0833 0,-0.11493 z"
     style="fill:#e9c46a;fill-opacity:1;stroke-width:0.088039;stroke-linecap:round;stroke-linejoin:round" />
  <path
     id="path2452"
     d="m 371.85427,316.03394 v -4.11215 h 4.45695 4.45696 v 4.11215 4.11214 h -4.45696 -4.45695 z m 8.29229,-2.66268 c -0.007,-0.0176 -0.0129,-0.003 -0.0129,0.0319 0,0.0351 0.006,0.0495 0.0129,0.0319 0.007,-0.0176 0.007,-0.0463 0,-0.0639 z"
     style="fill:#e9c46a;fill-opacity:1;stroke-width:0.088039;stroke-linecap:round;stroke-linejoin:round" />
  <path
     id="path2454"
     d="m 371.85427,316.03394 v -4.11215 h 4.45695 4.45696 v 4.11215 4.11214 h -4.45696 -4.45695 z"
     style="fill:#e9c46a;fill-opacity:1;stroke-width:0.088039;stroke-linecap:round;stroke-linejoin:round" />
  <path
     id="path2456"
     d="m 371.80319,332.78901 v -5.87449 h 4.48249 4.4825 v 5.87449 5.8745 h -4.4825 -4.48249 z"
     style="fill:#e9c46a;fill-opacity:1;stroke-width:0.088039;stroke-linecap:round;stroke-linejoin:round" />
  <path
     id="path2458"
     d="m 385.39115,332.80179 v -5.86173 h 10.26759 10.2676 v 0.14048 0.14048 H 395.8503 385.77427 l 0.006,0.55552 0.006,0.55552 0.007,-0.54275 c 0.005,-0.33241 0.0171,-0.54275 0.0325,-0.54275 0.0163,0 0.025,1.99707 0.025,5.70847 0,3.77904 -0.009,5.70848 -0.0255,5.70848 -0.0168,0 -0.0277,-1.69207 -0.032,-4.98694 l -0.007,-4.98693 -0.006,4.98693 -0.006,4.98694 h -0.19156 -0.19156 z m 0.48528,0.15324 v -5.70847 h 10.02495 10.02496 v 5.70847 5.70848 h -10.02496 -10.02495 z"
     style="fill:#e9c46a;fill-opacity:1;stroke-width:0.088039;stroke-linecap:round;stroke-linejoin:round" />
  <path
     id="path2460"
     d="m 385.39115,332.80179 v -5.86173 h 10.26759 10.2676 v 0.14048 0.14048 H 395.8503 385.77427 l 0.005,0.52998 0.005,0.52998 0.0138,-0.38312 c 0.0204,-0.56592 0.0414,4.85522 0.0266,6.85783 -0.0109,1.466 -0.0147,1.17737 -0.0257,-1.92836 l -0.0129,-3.65241 -0.006,4.7443 -0.006,4.74429 h -0.19156 -0.19156 z"
     style="fill:#e9c46a;fill-opacity:1;stroke-width:0.088039;stroke-linecap:round;stroke-linejoin:round" />
  <path
     id="path2462"
     d="m 385.39115,332.80179 v -5.86173 h 10.26759 10.2676 v 0.14048 0.14048 H 395.8503 385.77427 l 0.005,0.47889 c 0.005,0.47822 0.005,0.47843 0.0192,0.14687 0.0207,-0.48961 0.0415,4.90464 0.0266,6.90891 -0.0124,1.67231 -0.0132,1.63437 -0.0257,-1.26429 l -0.0129,-2.98833 -0.006,4.08022 -0.006,4.08022 h -0.19156 -0.19156 z"
     style="fill:#e9c46a;fill-opacity:1;stroke-width:0.088039;stroke-linecap:round;stroke-linejoin:round" />
  <path
     id="path2464"
     d="m 385.39115,332.80179 v -5.86173 h 10.26759 10.2676 v 0.14048 0.14048 H 395.8503 385.77427 l 0.005,0.40227 c 0.005,0.38461 0.006,0.39106 0.0206,0.14686 0.009,-0.14047 0.0185,0.76752 0.0221,2.01776 0.004,1.25025 0.009,2.56626 0.0113,2.92448 0.003,0.35822 -7.6e-4,1.35241 -0.008,2.20932 l -0.0126,1.55802 -0.0132,-2.32426 -0.0132,-2.32425 -0.006,3.41614 -0.006,3.41615 h -0.19156 -0.19156 z"
     style="fill:#e9c46a;fill-opacity:1;stroke-width:0.088039;stroke-linecap:round;stroke-linejoin:round" />
  <path
     id="path2466"
     d="m 385.28898,332.78901 c 0,-5.20474 0.004,-5.87449 0.0383,-5.87449 0.0339,0 0.0383,0.66975 0.0383,5.87449 0,5.20475 -0.004,5.8745 -0.0383,5.8745 -0.034,0 -0.0383,-0.66975 -0.0383,-5.8745 z"
     style="fill:#e9c46a;fill-opacity:1;stroke-width:0.088039;stroke-linecap:round;stroke-linejoin:round" />
  <path
     id="path2468"
     d="m 371.83921,345.52118 v -6.82683 h 4.44287 4.44286 v 6.82683 6.82684 h -4.44286 -4.44287 z"
     style="fill:#e9c46a;fill-opacity:1;stroke-width:0.249012;stroke-linecap:round;stroke-linejoin:round" />
  <path
     id="path2470"
     d="m 371.81973,363.24767 v -3.98444 h 4.3931 4.3931 v 3.98444 3.98444 h -4.3931 -4.3931 z"
     style="fill:#e9c46a;fill-opacity:1;stroke-width:0.704312;stroke-linecap:round;stroke-linejoin:round" />
  <path
     id="path2472"
     d="m 302.17292,380.83968 c -1.82832,-0.14997 -3.5652,-0.90887 -4.89115,-2.13713 -0.99783,-0.92431 -1.70408,-1.96945 -2.16927,-3.21016 -0.49214,-1.31259 -0.63397,-2.81694 -0.39758,-4.21701 0.36387,-2.15508 1.52997,-4.02667 3.32032,-5.32912 0.69507,-0.50565 1.57233,-0.93895 2.41968,-1.19515 2.00555,-0.60637 4.20134,-0.41618 6.07828,0.52647 1.16153,0.58336 2.24086,1.51093 3.00252,2.58034 0.49369,0.69318 0.84201,1.38459 1.11772,2.21867 0.69026,2.08817 0.49951,4.41307 -0.52187,6.36069 -1.53493,2.92687 -4.68744,4.67071 -7.95865,4.4024 z m 1.17751,-0.48266 c 1.30285,-0.0793 2.5359,-0.49114 3.64878,-1.21883 1.67455,-1.09496 2.84649,-2.76542 3.28424,-4.68127 0.13603,-0.59535 0.16366,-0.8686 0.16402,-1.62187 3.8e-4,-0.79802 -0.0447,-1.1831 -0.2207,-1.88708 -0.4981,-1.99186 -1.64358,-3.71726 -3.18823,-4.8023 -1.67848,-1.17904 -3.81553,-1.57392 -5.81065,-1.07369 -1.75367,0.4397 -3.27015,1.46536 -4.54787,3.07592 -0.45263,0.57054 -0.98968,1.51582 -1.22433,2.15498 -0.92933,2.53141 -0.2874,5.17728 1.79733,7.40819 1.01423,1.08535 2.17792,1.86426 3.41297,2.28447 0.67458,0.22952 1.3209,0.34219 2.19655,0.38293 0.0421,0.002 0.26169,-0.008 0.48789,-0.0215 z"
     style="fill:#e9c46a;fill-opacity:1;stroke-width:0.088039;stroke-linecap:round;stroke-linejoin:round" />
  <path
     id="path2474"
     d="M 89.812011,294.40575 C 57.814012,290.70257 29.840097,268.2692 19.186009,237.76801 c -3.303211,-9.45665 -4.589372,-17.28558 -4.620476,-28.12509 -0.03071,-10.70292 0.918297,-17.18615 3.881456,-26.51651 7.395894,-23.28808 25.459488,-43.1147 47.926524,-52.60419 l 5.200565,-2.19658 28.740562,0.006 28.74056,0.006 7.77817,3.7941 c 18.65074,9.09761 31.8084,22.33787 40.66726,40.92255 18.91983,39.69124 3.61002,88.45914 -34.65685,110.39598 -16.33045,9.36159 -34.4517,13.1048 -53.031769,10.9545 z M 103.2458,253.83709 c 0,-5.56445 0.1861,-6.71751 1.08417,-6.71751 2.24653,0 8.03183,-3.5853 10.72821,-6.64855 4.88491,-5.54955 6.44859,-14.20534 4.03466,-22.33392 -1.63462,-5.50436 -7.10919,-10.65939 -16.15461,-15.21171 -11.173035,-5.62308 -14.479473,-10.02311 -12.499072,-16.6331 0.874528,-2.9189 4.078181,-6.08242 6.868913,-6.78284 3.290269,-0.82581 10.451719,0.0913 13.945469,1.78593 1.89856,0.92088 3.66005,1.38023 3.97188,1.03577 0.47796,-0.52796 2.86962,-7.07475 2.86962,-7.85511 0,-0.70262 -7.81157,-3.67754 -10.78337,-4.10667 l -3.35876,-0.48502 v -5.93012 -5.93012 h -3.88909 -3.889086 v 6.19799 6.19799 l -3.632846,1.29028 c -7.656114,2.71921 -12.63061,10.27968 -12.63061,19.19659 0,8.96344 4.40768,14.61335 16.19824,20.76344 8.808252,4.59449 11.618742,6.9547 13.194372,11.08042 1.46835,3.84483 1.02894,7.29664 -1.39516,10.95971 -3.68543,5.56906 -13.024812,6.50876 -21.683879,2.18177 -2.429973,-1.21427 -4.496499,-2.20776 -4.592277,-2.20776 -0.371497,0 -2.428403,6.68487 -2.428403,7.89222 0,1.74767 5.795886,4.58675 11.618571,5.69131 l 4.644885,0.88112 v 6.2027 6.20271 h 3.889088 3.889085 z"
     style="fill:#264653;fill-opacity:1;stroke-width:3.44693;stroke-linecap:round;stroke-linejoin:round" />
  <path
     id="path2478"
     d="m 74.374302,127.32785 c 8.726817,-2.81826 17.587504,-4.01531 27.874998,-3.76582 9.00818,0.21846 15.99556,1.36024 23.75,3.88089 l 2.25,0.73138 -28.249998,6.3e-4 -28.25,6.2e-4 2.625,-0.84772 z"
     style="fill:#264653;fill-opacity:1;stroke-width:3.44693;stroke-linecap:round;stroke-linejoin:round" />
  <path
     id="path2480"
     d="m 74.874302,127.31671 c 8.311351,-2.69884 16.633788,-3.76261 27.494358,-3.51431 9.22209,0.21084 15.51483,1.18385 22.75564,3.51858 l 1.875,0.60457 h -26.999998 -27 z"
     style="fill:#264653;fill-opacity:1;stroke-width:0.861732;stroke-linecap:round;stroke-linejoin:round" />
  <path
     id="path2482"
     d="m 95.124302,294.71573 c -25.559527,-1.36827 -49.612687,-14.68247 -64.794085,-35.86561 -7.600534,-10.6053 -12.994172,-23.85256 -14.810115,-36.375 -0.982319,-6.77391 -1.092409,-17.31012 -0.255614,-24.46366 0.617501,-5.27886 1.876273,-10.60313 3.939095,-16.66134 4.189547,-12.30409 12.090576,-24.56241 21.817114,-33.84888 7.602238,-7.2583 15.848663,-12.69926 25.645065,-16.92055 2.383448,-1.02703 4.61479,-2.02025 4.95854,-2.20715 1.04492,-0.56813 7.654315,-2.37616 11.5,-3.14588 5.948375,-1.19056 8.22194,-1.37754 16.75,-1.37754 8.015808,0 10.706938,0.19233 15.910778,1.13709 4.22276,0.76665 11.83922,2.8736 11.83922,3.2751 0,0.11705 0.3384,0.21281 0.752,0.21281 0.93685,0 11.47885,5.24006 16.07293,7.98929 6.40324,3.83189 11.46445,7.82909 16.68274,13.17555 12.62458,12.93467 20.67958,29.22486 23.52939,47.58516 0.49387,3.18182 0.56396,4.60305 0.57335,11.625 0.008,6.33661 -0.0804,8.63678 -0.42746,11.06258 -0.59832,4.18197 -1.50705,8.55792 -2.58282,12.43742 -2.96767,10.70216 -8.82971,22.05597 -16.00549,31 -2.8595,3.56414 -8.97821,9.68527 -12.46964,12.47458 -16.70989,13.34956 -37.42825,20.02574 -58.624998,18.89103 z m 8.293548,-40.32768 c 0.0867,-6.74312 0.16361,-7.16293 1.31279,-7.16293 0.79525,0 4.49902,-1.85351 6.38747,-3.19655 5.20104,-3.69889 7.91158,-8.13579 8.89085,-14.55345 0.45527,-2.98368 0.45574,-4.50941 0.002,-7.5 -0.7113,-4.69105 -1.96808,-7.41744 -4.86358,-10.55079 -2.90473,-3.14336 -6.12758,-5.40772 -12.63602,-8.87803 -6.550618,-3.4928 -10.056888,-6.249 -11.53981,-9.07118 -0.66349,-1.2627 -0.722498,-1.58939 -0.722498,-4 0,-2.30208 0.07962,-2.79473 0.647235,-4.00476 0.951863,-2.02916 3.187035,-4.32078 5.16328,-5.29369 1.58957,-0.78254 1.732613,-0.80637 4.664673,-0.77699 3.76161,0.0377 7.26865,0.72433 10.63829,2.08289 1.354,0.5459 2.80524,0.99255 3.22497,0.99255 0.66657,0 0.82755,-0.14558 1.27197,-1.15027 1.06731,-2.41284 2.35746,-6.4971 2.19009,-6.93326 -0.33867,-0.88256 -7.59962,-3.61958 -11.05051,-4.16551 -0.9625,-0.15226 -2.00312,-0.32941 -2.3125,-0.39366 l -0.5625,-0.11683 v -5.87023 -5.87024 h -3.99563 -3.995633 l -0.06687,6.18109 -0.06687,6.18108 -2.579842,0.93032 c -2.90708,1.04833 -4.355103,1.82159 -6.170158,3.29492 -3.062812,2.48617 -5.50244,6.25202 -6.675642,10.30464 -0.492148,1.70003 -0.57407,2.55364 -0.574203,5.98295 -1.35e-4,3.4871 0.07459,4.24042 0.582738,5.875 1.116282,3.59077 3.172457,6.55696 6.363802,9.18029 2.640328,2.17038 4.28107,3.2194 9.682385,6.19049 5.853993,3.22011 7.880523,4.55383 9.730893,6.40418 2.6547,2.65471 4.06691,6.70313 3.50347,10.04352 -0.61705,3.65832 -3.04155,7.0307 -6.07514,8.4503 -5.439838,2.5456 -11.41655,1.85002 -19.702855,-2.29306 -1.815405,-0.90768 -2.473568,-1.132 -2.652368,-0.90399 -0.562017,0.7167 -2.30808,6.52446 -2.30808,7.67714 0,2.01413 5.69902,4.74196 12.799418,6.12643 1.762117,0.34358 3.259365,0.6247 3.327217,0.6247 0.06785,0 0.123365,2.8125 0.123365,6.25 v 6.25 h 3.98105 3.981053 z"
     style="fill:#264653;fill-opacity:1;stroke-width:0.861732;stroke-linecap:round;stroke-linejoin:round" />
</svg>
