<?xml version="1.0" encoding="UTF-8" standalone="no"?>
<svg
   xmlns:dc="http://purl.org/dc/elements/1.1/"
   xmlns:cc="http://creativecommons.org/ns#"
   xmlns:rdf="http://www.w3.org/1999/02/22-rdf-syntax-ns#"
   xmlns:svg="http://www.w3.org/2000/svg"
   xmlns="http://www.w3.org/2000/svg"
   xmlns:sodipodi="http://sodipodi.sourceforge.net/DTD/sodipodi-0.dtd"
   xmlns:inkscape="http://www.inkscape.org/namespaces/inkscape"
   inkscape:version="1.0 (4035a4fb49, 2020-05-01)"
   sodipodi:docname="landing1.svg"
   version="1.1"
   viewBox="0 0 629.33118 475.67134"
   height="475.67133"
   width="629.33118"
   data-name="Layer 1"
   id="b001403a-1e24-4603-98e8-0a03694cba74">
  <metadata
     id="metadata1300">
    <rdf:RDF>
      <cc:Work
         rdf:about="">
        <dc:format>image/svg+xml</dc:format>
        <dc:type
           rdf:resource="http://purl.org/dc/dcmitype/StillImage" />
        <dc:title></dc:title>
      </cc:Work>
    </rdf:RDF>
  </metadata>
  <defs
     id="defs1298" />
  <sodipodi:namedview
     inkscape:current-layer="b001403a-1e24-4603-98e8-0a03694cba74"
     inkscape:window-maximized="1"
     inkscape:window-y="-9"
     inkscape:window-x="-9"
     inkscape:cy="190.98021"
     inkscape:cx="386.81231"
     inkscape:zoom="0.78498678"
     showgrid="false"
     id="namedview1296"
     inkscape:window-height="1001"
     inkscape:window-width="1920"
     inkscape:pageshadow="2"
     inkscape:pageopacity="0"
     guidetolerance="10"
     gridtolerance="10"
     objecttolerance="10"
     borderopacity="1"
     bordercolor="#666666"
     pagecolor="#ffffff" />
  <path
     id="path1199"
     fill="#3f3d56"
     d="M 615.71975,1.4616859e-8 H 8.71972 A 8.72766,8.72766 0 0 0 0,8.72 v 411.31998 a 8.72766,8.72766 0 0 0 8.71972,8.72 h 607.00003 a 8.71242,8.71242 0 0 0 6.6303,-3.06 2.04507,2.04507 0 0 0 0.19,-0.24 8.16654,8.16654 0 0 0 1.25,-2.11005 8.50717,8.50717 0 0 0 0.6597,-3.31 V 8.72003 A 8.72953,8.72953 0 0 0 615.71975,1.4616859e-8 Z M 621.95995,420.04 a 6.17524,6.17524 0 0 1 -1.0303,3.42 6.44578,6.44578 0 0 1 -2.3598,2.12 6.1843,6.1843 0 0 1 -2.8501,0.69 H 8.71972 a 6.23758,6.23758 0 0 1 -6.23,-6.23 V 8.72003 a 6.23758,6.23758 0 0 1 6.23,-6.23 h 607.00003 a 6.23945,6.23945 0 0 1 6.2402,6.23 z" />
  <rect
     id="rect1201"
     fill="#3f3d56"
     height="2.49281"
     width="621.95679"
     y="34.949211"
     x="1.2426338" />
  <circle
     id="circle1203"
     fill="#3f3d56"
     r="7.4784398"
     cy="18.6961"
     cx="22.431553" />
  <circle
     id="circle1205"
     fill="#3f3d56"
     r="7.4784398"
     cy="18.6961"
     cx="43.932072" />
  <circle
     id="circle1207"
     fill="#3f3d56"
     r="7.4784398"
     cy="18.6961"
     cx="65.432556" />
  <path
     style="fill:#2a9d8f;fill-opacity:1;stroke-width:3.44693;stroke-linecap:round;stroke-linejoin:round;stroke-opacity:0.934673"
     id="path1209"
     fill="#f2f2f2"
     d="m 549.44532,215.67134 h -485 a 17.01916,17.01916 0 0 1 -17,-17 v -103 a 17.01917,17.01917 0 0 1 17,-17 h 485 a 17.01917,17.01917 0 0 1 17,17 v 103 a 17.01916,17.01916 0 0 1 -17,17 z m -485,-135 a 15.017,15.017 0 0 0 -15,15 v 103 a 15.017,15.017 0 0 0 15,15 h 485 a 15.017,15.017 0 0 0 15,-15 v -103 a 15.017,15.017 0 0 0 -15,-15 z" />
  <path
     style="fill:#2a9d8f;fill-opacity:1;stroke-width:3.44693;stroke-linecap:round;stroke-linejoin:round;stroke-opacity:0.934673"
     id="path1211"
     fill="#f2f2f2"
     d="m 171.44532,401.67134 h -107 a 17.01916,17.01916 0 0 1 -17,-17 v -76 a 17.01917,17.01917 0 0 1 17,-17 h 107 a 17.01917,17.01917 0 0 1 17,17 v 76 a 17.01916,17.01916 0 0 1 -17,17 z m -107,-108 a 15.017,15.017 0 0 0 -15,15 v 76 a 15.017,15.017 0 0 0 15,15 h 107 a 15.017,15.017 0 0 0 15,-15 v -76 a 15.017,15.017 0 0 0 -15,-15 z" />
  <path
     style="fill:#2a9d8f;fill-opacity:1;stroke-width:3.44693;stroke-linecap:round;stroke-linejoin:round;stroke-opacity:0.934673"
     id="path1213"
     fill="#f2f2f2"
     d="m 549.44532,401.67134 h -107 a 17.01916,17.01916 0 0 1 -17,-17 v -76 a 17.01917,17.01917 0 0 1 17,-17 h 107 a 17.01917,17.01917 0 0 1 17,17 v 76 a 17.01916,17.01916 0 0 1 -17,17 z m -107,-108 a 15.017,15.017 0 0 0 -15,15 v 76 a 15.017,15.017 0 0 0 15,15 h 107 a 15.017,15.017 0 0 0 15,-15 v -76 a 15.017,15.017 0 0 0 -15,-15 z" />
  <path
     style="fill:#2a9d8f;fill-opacity:1;stroke-width:3.44693;stroke-linecap:round;stroke-linejoin:round;stroke-opacity:0.934673"
     id="path1215"
     fill="#f2f2f2"
     d="m 368.44532,401.67134 h -107 a 17.01916,17.01916 0 0 1 -17,-17 v -76 a 17.01917,17.01917 0 0 1 17,-17 h 107 a 17.01917,17.01917 0 0 1 17,17 v 76 a 17.01916,17.01916 0 0 1 -17,17 z m -107,-108 a 15.017,15.017 0 0 0 -15,15 v 76 a 15.017,15.017 0 0 0 15,15 h 107 a 15.017,15.017 0 0 0 15,-15 v -76 a 15.017,15.017 0 0 0 -15,-15 z" />
  <rect
     style="fill:#2a9d8f;fill-opacity:1;stroke-width:3.44693;stroke-linecap:round;stroke-linejoin:round;stroke-opacity:0.934673"
     id="rect1217"
     fill="#f2f2f2"
     transform="rotate(-76.25179)"
     height="527.39703"
     width="1.9997"
     y="71.677368"
     x="-70.282791" />
  <rect
     style="fill:#2a9d8f;fill-opacity:1;stroke-width:3.44693;stroke-linecap:round;stroke-linejoin:round;stroke-opacity:0.934673"
     id="rect1219"
     fill="#f2f2f2"
     transform="rotate(-13.91411)"
     height="2.0000899"
     width="522.90198"
     y="215.66319"
     x="1.0978364" />
  <path
     id="path1221"
     fill="#ffffff"
     d="m 569.44541,250.17112 h -485 a 16.51867,16.51867 0 0 1 -16.5,-16.5 v -103 a 16.51866,16.51866 0 0 1 16.5,-16.5 h 485 a 16.519,16.519 0 0 1 16.5,16.5 v 103 a 16.519,16.519 0 0 1 -16.5,16.5 z" />
  <rect
     style="fill:#2a9d8f;fill-opacity:1;stroke-width:3.44695;stroke-linecap:round;stroke-linejoin:round;stroke-opacity:0.934673"
     id="rect1223"
     fill="#f2f2f2"
     transform="rotate(-52.043257)"
     height="162.54875"
     width="2.000072"
     y="380.20172"
     x="-81.060753" />
  <rect
     style="fill:#2a9d8f;fill-opacity:1;stroke-width:3.44693;stroke-linecap:round;stroke-linejoin:round;stroke-opacity:0.934673"
     id="rect1225"
     fill="#f2f2f2"
     transform="rotate(-38.66636)"
     height="1.99991"
     width="161.99326"
     y="467.88556"
     x="-51.337002" />
  <rect
     style="fill:#2a9d8f;fill-opacity:1;stroke-width:3.44695;stroke-linecap:round;stroke-linejoin:round;stroke-opacity:0.934673"
     id="rect1227"
     fill="#f2f2f2"
     transform="rotate(-52.043257)"
     height="162.54875"
     width="2.000072"
     y="224.87187"
     x="-202.23" />
  <rect
     style="fill:#2a9d8f;fill-opacity:1;stroke-width:3.44693;stroke-linecap:round;stroke-linejoin:round;stroke-opacity:0.934673"
     id="rect1229"
     fill="#f2f2f2"
     transform="rotate(-38.66636)"
     height="1.99991"
     width="161.99326"
     y="344.80304"
     x="-205.15408" />
  <rect
     style="fill:#2a9d8f;fill-opacity:1;stroke-width:3.44695;stroke-linecap:round;stroke-linejoin:round;stroke-opacity:0.934673"
     id="rect1231"
     fill="#f2f2f2"
     transform="rotate(-52.043257)"
     height="162.54875"
     width="2.000072"
     y="522.91595"
     x="30.267326" />
  <rect
     style="fill:#2a9d8f;fill-opacity:1;stroke-width:3.44693;stroke-linecap:round;stroke-linejoin:round;stroke-opacity:0.934673"
     id="rect1233"
     fill="#f2f2f2"
     transform="rotate(-38.66636)"
     height="1.99991"
     width="161.99326"
     y="580.9715"
     x="89.98732" />
  <path
     style="fill:#264653;fill-opacity:1;stroke-width:3.44693;stroke-linecap:round;stroke-linejoin:round;stroke-opacity:0.934673"
     id="path1235"
     fill="#6c63ff"
     d="m 383.44532,474.17134 h -107 a 16.51867,16.51867 0 0 1 -16.5,-16.5 v -76 a 16.51868,16.51868 0 0 1 16.5,-16.5 h 107 a 16.51867,16.51867 0 0 1 16.5,16.5 v 76 a 16.51866,16.51866 0 0 1 -16.5,16.5 z" />
  <path
     style="fill:#2a9d8f;fill-opacity:1;stroke-width:3.44693;stroke-linecap:round;stroke-linejoin:round;stroke-opacity:0.934673"
     id="path1237"
     fill="#ccc"
     d="m 439.33115,475.67134 h -219 a 1,1 0 0 1 0,-2 h 219 a 1,1 0 0 1 0,2 z" />
  <path
     id="path1241"
     fill="#ffffff"
     d="m 343.89808,414.17134 h -28 a 8,8 0 0 1 0,-16 h 28 a 8,8 0 0 1 0,16 z" />
  <path
     id="path1243"
     fill="#ffffff"
     d="m 360.44532,441.17134 h -61 a 8,8 0 0 1 0,-16 h 61 a 8,8 0 0 1 0,16 z" />
  <path
     style="fill:#264653;fill-opacity:1;stroke-width:3.44693;stroke-linecap:round;stroke-linejoin:round;stroke-opacity:0.934673"
     id="path1245"
     fill="#6c63ff"
     d="m 188.44532,416.17134 h -107 a 16.51867,16.51867 0 0 1 -16.5,-16.5 v -76 a 16.51868,16.51868 0 0 1 16.5,-16.5 h 107 a 16.51867,16.51867 0 0 1 16.5,16.5 v 76 a 16.51866,16.51866 0 0 1 -16.5,16.5 z" />
  <path
     id="path1247"
     fill="#ffffff"
     d="m 148.89808,356.17134 h -28 a 8,8 0 0 1 0,-16 h 28 a 8,8 0 0 1 0,16 z" />
  <path
     id="path1249"
     fill="#ffffff"
     d="m 165.44532,383.17134 h -61 a 8,8 0 1 1 0,-16 h 61 a 8,8 0 0 1 0,16 z" />
  <path
     style="fill:#2a9d8f;fill-opacity:1;stroke-width:3.44693;stroke-linecap:round;stroke-linejoin:round;stroke-opacity:0.934673"
     id="path1251"
     fill="#e6e6e6"
     d="m 572.44532,445.17134 h -107 a 16.51867,16.51867 0 0 1 -16.5,-16.5 v -76 a 16.51868,16.51868 0 0 1 16.5,-16.5 h 107 a 16.51867,16.51867 0 0 1 16.5,16.5 v 76 a 16.51866,16.51866 0 0 1 -16.5,16.5 z" />
  <path
     id="path1253"
     fill="#ffffff"
     d="m 532.89808,385.17134 h -28 a 8,8 0 0 1 0,-16 h 28 a 8,8 0 0 1 0,16 z" />
  <path
     id="path1255"
     fill="#ffffff"
     d="m 549.44532,412.17134 h -61 a 8,8 0 0 1 0,-16 h 61 a 8,8 0 0 1 0,16 z" />
  <path
     style="fill:#2a9d8f;fill-opacity:1;stroke-width:3.44693;stroke-linecap:round;stroke-linejoin:round;stroke-opacity:0.934673"
     id="path1287"
     fill="#ccc"
     d="m 628.33115,446.67134 h -219 a 1,1 0 0 1 0,-2 h 219 a 1,1 0 0 1 0,2 z" />
  <path
     style="fill:#264653;fill-opacity:1;stroke-width:3.44693;stroke-linecap:round;stroke-linejoin:round;stroke-opacity:0.934673"
     id="path1289"
     fill="#6c63ff"
     d="m 435.71534,248.40667 v 1.26468 H 222.01515 v -1.3235 l 1.15039,-1.62749 67.75,-95.6471 a 3.3846,3.3846 0 0 1 5.48974,0 l 45.43018,64.13727 32.33984,-45.25486 a 3.38541,3.38541 0 0 1 5.48,0 l 54.91016,76.83336 z" />
  <circle
     style="fill:#264653;fill-opacity:1;stroke-width:3.44693;stroke-linecap:round;stroke-linejoin:round;stroke-opacity:0.934673"
     id="circle1291"
     fill="#6c63ff"
     r="24.873329"
     cy="159.89522"
     cx="221.57199" />
  <path
     id="path1293"
     fill="#3f3d56"
     d="m 569.44532,250.67134 h -485 a 17.01916,17.01916 0 0 1 -17,-17 v -103 a 17.01917,17.01917 0 0 1 17,-17 h 485 a 17.01917,17.01917 0 0 1 17,17 v 103 a 17.01916,17.01916 0 0 1 -17,17 z m -485,-135 a 15.017,15.017 0 0 0 -15,15 v 103 a 15.017,15.017 0 0 0 15,15 h 485 a 15.017,15.017 0 0 0 15,-15 v -103 a 15.017,15.017 0 0 0 -15,-15 z" />
</svg>
