<?xml version="1.0" encoding="UTF-8" standalone="no"?>
<svg
   xmlns:dc="http://purl.org/dc/elements/1.1/"
   xmlns:cc="http://creativecommons.org/ns#"
   xmlns:rdf="http://www.w3.org/1999/02/22-rdf-syntax-ns#"
   xmlns:svg="http://www.w3.org/2000/svg"
   xmlns="http://www.w3.org/2000/svg"
   xmlns:sodipodi="http://sodipodi.sourceforge.net/DTD/sodipodi-0.dtd"
   xmlns:inkscape="http://www.inkscape.org/namespaces/inkscape"
   inkscape:version="1.0 (4035a4fb49, 2020-05-01)"
   sodipodi:docname="landing2.svg"
   version="1.1"
   viewBox="0 0 624.44975 482.02931"
   height="482.0293"
   width="624.44977"
   data-name="Layer 1"
   id="aee208a0-d3af-4f9e-8f7e-ec9443f0f7b7">
  <metadata
     id="metadata2009">
    <rdf:RDF>
      <cc:Work
         rdf:about="">
        <dc:format>image/svg+xml</dc:format>
        <dc:type
           rdf:resource="http://purl.org/dc/dcmitype/StillImage" />
        <dc:title></dc:title>
      </cc:Work>
    </rdf:RDF>
  </metadata>
  <defs
     id="defs2007" />
  <sodipodi:namedview
     inkscape:current-layer="aee208a0-d3af-4f9e-8f7e-ec9443f0f7b7"
     inkscape:window-maximized="1"
     inkscape:window-y="-9"
     inkscape:window-x="-9"
     inkscape:cy="265.01874"
     inkscape:cx="223.17405"
     inkscape:zoom="0.95394392"
     showgrid="false"
     id="namedview2005"
     inkscape:window-height="1001"
     inkscape:window-width="1920"
     inkscape:pageshadow="2"
     inkscape:pageopacity="0"
     guidetolerance="10"
     gridtolerance="10"
     objecttolerance="10"
     borderopacity="1"
     bordercolor="#666666"
     pagecolor="#ffffff" />
  <path
     id="path1942"
     fill="#ffffff"
     d="m 312.9602,54.334917 -4.26947,-0.0238 q -2.03345,-1.27134 -4.08612,-2.51286 c -0.84712,-0.53471 -1.70412,-1.04952 -2.56155,-1.57434 Q 280.80027,37.249957 259.29181,25.334587 237.80295,13.409367 216.09795,2.5829373 a 1.78937,1.78937 0 0 1 -1.02862,-2.04580997 0.51534,0.51534 0 0 1 0.0711,-0.14957 c 0.20183,-0.37889 0.65291,-0.5364 1.31127,-0.21271 1.77484,0.88993997 3.55993,1.77992997 5.33466,2.68987997 q 21.76425,11.0117097 43.3417,23.1225397 21.56257,12.10564 42.87944,25.27995 c 0.29879,0.18167 0.598,0.37335 0.89681,0.555 1.3552,0.83761 2.70059,1.67515 4.05584,2.5127 z" />
  <path
     id="path1944"
     fill="#ffffff"
     d="m 368.00963,54.642507 -2.64009,-0.0147 c -0.59545,-0.8333 -1.18065,-1.6666 -1.7761,-2.5 Q 342.60812,22.700067 321.63159,-6.7276227 287.28013,-54.905283 252.94917,-103.08285 a 1.70041,1.70041 0 0 1 -0.297,-0.58168 c -0.19573,-0.71113 0.32663,-1.1282 0.99615,-1.05445 a 2.0056,2.0056 0 0 1 1.395,0.88781 q 19.25925,27.017997 38.50885,54.015997 34.17263,47.9367003 68.33556,95.86329 c 1.44865,2.02815 2.89724,4.06624 4.34589,6.09439 0.59533,0.83341 1.19082,1.66676 1.77601,2.5 z" />
  <path
     id="path1946"
     fill="#ffffff"
     d="m 426.8262,39.310927 c -0.13473,4.44933 -0.42922,8.82776 -0.81381,13.16564 q -0.11169,1.24443 -0.22387,2.48878 l -2.77,-0.0155 c 0.0847,-0.82949 0.16943,-1.65905 0.24389,-2.48866 0.58532,-6.26685 1.00062,-12.60459 1.057,-19.11439 a 266.65605,266.65605 0 0 0 -5.24956,-53.75012 334.665,334.665 0 0 0 -16.25856,-55.84172 383.49231,383.49231 0 0 0 -26.60134,-55.249527 1.47569,1.47569 0 0 1 -0.24452,-0.98136 c 0.11428,-0.78941 1.16541,-1.02353 1.95124,-0.26913 a 2.29258,2.29258 0 0 1 0.3971,0.50222 q 1.91668,3.29577 3.76342,6.61116 a 383.2281,383.2281 0 0 1 25.46063,55.443107 333.08069,333.08069 0 0 1 15.15748,55.9256 263.07433,263.07433 0 0 1 4.1309,53.5739 z" />
  <path
     id="path1948"
     fill="#3f3d56"
     d="m 615.71972,53.269307 h -607 A 8.72766,8.72766 0 0 0 0,61.989307 V 473.30931 a 8.72766,8.72766 0 0 0 8.71972,8.72 h 607 a 8.71242,8.71242 0 0 0 6.63037,-3.06 2.04307,2.04307 0 0 0 0.18994,-0.24 8.1662,8.1662 0 0 0 1.25,-2.11 8.50708,8.50708 0 0 0 0.65967,-3.31 V 61.989367 a 8.72954,8.72954 0 0 0 -8.72998,-8.72006 z m 6.24024,420.040003 a 6.17532,6.17532 0 0 1 -1.03028,3.42 6.44578,6.44578 0 0 1 -2.35986,2.12 6.1843,6.1843 0 0 1 -2.8501,0.69 h -607 a 6.23757,6.23757 0 0 1 -6.23,-6.23 V 61.989367 a 6.23757,6.23757 0 0 1 6.23,-6.23 h 607 a 6.23945,6.23945 0 0 1 6.24024,6.23 z" />
  <rect
     id="rect1950"
     fill="#3f3d56"
     height="2.49281"
     width="621.95679"
     y="88.218513"
     x="1.24265" />
  <circle
     id="circle1952"
     fill="#3f3d56"
     r="7.4784398"
     cy="71.965401"
     cx="22.431549" />
  <circle
     id="circle1954"
     fill="#3f3d56"
     r="7.4784398"
     cy="71.965401"
     cx="43.93206" />
  <circle
     id="circle1956"
     fill="#3f3d56"
     r="7.4784398"
     cy="71.965401"
     cx="65.432571" />
  <path
     id="path1958"
     fill="#3f3d56"
     d="m 468.31934,145.92126 h -312 a 13,13 0 0 1 0,-26 h 312 a 13,13 0 0 1 0,26 z m -312,-24 a 11,11 0 0 0 0,22 h 312 a 11,11 0 0 0 0,-22 z" />
  <path
     id="path1960"
     fill="#6c63ff"
     d="m 182.22484,298.53908 h -120 a 17.01917,17.01917 0 0 1 -17,-17 v -56 a 17.01917,17.01917 0 0 1 17,-17 h 120 a 17.01917,17.01917 0 0 1 17,17 v 56 a 17.01917,17.01917 0 0 1 -17,17 z" />
  <path
     id="path1962"
     fill="#6c63ff"
     d="m 372.22495,298.53908 h -120 a 17.01919,17.01919 0 0 1 -17.00012,-17 v -56 a 17.01919,17.01919 0 0 1 17.00012,-17 h 120 a 17.01917,17.01917 0 0 1 17,17 v 56 a 17.01917,17.01917 0 0 1 -17,17 z" />
  <path
     id="path1964"
     fill="#6c63ff"
     d="m 562.22495,298.53908 h -120 a 17.01917,17.01917 0 0 1 -17,-17 v -56 a 17.01917,17.01917 0 0 1 17,-17 h 120 a 17.01917,17.01917 0 0 1 17,17 v 56 a 17.01917,17.01917 0 0 1 -17,17 z" />
  <path
     id="path1966"
     fill="#6c63ff"
     d="m 182.22484,416.53908 h -120 a 17.01917,17.01917 0 0 1 -17,-17 v -56 a 17.01917,17.01917 0 0 1 17,-17 h 120 a 17.01917,17.01917 0 0 1 17,17 v 56 a 17.01917,17.01917 0 0 1 -17,17 z" />
  <path
     id="path1968"
     fill="#6c63ff"
     d="m 372.22495,416.53908 h -120 a 17.01919,17.01919 0 0 1 -17.00012,-17 v -56 a 17.01919,17.01919 0 0 1 17.00012,-17 h 120 a 17.01917,17.01917 0 0 1 17,17 v 56 a 17.01917,17.01917 0 0 1 -17,17 z" />
  <path
     id="path1970"
     fill="#6c63ff"
     d="m 562.22495,416.53908 h -120 a 17.01917,17.01917 0 0 1 -17,-17 v -56 a 17.01917,17.01917 0 0 1 17,-17 h 120 a 17.01917,17.01917 0 0 1 17,17 v 56 a 17.01917,17.01917 0 0 1 -17,17 z" />
  <path
     id="path2572"
     d="m 55.353263,414.34463 c -1.799354,-0.78313 -4.629709,-3.20354 -6.289678,-5.37869 l -3.018125,-3.95482 -0.319157,-31.86945 c -0.307424,-30.69789 -0.237252,-32.03865 1.908867,-36.47194 1.328521,-2.74435 3.785047,-5.57067 6.084695,-7.00064 l 3.856671,-2.39816 63.420914,-0.28787 63.42092,-0.28788 4.6559,2.38444 c 9.12709,4.67429 8.93069,3.79432 9.27474,41.55414 l 0.30302,33.25418 -2.42451,3.59774 c -1.33349,1.97875 -4.01616,4.67034 -5.96151,5.98131 l -3.53699,2.38357 -64.0521,-0.041 c -51.59077,-0.0331 -64.688585,-0.31804 -67.323657,-1.4649 z"
     style="fill:#2a9d8f;stroke-width:3.61335;stroke-linecap:round;stroke-linejoin:round;stroke-opacity:0.934673" />
  <path
     id="path2574"
     d="m 57.438376,297.31854 c -4.268849,-1.25814 -10.57328,-8.28428 -11.397691,-12.70246 -0.356061,-1.9082 -0.500648,-17.23388 -0.321304,-34.05708 0.310464,-29.12292 0.43109,-30.72924 2.519025,-33.54495 1.20612,-1.62652 3.752442,-4.0187 5.658491,-5.31595 l 3.465545,-2.35863 h 64.433518 c 63.68672,0 64.4793,0.0257 68.38372,2.22014 2.17261,1.22108 4.96838,4.03176 6.21284,6.24596 2.20394,3.92139 2.25474,4.87677 1.95807,36.82828 -0.30115,32.43339 -0.33205,32.84097 -2.74586,36.22518 -5.24408,7.35234 -2.13802,7.03979 -71.98658,7.24358 -35.970649,0.10495 -64.302228,-0.23071 -66.179774,-0.78407 z"
     style="fill:#2a9d8f;stroke-width:3.61335;stroke-linecap:round;stroke-linejoin:round;stroke-opacity:0.934673" />
  <path
     id="path2576"
     d="m 247.31515,296.88518 c -5.28104,-1.88788 -9.5187,-6.54267 -11.01491,-12.09917 -0.75693,-2.81104 -1.0476,-14.55649 -0.83767,-33.84808 0.30026,-27.59101 0.46379,-29.78545 2.47474,-33.20866 1.18428,-2.01598 3.7306,-4.7284 5.65849,-6.0276 l 3.50526,-2.3622 h 64.41782 c 71.81027,0 69.16117,-0.25719 74.23319,7.20698 l 2.55669,3.7625 v 33.14659 c 0,32.65316 -0.0351,33.19876 -2.36219,36.65184 -1.29921,1.92789 -4.01163,4.47421 -6.02761,5.65849 -3.57382,2.09943 -5.22396,2.15904 -66.03805,2.38576 -51.86494,0.19334 -63.07904,-0.02 -66.56576,-1.26645 z"
     style="fill:#2a9d8f;stroke-width:3.61335;stroke-linecap:round;stroke-linejoin:round;stroke-opacity:0.934673" />
  <path
     id="path2578"
     d="m 245.03482,414.16126 c -8.92549,-4.40176 -9.67318,-7.59976 -9.72887,-41.61217 -0.0284,-17.36173 0.40098,-29.87661 1.1236,-32.74638 1.56395,-6.21102 7.47225,-11.61189 13.68675,-12.51128 2.49524,-0.36112 32.21651,-0.51346 66.04725,-0.33854 60.51857,0.31292 61.55816,0.35341 64.4692,2.51099 1.62732,1.20612 4.03833,3.77943 5.35781,5.71847 2.39357,3.51748 2.39836,3.60223 2.09656,37.11754 -0.29562,32.82827 -0.35565,33.66654 -2.64048,36.86969 -4.90435,6.87551 -2.79025,6.6835 -73.29658,6.65712 -55.74504,-0.0209 -64.20627,-0.23083 -67.11524,-1.66544 z"
     style="fill:#2a9d8f;stroke-width:3.61335;stroke-linecap:round;stroke-linejoin:round;stroke-opacity:0.934673" />
  <path
     id="path2580"
     d="m 437.21645,296.91417 c -4.77659,-1.70309 -8.45719,-4.9361 -10.08019,-8.85437 -0.80711,-1.94855 -1.08002,-13.17201 -0.87049,-35.80004 0.2979,-32.17352 0.3611,-33.04 2.64319,-36.2393 4.90584,-6.87761 2.73015,-6.68099 73.92776,-6.68099 h 64.41781 l 3.50526,2.3622 c 1.92789,1.2992 4.47422,4.01162 5.65849,6.0276 2.00595,3.41469 2.17605,5.63733 2.48677,32.49311 0.18344,15.85523 0.0311,30.86926 -0.33854,33.3645 -0.85552,5.77519 -6.22334,11.93846 -11.87146,13.63068 -6.36626,1.90738 -124.05155,1.63162 -129.4786,-0.30339 z"
     style="fill:#2a9d8f;stroke-width:3.61335;stroke-linecap:round;stroke-linejoin:round;stroke-opacity:0.934673" />
  <path
     id="path2582"
     d="m 434.77916,413.98489 c -1.82758,-0.99182 -4.42207,-3.20617 -5.76553,-4.92079 -2.42662,-3.09701 -2.44464,-3.3382 -2.74515,-36.73685 -0.30193,-33.55691 -0.29802,-33.6261 2.10502,-37.24129 1.32413,-1.99205 4.50849,-4.68329 7.07636,-5.98054 l 4.66885,-2.35863 61.36431,0.006 c 38.25027,0.004 62.80613,0.40633 65.19214,1.06906 5.39296,1.49793 11.04146,8.04424 11.89135,13.78146 0.36964,2.49524 0.52198,17.50927 0.33854,33.3645 -0.30774,26.59866 -0.49565,29.10291 -2.43009,32.38709 -1.15311,1.95767 -3.4281,4.55216 -5.05555,5.76554 -2.92555,2.18119 -3.69593,2.20874 -68.13818,2.43702 -59.925,0.21227 -65.44704,0.0855 -68.50207,-1.57242 z"
     style="fill:#2a9d8f;stroke-width:3.61335;stroke-linecap:round;stroke-linejoin:round;stroke-opacity:0.934673" />
</svg>
