<svg xmlns="http://www.w3.org/2000/svg" width="127" height="91.213" viewBox="0 0 127 91.213">
  <g id="Groupe_3" data-name="Groupe 3" transform="translate(-1466.143 -929)">
    <rect id="Rectangle_12" data-name="Rectangle 12" width="127" height="17" rx="5" transform="translate(1466.143 929)" fill="#fff"/>
    <circle id="Ellipse_10" data-name="Ellipse 10" cx="3.5" cy="3.5" r="3.5" transform="translate(1476.143 934)" fill="#3b735f"/>
    <circle id="Ellipse_11" data-name="Ellipse 11" cx="3.5" cy="3.5" r="3.5" transform="translate(1486.143 934)" fill="#3b735f"/>
    <circle id="Ellipse_12" data-name="Ellipse 12" cx="3.5" cy="3.5" r="3.5" transform="translate(1496.143 934)" fill="#3b735f"/>
    <path id="path2001" d="M73.836,75.343l5.26-30.39L87.131,45l3.8,21.72L102.278,44.9h8.181L105.1,75.683l-6.234-.146L103.3,53.768,91.709,75.586l-4.237-.049L83.528,52.794,80.216,75.586Z" transform="translate(1407.725 915.618)" fill="#fff"/>
    <path id="path2004" d="M122.93,52.5c-4.93-.009-10.326,3.183-10.085,6.964l5.893.049c1.283-4.27,8.02-2.987,5.8,2.192-21.88-1.267-14.357,21.163-1.558,11.931a4.268,4.268,0,0,1,.535,2.045h5.649c-.771-5.2.438-10.666,1.559-16.12-.4-5.109-3.955-7.053-7.789-7.061Zm1.02,13.052c1.174,6.375-8.839,7.693-7.4,2.873C117.667,65.178,120.1,65.647,123.95,65.554Z" transform="translate(1407.725 915.618)" fill="#fff"/>
    <path id="path2009" d="M136.9,52.843h5.942c-5,28.336-2.248,32.5-15.439,31.655l.439-4.675C134.377,80.922,133.038,76.593,136.9,52.843Z" transform="translate(1407.725 915.618)" fill="#fff"/>
    <path id="path2012" d="M169.583,54.109l-5.942-.1c-.261-6.863-10.037-4.456-9.624-.385.556,5.485,11.89,2.352,13.423,12.561C168.647,76.7,145.5,81.951,144.6,65.943h6.136c1.237,11.573,18.58.587,5.4-3.183C152,61.577,146.9,57.382,147.716,52.7c2.76-12.056,23.086-9.882,21.867,1.412Z" transform="translate(1407.725 915.618)" fill="#fff"/>
    <circle id="path2031" cx="3.019" cy="3.019" r="3.019" transform="translate(1545.506 959.5)" fill="#e4bd4d" opacity="0.997" style="isolation: isolate"/>
    <text id="WEB" transform="translate(1482.628 1004.301)" fill="#fff" font-size="12" font-family="SegoeUI, Segoe UI" letter-spacing="0.396em"><tspan x="0" y="0">WEB</tspan></text>
    <text id="AGENCY" transform="translate(1508.725 1017.213)" fill="#fff" font-size="12" font-family="SegoeUI, Segoe UI" letter-spacing="0.396em"><tspan x="0" y="0">AGENCY</tspan></text>
    <rect id="Rectangle_13" data-name="Rectangle 13" width="4" height="78" rx="2" transform="translate(1466.143 940)" fill="#fff"/>
    <rect id="Rectangle_14" data-name="Rectangle 14" width="4" height="18" rx="2" transform="translate(1589.143 938)" fill="#fff"/>
  </g>
</svg>
