<svg xmlns="http://www.w3.org/2000/svg" width="127" height="91.213" viewBox="0 0 127 91.213">
  <g id="Groupe_4" data-name="Groupe 4" transform="translate(-1320.143 -909)">
    <rect id="Rectangle_6" data-name="Rectangle 6" width="127" height="17" rx="5" transform="translate(1320.143 909)" fill="#4a5d66"/>
    <circle id="Ellipse_7" data-name="Ellipse 7" cx="3.5" cy="3.5" r="3.5" transform="translate(1330.143 914)" fill="#fff"/>
    <circle id="Ellipse_8" data-name="Ellipse 8" cx="3.5" cy="3.5" r="3.5" transform="translate(1340.143 914)" fill="#fff"/>
    <circle id="Ellipse_9" data-name="Ellipse 9" cx="3.5" cy="3.5" r="3.5" transform="translate(1350.143 914)" fill="#fff"/>
    <path id="path2001" d="M73.836,75.343l5.26-30.39L87.131,45l3.8,21.72L102.278,44.9h8.181L105.1,75.683l-6.234-.146L103.3,53.768,91.709,75.586l-4.237-.049L83.528,52.794,80.216,75.586Z" transform="translate(1261.725 895.618)" fill="#4a5d66"/>
    <path id="path2004" d="M122.93,52.5c-4.93-.009-10.326,3.183-10.085,6.964l5.893.049c1.283-4.27,8.02-2.987,5.8,2.192-21.88-1.267-14.357,21.163-1.558,11.931a4.268,4.268,0,0,1,.535,2.045h5.649c-.771-5.2.438-10.666,1.559-16.12-.4-5.109-3.955-7.053-7.789-7.061Zm1.02,13.052c1.174,6.375-8.839,7.693-7.4,2.873C117.667,65.178,120.1,65.647,123.95,65.554Z" transform="translate(1261.725 895.618)" fill="#4a5d66"/>
    <path id="path2009" d="M136.9,52.843h5.942c-5,28.336-2.248,32.5-15.439,31.655l.439-4.675C134.377,80.922,133.038,76.593,136.9,52.843Z" transform="translate(1261.725 895.618)" fill="#4a5d66"/>
    <path id="path2012" d="M169.583,54.109l-5.942-.1c-.261-6.863-10.037-4.456-9.624-.385.556,5.485,11.89,2.352,13.423,12.561C168.647,76.7,145.5,81.951,144.6,65.943h6.136c1.237,11.573,18.58.587,5.4-3.183C152,61.577,146.9,57.382,147.716,52.7c2.76-12.056,23.086-9.882,21.867,1.412Z" transform="translate(1261.725 895.618)" fill="#4a5d66"/>
    <circle id="path2031" cx="3.019" cy="3.019" r="3.019" transform="translate(1399.506 939.5)" fill="#e4bd4d" opacity="0.997" style="isolation: isolate"/>
    <text id="WEB" transform="translate(1336.628 984.301)" fill="#4a5d66" font-size="12" font-family="SegoeUI, Segoe UI" letter-spacing="0.396em"><tspan x="0" y="0">WEB</tspan></text>
    <text id="AGENCY" transform="translate(1362.725 997.213)" fill="#4a5d66" font-size="12" font-family="SegoeUI, Segoe UI" letter-spacing="0.396em"><tspan x="0" y="0">AGENCY</tspan></text>
    <rect id="Rectangle_7" data-name="Rectangle 7" width="4" height="78" rx="2" transform="translate(1320.143 920)" fill="#4a5d66"/>
    <rect id="Rectangle_8" data-name="Rectangle 8" width="4" height="18" rx="2" transform="translate(1443.143 918)" fill="#4a5d66"/>
  </g>
</svg>
