<?xml version="1.0" encoding="utf-8"?>
<!-- Generator: Adobe Illustrator 25.2.0, SVG Export Plug-In . SVG Version: 6.00 Build 0)  -->
<svg version="1.1" id="Calque_1" xmlns="http://www.w3.org/2000/svg" xmlns:xlink="http://www.w3.org/1999/xlink" x="0px" y="0px"
	 viewBox="0 0 127 91.2" style="enable-background:new 0 0 127 91.2;" xml:space="preserve">
<style type="text/css">
	.st0{fill:#FFFFFF;}
	.st1{fill:#333333;}
	.st2{opacity:0.997;fill:#ECC978;enable-background:new    ;}
	.st3{font-family:'SegoeUI';}
	.st4{font-size:12px;}
	.st5{letter-spacing:4;}
</style>
<g id="Groupe_4" transform="translate(-1320.143 -909)">
	<path id="Rectangle_6" class="st0" d="M1325.1,909h117c2.8,0,5,2.2,5,5v7c0,2.8-2.2,5-5,5h-117c-2.8,0-5-2.2-5-5v-7
		C1320.1,911.2,1322.4,909,1325.1,909z"/>
	<circle id="Ellipse_7" class="st1" cx="1333.6" cy="917.5" r="3.5"/>
	<circle id="Ellipse_8" class="st1" cx="1343.6" cy="917.5" r="3.5"/>
	<circle id="Ellipse_9" class="st1" cx="1353.6" cy="917.5" r="3.5"/>
	<path id="path2001" class="st0" d="M1335.6,971l5.3-30.4l8,0l3.8,21.7l11.3-21.8h8.2l-5.4,30.8l-6.2-0.1l4.4-21.8l-11.6,21.8
		l-4.2,0l-3.9-22.7l-3.3,22.8L1335.6,971z"/>
	<path id="path2004" class="st0" d="M1384.7,948.1c-4.9,0-10.3,3.2-10.1,7l5.9,0c1.3-4.3,8-3,5.8,2.2c-21.9-1.3-14.4,21.2-1.6,11.9
		c0.3,0.6,0.5,1.3,0.5,2h5.6c-0.8-5.2,0.4-10.7,1.6-16.1C1392,950.1,1388.5,948.1,1384.7,948.1L1384.7,948.1z M1385.7,961.2
		c1.2,6.4-8.8,7.7-7.4,2.9C1379.4,960.8,1381.8,961.3,1385.7,961.2L1385.7,961.2z"/>
	<path id="path2009" class="st0" d="M1398.6,948.5h5.9c-5,28.3-2.2,32.5-15.4,31.7l0.4-4.7C1396.1,976.5,1394.8,972.2,1398.6,948.5z
		"/>
	<path id="path2012" class="st0" d="M1431.3,949.7l-5.9-0.1c-0.3-6.9-10-4.5-9.6-0.4c0.6,5.5,11.9,2.4,13.4,12.6
		c1.2,10.5-21.9,15.8-22.8-0.2h6.1c1.2,11.6,18.6,0.6,5.4-3.2c-4.1-1.2-9.2-5.4-8.4-10.1C1412.2,936.3,1432.5,938.4,1431.3,949.7
		L1431.3,949.7z"/>
	<circle id="path2031" class="st2" cx="1402.5" cy="942.5" r="3"/>
	<text transform="matrix(1 0 0 1 1336.6281 984.301)" class="st0 st3 st4 st5">WEB</text>
	<text transform="matrix(1 0 0 1 1362.725 997.213)" class="st0 st3 st4 st5">AGENCY</text>
	<path id="Rectangle_7" class="st0" d="M1322.1,920L1322.1,920c1.1,0,2,0.9,2,2v74c0,1.1-0.9,2-2,2l0,0c-1.1,0-2-0.9-2-2v-74
		C1320.1,920.9,1321,920,1322.1,920z"/>
	<path id="Rectangle_8" class="st0" d="M1445.1,918L1445.1,918c1.1,0,2,0.9,2,2v14c0,1.1-0.9,2-2,2l0,0c-1.1,0-2-0.9-2-2v-14
		C1443.1,918.9,1444,918,1445.1,918z"/>
</g>
</svg>
