<?xml version="1.0" encoding="UTF-8" standalone="no"?>
<svg
   xmlns:dc="http://purl.org/dc/elements/1.1/"
   xmlns:cc="http://creativecommons.org/ns#"
   xmlns:rdf="http://www.w3.org/1999/02/22-rdf-syntax-ns#"
   xmlns:svg="http://www.w3.org/2000/svg"
   xmlns="http://www.w3.org/2000/svg"
   xmlns:sodipodi="http://sodipodi.sourceforge.net/DTD/sodipodi-0.dtd"
   xmlns:inkscape="http://www.inkscape.org/namespaces/inkscape"
   inkscape:version="1.0 (4035a4fb49, 2020-05-01)"
   sodipodi:docname="refonte2.svg"
   version="1.1"
   viewBox="0 0 768.54987 606.13"
   height="606.13"
   width="768.54987"
   data-name="Layer 1"
   id="e206c98e-a062-454f-98a1-36dd7d468c34">
  <metadata
     id="metadata1043">
    <rdf:RDF>
      <cc:Work
         rdf:about="">
        <dc:format>image/svg+xml</dc:format>
        <dc:type
           rdf:resource="http://purl.org/dc/dcmitype/StillImage" />
        <dc:title></dc:title>
      </cc:Work>
    </rdf:RDF>
  </metadata>
  <defs
     id="defs1041" />
  <sodipodi:namedview
     inkscape:current-layer="e206c98e-a062-454f-98a1-36dd7d468c34"
     inkscape:window-maximized="1"
     inkscape:window-y="-9"
     inkscape:window-x="-9"
     inkscape:cy="319.76788"
     inkscape:cx="409.01545"
     inkscape:zoom="0.6846716"
     showgrid="false"
     id="namedview1039"
     inkscape:window-height="1001"
     inkscape:window-width="1920"
     inkscape:pageshadow="2"
     inkscape:pageopacity="0"
     guidetolerance="10"
     gridtolerance="10"
     objecttolerance="10"
     borderopacity="1"
     bordercolor="#666666"
     pagecolor="#ffffff" />
  <path
     style="fill:#2a9d8f;fill-opacity:1;stroke-width:3.44693;stroke-linecap:round;stroke-linejoin:round;stroke-opacity:0.934673"
     id="path980"
     fill="#f2f2f2"
     d="M 759.81985,1.1353052e-8 H 152.81982 A 8.72734,8.72734 0 0 0 144.1001,8.72 V 228.13 H 291 a 15.01828,15.01828 0 0 1 15,15 v 185.63 h 453.81985 a 8.71245,8.71245 0 0 0 6.6303,-3.06 2.0439,2.0439 0 0 0 0.19,-0.24 8.16642,8.16642 0 0 0 1.25,-2.11005 8.507,8.507 0 0 0 0.6597,-3.31 V 8.72 A 8.72954,8.72954 0 0 0 759.81985,1.1353052e-8 Z" />
  <rect
     style="fill:#e9c46a;fill-opacity:1;stroke-width:3.44693;stroke-linecap:round;stroke-linejoin:round;stroke-opacity:0.934673"
     id="rect982"
     fill="#ccc"
     height="2.49281"
     width="621.95679"
     y="34.951172"
     x="145.34064" />
  <circle
     style="fill:#e9c46a;fill-opacity:1;stroke-width:3.44693;stroke-linecap:round;stroke-linejoin:round;stroke-opacity:0.934673"
     id="circle984"
     fill="#ccc"
     r="7.4784398"
     cy="18.698059"
     cx="166.52954" />
  <circle
     style="fill:#e9c46a;fill-opacity:1;stroke-width:3.44693;stroke-linecap:round;stroke-linejoin:round;stroke-opacity:0.934673"
     id="circle986"
     fill="#ccc"
     r="7.4784398"
     cy="18.698059"
     cx="188.03006" />
  <circle
     style="fill:#e9c46a;fill-opacity:1;stroke-width:3.44693;stroke-linecap:round;stroke-linejoin:round;stroke-opacity:0.934673"
     id="circle988"
     fill="#ccc"
     r="7.4784398"
     cy="18.698059"
     cx="209.53055" />
  <path
     style="fill:#e9c46a;fill-opacity:1;stroke-width:3.44693;stroke-linecap:round;stroke-linejoin:round;stroke-opacity:0.934673"
     id="path990"
     fill="#ccc"
     d="m 612.31982,89.38 h -312 a 13,13 0 0 0 0,26 h 312 a 13,13 0 0 0 0,-26 z m 0,24 h -312 a 11,11 0 0 1 0,-22 h 312 a 11,11 0 0 1 0,22 z" />
  <path
     id="path992"
     fill="#ffffff"
     d="m 707.79004,192.95 h -312 a 13,13 0 0 0 0,26 h 312 a 13,13 0 0 0 0,-26 z" />
  <path
     id="path994"
     fill="#ffffff"
     d="m 707.79004,240.95 h -312 a 13,13 0 0 0 0,26 h 312 a 13,13 0 0 0 0,-26 z" />
  <path
     id="path996"
     fill="#ffffff"
     d="m 707.79004,288.95 h -312 a 13,13 0 0 0 0,26 h 312 a 13,13 0 0 0 0,-26 z" />
  <path
     style="fill:#e9c46a;fill-opacity:1;stroke-width:3.44693;stroke-linecap:round;stroke-linejoin:round;stroke-opacity:0.934673"
     id="path998"
     fill="#ccc"
     d="m 345.37011,171.45 h -142.02 a 11.50392,11.50392 0 0 0 -11.49024,11.49 v 45.19 h 2 v -45.19 a 9.50457,9.50457 0 0 1 9.49024,-9.49 h 142.02 a 9.49788,9.49788 0 0 1 9.48975,9.49 v 142.02 a 9.49788,9.49788 0 0 1 -9.48975,9.49 H 306 v 2 h 39.37011 a 11.49727,11.49727 0 0 0 11.48975,-11.49 V 182.94 a 11.49723,11.49723 0 0 0 -11.48975,-11.49 z" />
  <path
     id="path1020"
     fill="#3f3d56"
     d="M 291,226.13 H 17 a 17.02411,17.02411 0 0 0 -17,17 v 346 a 17.0241,17.0241 0 0 0 17,17 h 274 a 17.02411,17.02411 0 0 0 17,-17 v -346 a 17.02412,17.02412 0 0 0 -17,-17 z m 15,363 a 15.01828,15.01828 0 0 1 -15,15 H 17 a 15.01828,15.01828 0 0 1 -15,-15 v -346 a 15.01828,15.01828 0 0 1 15,-15 h 274 a 15.01828,15.01828 0 0 1 15,15 z" />
  <path
     style="fill:#2a9d8f;fill-opacity:1;stroke-width:3.44693;stroke-linecap:round;stroke-linejoin:round;stroke-opacity:0.934673"
     id="path1026"
     fill="#ccc"
     d="m 237.00041,465.63 h -166 c -16.957,-0.0817 -17.0275,-25.9115 8.4e-4,-26 h 165.99916 c 16.94506,0.0794 17.03689,25.91122 0,26 z" />
  <path
     style="fill:#2a9d8f;fill-opacity:1;stroke-width:3.44693;stroke-linecap:round;stroke-linejoin:round;stroke-opacity:0.934673"
     id="path1028"
     fill="#ccc"
     d="m 237.00041,513.63 h -166 c -16.957,-0.0817 -17.0275,-25.9115 8.4e-4,-26 h 165.99916 c 16.94506,0.0794 17.03689,25.91122 0,26 z" />
  <path
     style="fill:#2a9d8f;fill-opacity:1;stroke-width:3.44693;stroke-linecap:round;stroke-linejoin:round;stroke-opacity:0.934673"
     id="path1030"
     fill="#ccc"
     d="m 237.00041,561.63 h -166 c -16.957,-0.0817 -17.0275,-25.9115 8.4e-4,-26 h 165.99916 c 16.94506,0.0794 17.03689,25.91122 0,26 z" />
  <path
     style="fill:#264653;fill-opacity:1;stroke-width:3.44693;stroke-linecap:round;stroke-linejoin:round;stroke-opacity:0.934673"
     id="path1032"
     fill="#6c63ff"
     d="m 299,258.13 a 26,26 0 1 1 26,-26 26.02947,26.02947 0 0 1 -26,26 z" />
  <path
     id="path1034"
     fill="#ffffff"
     d="m 311,231.13 h -11 v -12.5 a 1,1 0 0 0 -2,0 v 12.5 h -11 a 1,1 0 0 0 0,2 h 11 v 12.5 a 1,1 0 1 0 2,0 v -12.5 h 11 a 1,1 0 0 0 0,-2 z" />
  <path
     style="fill:#264653;fill-opacity:1;stroke-width:3.44693;stroke-linecap:round;stroke-linejoin:round;stroke-opacity:0.934673"
     id="path1036"
     fill="#6c63ff"
     d="M 234,408.42981 H 74 a 16.51867,16.51867 0 0 1 -16.5,-16.5 V 302.3302 a 16.51866,16.51866 0 0 1 16.5,-16.5 h 160 a 16.51867,16.51867 0 0 1 16.5,16.5 v 89.59961 a 16.51868,16.51868 0 0 1 -16.5,16.5 z" />
</svg>
