<?xml version="1.0" encoding="UTF-8" standalone="no"?>
<svg
   xmlns:dc="http://purl.org/dc/elements/1.1/"
   xmlns:cc="http://creativecommons.org/ns#"
   xmlns:rdf="http://www.w3.org/1999/02/22-rdf-syntax-ns#"
   xmlns:svg="http://www.w3.org/2000/svg"
   xmlns="http://www.w3.org/2000/svg"
   version="1.1"
   viewBox="0 0 500.99998 343.99999"
   height="344"
   width="501"
   data-name="Layer 1"
   id="bb43b303-7783-4b20-84ac-89898836e9dc">
  <metadata
     id="metadata63">
    <rdf:RDF>
      <cc:Work
         rdf:about="">
        <dc:format>image/svg+xml</dc:format>
        <dc:type
           rdf:resource="http://purl.org/dc/dcmitype/StillImage" />
        <dc:title></dc:title>
      </cc:Work>
    </rdf:RDF>
  </metadata>
  <defs
     id="defs61" />
  <path
     id="path6"
     fill="#3f3d56"
     d="M 494,0 H 7 A 7.00778,7.00778 0 0 0 0,7 v 330 a 7.00778,7.00778 0 0 0 7,7 h 487 a 7.00779,7.00779 0 0 0 7,-7 V 7 a 7.00778,7.00778 0 0 0 -7,-7 z m 5,337 a 5.002,5.002 0 0 1 -5,5 H 7 A 5.002,5.002 0 0 1 2,337 V 7 A 5.002,5.002 0 0 1 7,2 h 487 a 5.002,5.002 0 0 1 5,5 z" />
  <rect
     id="rect8"
     fill="#3f3d56"
     height="2"
     width="499"
     y="28.039978"
     x="0.99999565" />
  <circle
     id="circle10"
     fill="#3f3d56"
     r="6"
     cy="15"
     cx="17.999996" />
  <circle
     id="circle12"
     fill="#3f3d56"
     r="6"
     cy="15"
     cx="35.249996" />
  <circle
     id="circle14"
     fill="#3f3d56"
     r="6"
     cy="15"
     cx="52.499996" />
  <path
     id="path16"
     fill="#3f3d56"
     d="M 137,69 H 49 a 7.00778,7.00778 0 0 0 -7,7 v 88 a 7.00778,7.00778 0 0 0 7,7 h 88 a 7.00779,7.00779 0 0 0 7,-7 V 76 a 7.00778,7.00778 0 0 0 -7,-7 z m 5,95 a 5.002,5.002 0 0 1 -5,5 H 49 a 5.002,5.002 0 0 1 -5,-5 V 76 a 5.002,5.002 0 0 1 5,-5 h 88 a 5.002,5.002 0 0 1 5,5 z" />
  <path
     style="fill:#264653;fill-opacity:1;stroke-width:3.44693;stroke-linecap:round;stroke-linejoin:round;stroke-opacity:0.934673"
     id="path18"
     fill="#6c63ff"
     d="m 295,69.5 h -88 a 6.51259,6.51259 0 0 0 -6.5,6.5 v 88 a 6.51259,6.51259 0 0 0 6.5,6.5 h 88 a 6.51259,6.51259 0 0 0 6.5,-6.5 V 76 A 6.51259,6.51259 0 0 0 295,69.5 Z" />
  <path
     style="fill:#2a9d8f;fill-opacity:1;stroke-width:3.44693;stroke-linecap:round;stroke-linejoin:round;stroke-opacity:0.934673"
     id="path20"
     fill="#e6e6e6"
     d="m 453,69.5 h -88 a 6.51259,6.51259 0 0 0 -6.5,6.5 v 88 a 6.51259,6.51259 0 0 0 6.5,6.5 h 88 a 6.51259,6.51259 0 0 0 6.5,-6.5 V 76 A 6.51259,6.51259 0 0 0 453,69.5 Z" />
  <path
     style="fill:#2a9d8f;fill-opacity:1;stroke-width:3.44693;stroke-linecap:round;stroke-linejoin:round;stroke-opacity:0.934673"
     id="path22"
     fill="#e6e6e6"
     d="M 137,201.5 H 49 a 6.51259,6.51259 0 0 0 -6.5,6.5 v 88 a 6.51259,6.51259 0 0 0 6.5,6.5 h 88 a 6.51259,6.51259 0 0 0 6.5,-6.5 v -88 a 6.51259,6.51259 0 0 0 -6.5,-6.5 z" />
  <path
     style="fill:#264653;fill-opacity:1;stroke-width:3.44693;stroke-linecap:round;stroke-linejoin:round;stroke-opacity:0.934673"
     id="path24"
     fill="#6c63ff"
     d="m 295,201.5 h -88 a 6.51259,6.51259 0 0 0 -6.5,6.5 v 88 a 6.51259,6.51259 0 0 0 6.5,6.5 h 88 a 6.51259,6.51259 0 0 0 6.5,-6.5 v -88 a 6.51259,6.51259 0 0 0 -6.5,-6.5 z" />
  <path
     style="fill:#2a9d8f;fill-opacity:1;stroke-width:3.44693;stroke-linecap:round;stroke-linejoin:round;stroke-opacity:0.934673"
     id="path26"
     fill="#e6e6e6"
     d="m 453,201.5 h -88 a 6.51259,6.51259 0 0 0 -6.5,6.5 v 88 a 6.51259,6.51259 0 0 0 6.5,6.5 h 88 a 6.51259,6.51259 0 0 0 6.5,-6.5 v -88 a 6.51259,6.51259 0 0 0 -6.5,-6.5 z" />
  <path
     style="fill:#264653;fill-opacity:1;stroke-width:3.44693;stroke-linecap:round;stroke-linejoin:round;stroke-opacity:0.934673"
     id="path28"
     fill="#6c63ff"
     d="m 115.5,216 h -88 A 6.50745,6.50745 0 0 1 21,209.5 v -88 a 6.50744,6.50744 0 0 1 6.5,-6.5 h 88 a 6.50745,6.50745 0 0 1 6.5,6.5 v 88 a 6.50745,6.50745 0 0 1 -6.5,6.5 z" />
</svg>
