<?xml version="1.0" encoding="utf-8"?>
<!-- Generator: Adobe Illustrator 25.2.0, SVG Export Plug-In . SVG Version: 6.00 Build 0)  -->
<svg version="1.1"
	 id="svg1032" sodipodi:docname="SEO.svg" xmlns:cc="http://creativecommons.org/ns#" xmlns:dc="http://purl.org/dc/elements/1.1/" xmlns:inkscape="http://www.inkscape.org/namespaces/inkscape" xmlns:rdf="http://www.w3.org/1999/02/22-rdf-syntax-ns#" xmlns:sodipodi="http://sodipodi.sourceforge.net/DTD/sodipodi-0.dtd" xmlns:svg="http://www.w3.org/2000/svg"
	 xmlns="http://www.w3.org/2000/svg" xmlns:xlink="http://www.w3.org/1999/xlink" x="0px" y="0px" viewBox="0 0 512 512"
	 style="enable-background:new 0 0 512 512;" xml:space="preserve">
<style type="text/css">
	.st0{fill:#333333;}
	.st1{fill:#ECC979;}
</style>
<sodipodi:namedview  bordercolor="#666666" borderopacity="1" gridtolerance="10" guidetolerance="10" id="namedview1034" inkscape:current-layer="svg1032" inkscape:cx="256" inkscape:cy="256" inkscape:document-rotation="0" inkscape:pageopacity="0" inkscape:pageshadow="2" inkscape:window-height="1001" inkscape:window-maximized="1" inkscape:window-width="1920" inkscape:window-x="-9" inkscape:window-y="-9" inkscape:zoom="1.6210938" objecttolerance="10" pagecolor="#ffffff" showgrid="false">
	</sodipodi:namedview>
<g id="g1022">
	<g id="g1020">
		<path id="path1018" class="st0" d="M467,28.4H45c-24.8,0-45,20.2-45,45v278.3c0,24.8,20.2,45,45,45h151.5v57h-22.6
			c-8.3,0-15,6.7-15,15s6.7,15,15,15h164.2c8.3,0,15-6.7,15-15s-6.7-15-15-15h-22.6v-57H467c24.8,0,45-20.2,45-45V73.4
			C512,48.5,491.8,28.4,467,28.4L467,28.4z M285.5,453.6h-59v-57h59V453.6z M482,351.6c0,8.3-6.7,15-15,15H45c-8.3,0-15-6.7-15-15
			v-22.8h452V351.6z M482,298.8H30V73.4c0-8.3,6.7-15,15-15h422c8.3,0,15,6.7,15,15V298.8z"/>
	</g>
</g>
<g id="g1030">
	<path id="path1024" class="st1" d="M165.8,235.6c-6.2,0-11.4-1.3-15.6-4c-4.1-2.7-7.2-6.4-9.3-11.1c-2.1-4.7-3.4-10.2-3.7-16.4
		l13.3-3.6c0.3,3.8,0.8,7.5,1.7,11.1c1,3.6,2.5,6.5,4.7,8.8c2.1,2.2,5.1,3.3,8.9,3.3c3.9,0,6.8-1.1,8.8-3.2c2-2.2,3.1-5.4,3.1-9.5
		c0-4.9-1.1-8.8-3.3-11.7c-2.2-3-5-6-8.4-9.1l-18.1-16c-3.6-3.1-6.2-6.5-7.9-10.1c-1.7-3.7-2.5-8.3-2.5-13.7c0-7.9,2.3-14,6.8-18.4
		c4.5-4.4,10.7-6.5,18.5-6.5c4.3,0,8,0.6,11.2,1.7c3.3,1.1,6,2.8,8.1,5.1c2.2,2.3,4,5.2,5.2,8.8c1.3,3.5,2.2,7.6,2.7,12.3l-12.8,3.5
		c-0.3-3.6-0.8-6.8-1.6-9.7c-0.8-3-2.2-5.4-4.3-7.2c-2-1.9-4.8-2.8-8.5-2.8c-3.7,0-6.7,1-8.8,3.1c-2,2-3.1,4.9-3.1,8.8
		c0,3.3,0.5,6,1.6,8.1c1.2,2.1,3,4.3,5.5,6.5l18.3,16c4.1,3.6,7.7,7.8,10.8,12.8c3.1,4.9,4.7,10.7,4.7,17.5c0,5.3-1.1,10-3.3,13.9
		c-2.2,3.8-5.3,6.8-9.2,8.8C175.3,234.6,170.9,235.6,165.8,235.6L165.8,235.6z"/>
	<path id="path1026" class="st1" d="M233.8,234.4v-108h41.9v11.2h-26.8v35.7h21.7V184h-21.7v39.6H276v10.8L233.8,234.4z"/>
	<path id="path1028" class="st1" d="M346,235.6c-7.3,0-13.1-1.4-17.5-4.3c-4.4-2.8-7.5-6.9-9.3-12.1c-1.9-5.3-2.8-11.6-2.8-18.7
		v-40.9c0-7.1,0.9-13.2,2.8-18.3c2-5.2,5.1-9.1,9.3-11.7c4.4-2.8,10.2-4.1,17.5-4.1c7.3,0,13.1,1.4,17.3,4.1
		c4.3,2.8,7.3,6.7,9.2,11.7c2,5.1,2.9,11.2,2.9,18.3v41.1c0,7-1,13.2-2.9,18.4c-1.9,5.2-4.9,9.3-9.2,12.3
		C359.1,234.2,353.3,235.6,346,235.6L346,235.6z M346,223.7c4,0,7-0.8,9.1-2.4c2-1.7,3.4-4,4.1-6.9c0.7-3,1.1-6.5,1.1-10.5v-47.3
		c0-4-0.4-7.4-1.1-10.3c-0.7-2.9-2.1-5.2-4.1-6.7c-2-1.6-5.1-2.4-9.1-2.4c-4,0-7.1,0.8-9.2,2.4c-2,1.5-3.4,3.7-4.1,6.7
		c-0.7,2.8-1.1,6.3-1.1,10.3v47.3c0,4,0.4,7.5,1.1,10.5c0.7,2.9,2.1,5.2,4.1,6.9C339,222.9,342,223.7,346,223.7L346,223.7z"/>
</g>
</svg>
