<?xml version="1.0" encoding="UTF-8" standalone="no"?>
<svg
   xmlns:dc="http://purl.org/dc/elements/1.1/"
   xmlns:cc="http://creativecommons.org/ns#"
   xmlns:rdf="http://www.w3.org/1999/02/22-rdf-syntax-ns#"
   xmlns:svg="http://www.w3.org/2000/svg"
   xmlns="http://www.w3.org/2000/svg"
   xmlns:sodipodi="http://sodipodi.sourceforge.net/DTD/sodipodi-0.dtd"
   xmlns:inkscape="http://www.inkscape.org/namespaces/inkscape"
   enable-background="new 0 0 512 512"
   version="1.1"
   viewBox="0 0 512 512"
   xml:space="preserve"
   id="svg1032"
   sodipodi:docname="SEO.svg"
   inkscape:version="1.0 (4035a4fb49, 2020-05-01)"><defs
   id="defs1036" /><sodipodi:namedview
   inkscape:document-rotation="0"
   pagecolor="#ffffff"
   bordercolor="#666666"
   borderopacity="1"
   objecttolerance="10"
   gridtolerance="10"
   guidetolerance="10"
   inkscape:pageopacity="0"
   inkscape:pageshadow="2"
   inkscape:window-width="1920"
   inkscape:window-height="1001"
   id="namedview1034"
   showgrid="false"
   inkscape:zoom="1.6210938"
   inkscape:cx="256"
   inkscape:cy="256"
   inkscape:window-x="-9"
   inkscape:window-y="-9"
   inkscape:window-maximized="1"
   inkscape:current-layer="svg1032" /><metadata
   id="metadata1016"><rdf:RDF><cc:Work
       rdf:about=""><dc:format>image/svg+xml</dc:format><dc:type
         rdf:resource="http://purl.org/dc/dcmitype/StillImage" /><dc:title /></cc:Work></rdf:RDF></metadata>
<g
   id="g1022"
   style="fill:#4a5d66;fill-opacity:1">
	<g
   id="g1020"
   style="fill:#4a5d66;fill-opacity:1">
		<path
   d="M 467,28.355 H 45 c -24.813,0 -45,20.187 -45,45 v 278.27 c 0,24.813 20.187,45 45,45 h 151.49 v 57.016 h -22.587 c -8.284,0 -15,6.716 -15,15 0,8.284 6.716,15 15,15 h 164.19 c 8.284,0 15,-6.716 15,-15 0,-8.284 -6.716,-15 -15,-15 h -22.587 v -57.016 h 151.49 c 24.813,0 45,-20.187 45,-45 V 73.355 c 0,-24.813 -20.187,-45 -45,-45 z M 285.51,453.645 H 226.498 V 396.629 H 285.51 Z M 482,351.625 c 0,8.271 -6.729,15 -15,15 H 45 c -8.271,0 -15,-6.729 -15,-15 v -22.803 h 452 z m 0,-52.803 H 30 V 73.352 c 0,-8.271 6.729,-15 15,-15 h 422 c 8.271,0 15,6.729 15,15 z"
   id="path1018"
   style="fill:#4a5d66;fill-opacity:1" />
	</g>
</g>


















<g
   aria-label="S E O"
   id="g1030"
   style="fill:#ecc979;fill-opacity:1;stroke:none"><path
   d="m 165.79,235.61 q -9.3333,0 -15.6,-4 -6.1333,-4 -9.3333,-11.067 -3.2,-7.0666 -3.7333,-16.4 l 13.333,-3.6 q 0.4,5.7333 1.7333,11.067 1.4667,5.3333 4.6666,8.8 3.2,3.3333 8.9333,3.3333 5.8666,0 8.8,-3.2 3.0667,-3.3333 3.0667,-9.4666 0,-7.3333 -3.3333,-11.733 -3.3333,-4.5333 -8.4,-9.0666 l -18.133,-16 q -5.3333,-4.6667 -7.8666,-10.133 -2.5333,-5.6 -2.5333,-13.733 0,-11.867 6.8,-18.4 6.8,-6.5333 18.533,-6.5333 6.4,0 11.2,1.7333 4.9333,1.6 8.1333,5.0667 3.3333,3.4666 5.2,8.8 2,5.2 2.6667,12.267 l -12.8,3.4667 q -0.4,-5.3333 -1.6,-9.7333 -1.2,-4.5333 -4.2667,-7.2 -2.9333,-2.8 -8.5333,-2.8 -5.6,0 -8.8,3.0667 -3.0666,2.9333 -3.0666,8.8 0,4.9333 1.6,8.1333 1.7333,3.2 5.4666,6.5333 l 18.267,16 q 6.1333,5.3333 10.8,12.8 4.6666,7.3333 4.6666,17.467 0,8 -3.3333,13.867 -3.3333,5.7333 -9.2,8.8 -5.7333,3.0666 -13.333,3.0666 z"
   id="path1024"
   style="fill:#ecc979;fill-opacity:1;stroke:none" />
<path
   d="m 233.82,234.41 v -108 h 41.867 v 11.2 h -26.8 v 35.733 h 21.733 v 10.667 h -21.733 v 39.6 h 27.067 v 10.8 z"
   id="path1026"
   style="fill:#ecc979;fill-opacity:1;stroke:none" />
<path
   d="m 346.05,235.61 q -10.933,0 -17.467,-4.2666 -6.5333,-4.2667 -9.3333,-12.133 -2.8,-8 -2.8,-18.667 v -40.933 q 0,-10.667 2.8,-18.267 2.9333,-7.7333 9.3333,-11.733 6.5333,-4.1333 17.467,-4.1333 10.933,0 17.333,4.1333 6.4,4.1333 9.2,11.733 2.9333,7.6 2.9333,18.267 v 41.067 q 0,10.533 -2.9333,18.4 -2.8,7.8666 -9.2,12.267 -6.4,4.2666 -17.333,4.2666 z m 0,-11.867 q 6,0 9.0666,-2.4 3.0667,-2.5333 4.1333,-6.9333 1.0667,-4.5333 1.0667,-10.533 v -47.333 q 0,-6 -1.0667,-10.267 -1.0667,-4.4 -4.1333,-6.6666 -3.0666,-2.4 -9.0666,-2.4 -6,0 -9.2,2.4 -3.0666,2.2667 -4.1333,6.6666 -1.0667,4.2667 -1.0667,10.267 v 47.333 q 0,6 1.0667,10.533 1.0667,4.4 4.1333,6.9333 3.2,2.4 9.2,2.4 z"
   id="path1028"
   style="fill:#ecc979;fill-opacity:1;stroke:none" /></g></svg>
