<?xml version="1.0" encoding="UTF-8" standalone="no"?>
<svg
   xmlns:dc="http://purl.org/dc/elements/1.1/"
   xmlns:cc="http://creativecommons.org/ns#"
   xmlns:rdf="http://www.w3.org/1999/02/22-rdf-syntax-ns#"
   xmlns:svg="http://www.w3.org/2000/svg"
   xmlns="http://www.w3.org/2000/svg"
   xmlns:sodipodi="http://sodipodi.sourceforge.net/DTD/sodipodi-0.dtd"
   xmlns:inkscape="http://www.inkscape.org/namespaces/inkscape"
   inkscape:version="1.0 (4035a4fb49, 2020-05-01)"
   sodipodi:docname="surMesure2.svg"
   version="1.1"
   viewBox="0 0 703.87602 451.00001"
   height="451"
   width="703.87604"
   data-name="Layer 1"
   id="b66c9c51-8109-402d-a3f9-100a5bb3d153">
  <metadata
     id="metadata3218">
    <rdf:RDF>
      <cc:Work
         rdf:about="">
        <dc:format>image/svg+xml</dc:format>
        <dc:type
           rdf:resource="http://purl.org/dc/dcmitype/StillImage" />
        <dc:title>work_together</dc:title>
      </cc:Work>
    </rdf:RDF>
  </metadata>
  <defs
     id="defs3216" />
  <sodipodi:namedview
     inkscape:current-layer="b66c9c51-8109-402d-a3f9-100a5bb3d153"
     inkscape:window-maximized="1"
     inkscape:window-y="-9"
     inkscape:window-x="-9"
     inkscape:cy="590.20164"
     inkscape:cx="866.85096"
     inkscape:zoom="0.39874121"
     showgrid="false"
     id="namedview3214"
     inkscape:window-height="1001"
     inkscape:window-width="1920"
     inkscape:pageshadow="2"
     inkscape:pageopacity="0"
     guidetolerance="10"
     gridtolerance="10"
     objecttolerance="10"
     borderopacity="1"
     bordercolor="#666666"
     pagecolor="#ffffff" />
  <title
     id="title3065">work_together</title>
  <rect
     id="rect3067"
     fill="#e6e6e6"
     height="450.60114"
     width="703.57562"
     y="0.39886001"
     x="0.30041504" />
  <rect
     id="rect3069"
     fill="#ffffff"
     height="261"
     width="254"
     y="60.907219"
     x="62.514984" />
  <rect
     id="rect3071"
     fill="#ffffff"
     height="317"
     width="254"
     y="65.968742"
     x="411.51498" />
  <rect
     y="0"
     style="fill:#264653;fill-opacity:1;stroke-width:3.44693;stroke-linecap:round;stroke-linejoin:round;stroke-opacity:0.934673"
     id="rect3079"
     fill="#6c63ff"
     height="29.890471"
     width="703.57562"
     x="0" />
  <circle
     id="circle3081"
     fill="#e6e6e6"
     r="5.5399699"
     cy="15.28159"
     cx="22.212204" />
  <circle
     id="circle3083"
     fill="#e6e6e6"
     r="5.5399699"
     cy="15.28159"
     cx="43.24054" />
  <circle
     id="circle3085"
     fill="#e6e6e6"
     r="5.5399699"
     cy="15.28159"
     cx="64.26886" />
  <path
     id="path3087"
     fill="#3f3d56"
     d="m 609.51498,150.99868 h -1.53864 V 108.84812 A 24.3956,24.3956 0 0 0 583.58067,84.45249 h -89.30161 a 24.3956,24.3956 0 0 0 -24.39567,24.39563 v 231.24125 a 24.3956,24.3956 0 0 0 24.39567,24.39563 h 89.30161 a 24.3956,24.3956 0 0 0 24.39567,-24.39563 V 181.00216 h 1.53864 z" />
  <path
     style="fill:#2a9d8f;fill-opacity:1;stroke-width:3.44693;stroke-linecap:round;stroke-linejoin:round;stroke-opacity:0.934673"
     id="path3089"
     fill="#fff"
     d="m 583.56505,90.79939 h -11.65682 a 8.6555,8.6555 0 0 1 -8.01381,11.92446 h -51.15979 a 8.65552,8.65552 0 0 1 -8.01379,-11.92446 h -10.88752 a 18.21836,18.21836 0 0 0 -18.21838,18.21834 v 230.902 a 18.21836,18.21836 0 0 0 18.21838,18.21836 h 89.73173 a 18.21837,18.21837 0 0 0 18.21839,-18.21836 v -230.902 A 18.21837,18.21837 0 0 0 583.56505,90.79939 Z" />
  <rect
     id="rect3091"
     fill="#e6e6e6"
     height="8.0526695"
     width="176.5444"
     y="225.7756"
     x="101.41821" />
  <rect
     style="fill:#264653;fill-opacity:1;stroke-width:3.44693;stroke-linecap:round;stroke-linejoin:round;stroke-opacity:0.934673"
     id="rect3093"
     fill="#6c63ff"
     height="8.0526695"
     width="176.5444"
     y="251.7756"
     x="101.41821" />
  <rect
     id="rect3095"
     fill="#e6e6e6"
     height="8.0526695"
     width="176.5444"
     y="277.7756"
     x="101.41821" />
  <rect
     id="rect3097"
     fill="#e6e6e6"
     height="8.0526695"
     width="103.06376"
     y="243.34557"
     x="488.16733" />
  <rect
     id="rect3099"
     fill="#e6e6e6"
     height="8.0526695"
     width="103.06376"
     y="268.34555"
     x="488.16733" />
  <rect
     id="rect3101"
     fill="#e6e6e6"
     height="8.0526695"
     width="103.06376"
     y="293.34555"
     x="488.16733" />
  <rect
     style="fill:#2a9d8f;fill-opacity:1;stroke-width:3.44693;stroke-linecap:round;stroke-linejoin:round;stroke-opacity:0.934673"
     id="rect3103"
     fill="#3f3d56"
     transform="rotate(90)"
     height="17.17729"
     width="17.17729"
     y="-602.00684"
     x="401.21329" />
  <rect
     style="fill:#264653;fill-opacity:1;stroke-width:3.44693;stroke-linecap:round;stroke-linejoin:round;stroke-opacity:0.934673"
     id="rect3105"
     fill="#6c63ff"
     transform="rotate(90)"
     height="17.17729"
     width="17.17729"
     y="-574.33234"
     x="401.21332" />
  <rect
     style="fill:#2a9d8f;fill-opacity:1;stroke-width:3.44693;stroke-linecap:round;stroke-linejoin:round;stroke-opacity:0.934673"
     id="rect3107"
     fill="#3f3d56"
     transform="rotate(90)"
     height="17.17729"
     width="17.17729"
     y="-546.65778"
     x="401.21329" />
  <rect
     style="fill:#2a9d8f;fill-opacity:1;stroke-width:3.44693;stroke-linecap:round;stroke-linejoin:round;stroke-opacity:0.934673"
     id="rect3109"
     fill="#3f3d56"
     transform="rotate(90)"
     height="17.17729"
     width="17.17729"
     y="-518.98328"
     x="401.21332" />
  <rect
     style="fill:#2a9d8f;fill-opacity:1;stroke-width:3.44693;stroke-linecap:round;stroke-linejoin:round;stroke-opacity:0.934673"
     id="rect3111"
     fill="#3f3d56"
     transform="rotate(90)"
     height="17.17729"
     width="17.17729"
     y="-491.30875"
     x="401.21329" />
  <rect
     style="fill:#264653;fill-opacity:1;stroke-width:3.44693;stroke-linecap:round;stroke-linejoin:round;stroke-opacity:0.934673"
     id="rect3113"
     fill="#6c63ff"
     height="57.257641"
     width="57.257641"
     y="138.9903"
     x="510.07034" />
  <rect
     style="fill:#2a9d8f;fill-opacity:1;stroke-width:3.44693;stroke-linecap:round;stroke-linejoin:round;stroke-opacity:0.934673"
     id="rect3169"
     fill="#e6e6e6"
     height="101"
     width="176"
     y="90.907219"
     x="101.51498" />
  <rect
     style="fill:#264653;fill-opacity:1;stroke-width:3.44693;stroke-linecap:round;stroke-linejoin:round;stroke-opacity:0.934673"
     id="rect3177"
     fill="#6c63ff"
     transform="scale(-1)"
     height="8.0526695"
     width="103.06376"
     y="-284.76431"
     x="-675.7049" />
  <rect
     id="rect3205"
     fill="#ffffff"
     transform="rotate(-60.15005)"
     height="202.92117"
     width="1.99958"
     y="133.29448"
     x="-29.319422" />
  <rect
     id="rect3207"
     fill="#ffffff"
     transform="rotate(-29.84553)"
     height="1.99958"
     width="202.92117"
     y="215.96733"
     x="-7.4541373" />
  <rect
     id="rect3209"
     fill="#ffffff"
     transform="rotate(-45)"
     height="80.610168"
     width="1.99979"
     y="459.21085"
     x="261.76648" />
  <rect
     id="rect3211"
     fill="#ffffff"
     transform="rotate(-45)"
     height="1.99979"
     width="80.610168"
     y="498.51602"
     x="222.46132" />
</svg>
