<?xml version="1.0" encoding="utf-8"?>
<!-- Generator: Adobe Illustrator 24.3.0, SVG Export Plug-In . SVG Version: 6.00 Build 0)  -->
<svg version="1.1" id="a60b1964-8663-4d6a-8e27-deeeb16ea45b"
	 xmlns="http://www.w3.org/2000/svg" xmlns:xlink="http://www.w3.org/1999/xlink" x="0px" y="0px" viewBox="0 0 887.7 568.8"
	 style="enable-background:new 0 0 887.7 568.8;" xml:space="preserve">
<style type="text/css">
	.st0{fill:#E2E2E2;}
	.st1{fill:#FFFFFF;}
	.st2{fill:#264653;}
	.st3{fill:#FFB8B8;}
	.st4{fill:#2F2E41;}
	.st5{fill:#A0616A;}
	.st6{fill:#E3AE36;}
	.st7{fill:#E76F51;}
</style>
<rect x="0.4" y="0.5" class="st0" width="887.3" height="568.3"/>
<rect x="25.8" y="62.4" class="st1" width="836.6" height="482"/>
<rect y="0" class="st2" width="887.3" height="37.7"/>
<circle class="st1" cx="28" cy="19.3" r="7.6"/>
<circle class="st1" cx="54.5" cy="19.3" r="7.6"/>
<circle class="st1" cx="81.1" cy="19.3" r="7.6"/>
<rect x="354.5" y="172.1" class="st0" width="180.2" height="157.4"/>
<polygon class="st3" points="416.7,183.6 422.3,205.8 419.9,238.2 441.2,254.8 448.3,199.4 444.4,186 "/>
<polygon class="st1" points="436.5,233.4 440.4,212.1 448.3,197.1 468.1,276.9 423.1,283.2 411.2,219.2 421.3,201.9 428.6,215.2 "/>
<polygon class="st4" points="487.3,329.5 412.4,329.5 412.8,323.5 430.2,312.4 453.9,312.4 487.1,326.7 "/>
<circle class="st3" cx="431.8" cy="176.5" r="19"/>
<path class="st2" d="M503.7,268.2l-18.2-15l1.8,39.3l0.2,3.8l0.2,5l0.5,10.9l0.8,17.4h-39.6l-2.7-8.3l-1.1,8.3h-36.2
	c-0.3-4.4-0.4-9.6-0.2-14.9c0.1-4.9,0.8-9.7,1.9-14.5c0.7-3.2,2-6.3,4-9l-7.1-25.3l-3.2,15.8l-22.1,1.6c0,0,0-0.4,0.1-1.2v0
	c0.3-7.8,2.6-51.8,14.2-60.5l23.5-23.1c0,0,0,1.7,0.2,4.5v0c0.2,2.4,0.5,5.6,1.1,9.3v0c1.3,8.4,3.9,19.3,9.2,28.9
	c1.9,3.6,3.5,6.6,4.8,9.2c5.5,11.2,5.5,13.8,5.5,13.8l2.3-27.2l0-0.1l0-0.1l3-36.4l0.5-5.4v0c0,0,36.1,6.1,47.1,22.7
	c8.9,13.3,25.4,34.8,31.6,42.8c0.1,0.1,0.1,0.2,0.2,0.3l0.9,1.2c0.2,0.2,0.3,0.4,0.5,0.6c0.2,0.2,0.3,0.3,0.4,0.5l0.4,0.5
	L503.7,268.2z"/>
<circle class="st4" cx="442.8" cy="276.1" r="2.4"/>
<circle class="st4" cx="446" cy="297.4" r="2.4"/>
<polygon class="st3" points="494.2,306.1 487.1,313.2 482.3,300.6 487.5,296.2 "/>
<polygon class="st3" points="404.1,309.3 411.2,316.4 412.8,300.6 408,299 "/>
<path class="st4" d="M409.6,161.9c0,0-5.5-7,0-10.5v1.8c0,0,11.9-13.2,19-9.6l6.3-1.8v1.8l4-1.8l-0.8,2.6h5.5l-2.4,1.8
	c0,0,18.2-0.9,7.1,12.3c0,0,5.3,7.9,0.3,12.3c0,0-4.2-9.6-9.7-7c-3.1,1.6-6.8,1.2-9.5-0.9c0,0-11.1-0.9-9.5,4.4s0.8,7,0.8,7
	s-4,2.6-3.2,4.4s0.8,7,0.8,7s-4-6.1-5.5-5.3S402.5,172.4,409.6,161.9z"/>
<path class="st2" d="M385.9,280l-3.2,2v1.9c0.2,3.4,1.3,6.7,3.2,9.5c3.2,4.7,20.5,20.5,20.5,20.5l4.7-16.6l-6.3-15.8l-4-4.7
	L385.9,280z"/>
<path class="st2" d="M517.1,259.5l8.7,0.9l2.4,3.1c0,0,1.6,7.1-1.6,11.1s-30.8,36.4-30.8,36.4l-11.9-14.2l20.5-25.3l-0.8-3.2
	L517.1,259.5z"/>
<rect x="625.6" y="170.5" class="st0" width="182" height="158.9"/>
<polygon class="st4" points="738.1,205.1 697,205.9 691.4,167.9 738.1,167.9 "/>
<path class="st5" d="M758.2,211c0,0,14.2,0,15.8,15s-4,53.7-4,53.7l-4.7,49.8h-11.1l0.9-37.9l3.2-54.5l-9.5-10.3L758.2,211z"/>
<path class="st5" d="M699.7,211c0,0-13.4-3.2-26.1,15c0,0-32.4,23.7-22.1,32.4c10.3,8.7,37.9,14.2,37.9,14.2s-10.3,21.3-4,22.1
	s15.8-22.9,13.4-26.9s-11.1-6.3-11.1-6.3l-20.5-10.3c0,0,26.4-22.6,27.8-12.9l7.8-3.7L699.7,211z"/>
<path class="st5" d="M729,184.1c3.4,11.5,11.8,20.8,22.9,25.3l-20.5,17.4L706.9,211c0,0,8.7-5.5,6.3-17.4L729,184.1z"/>
<circle class="st5" cx="713.2" cy="177.8" r="19"/>
<path class="st6" d="M696.6,209.4l14.4-2.8c0,0,4.5,10.7,19.6,9.1s17.7-8.1,17.7-8.1l13.9,3.3c0,0-7.9,8.7-4,26.1
	c0,0,1.6,28.4-7.1,38.7l-0.8,15.8c0,0,10.3,26.9,4.7,37.9h-77.4c0,0,3.2-39.5,17.4-49.8l3.2-7.1c0,0-6.3-27.7-3.2-32.4
	C695,240.2,697.4,210.2,696.6,209.4z"/>
<path class="st4" d="M749.2,195.6c-4.3-2.4-6.3-7.7-6.5-12.6c-0.1-4.9,1-9.8,1.1-14.7c0-1,0-2-0.3-3c-0.4-1.2-0.9-2.4-1.6-3.4
	c-5.6-8.6-15.3-14.6-25.6-14.7c-1.5,0-3,0.3-4.3,0.8c-1.1,0.4-1.4,0.4-1.6,1.7c-2.4-0.8-5.1-0.7-7.4,0.2c-2.3,1-4.5,2.3-6.5,3.9
	c-1.2,0.9-2.3,1.8-3.3,2.8c-5.4,5.6-6.7,14.3-5.1,21.9c0.5,2.5-1.9,4.9-4,6.4s-4.4,2.9-5.4,5.3c-1,2.2-0.4,4.8-0.6,7.2
	c-0.4,4.7-3.5,8.7-7.9,10.4c0.9,1.1,2.3,1.6,3.7,1.3c1.4-0.3,2.7-0.9,3.8-1.8c4.2-3.1,7.2-7.6,8.5-12.6c0.6,2.7,0.4,5.5,0.3,8.3
	c0.1,3.1-0.5,6.2-1.7,9c-1.2,2.9-3.3,5.3-6.1,6.7c2.7,1.3,5.6,0.4,7.8-1.6c2.2-2,3.7-4.6,4.5-7.5c1.5-4.6,2.1-9.4,1.8-14.2
	c2.5,4.2,3.4,9.1,2.5,13.8c-0.9,4.9-3.4,9.3-7.2,12.5c6.6-0.1,13-1.7,18.9-4.8c1.5-0.7,2.8-1.7,3.9-3c1.9-2.6,1.4-6.1,0.9-9.3
	c-0.4-2.5,2.7-6.1,0.9-7.9c-0.5-0.5-1.1-0.8-1.7-0.8c-6.5-0.9-12.3-4.6-15.1-10.5c-1.2-2.4-1.9-5.1-1.9-7.8c0-10.5,8.5-19,19-19
	c10.5,0,19,8.5,19,19c0,2.8-0.6,5.7-1.9,8.2c-0.2,3.8-0.8,7.6-1.9,11.3c-1.4,4.7-3.6,9.5-7.9,12c1.5,0.6,3.1,1,4.7,1
	c5.3,0.6,10.9,0.5,15.7-1.9C745.8,205.9,749.6,201,749.2,195.6z"/>
<path class="st4" d="M735.7,173.5c-14.2-5.7-28.2-6.9-41.9,0V162c0-4.1,3.3-7.5,7.5-7.5h28.5c3.3,0,5.9,2.6,5.9,5.9c0,0,0,0,0,0
	V173.5z"/>
<ellipse class="st5" cx="732.1" cy="175.8" rx="3" ry="4.7"/>
<rect x="93.4" y="171.6" class="st0" width="180.8" height="157.9"/>
<polygon class="st4" points="196.8,209.6 158,208.8 158,155.1 196.8,159 "/>
<path class="st4" d="M232.2,329.5h-83.7c0.5-3,1.5-6,2.8-8.8c2.4-4.4,5.3-13.8,7.7-22.2c1.4-4.9,2.5-9.4,3.3-12.3
	c0.5-2.1,0.9-3.4,0.9-3.4l41.1-16.6c0,0,1.2,2.1,3,5.6c0,0.1,0.1,0.1,0.1,0.2c1.3,2.5,3,5.7,4.8,9.4h0
	C219,294.8,228.2,314.5,232.2,329.5z"/>
<path class="st3" d="M166,186.7l-5.5,27.7l19,1.6c0,0,3.2-24.5,4-25.3S166,186.7,166,186.7z"/>
<circle class="st3" cx="178.2" cy="176.8" r="19"/>
<path class="st7" d="M160.4,206.5c0,0,18.2,4,19,3.2s22.1,3.2,23.7,10.3s-2.4,34.8-2.4,34.8s8.7,4,7.9,5.5s4.7,3.2,3.2,5.5
	s-30,43.5-43.5,42.7s-37.9-90.1-37.9-90.1s0.8-11.1,11.1-11.1S160.4,206.5,160.4,206.5z"/>
<path class="st3" d="M212.2,270.1c0,0-11.1,2.5-9.1,7.6s13.8,3.5,13.8,3.5L212.2,270.1z"/>
<path class="st7" d="M177.6,329.5h-29.1c-0.1,0.5-0.2,0.9-0.3,1.4c-1.4-0.6-2.8-1-4.3-1.4c-0.3-0.1-0.5-0.1-0.5-0.1
	s-6.3-23.7-15-52.9c-7.7-25.9,0.1-52.5,2-58.2v0c0.2-0.7,0.4-1.1,0.4-1.1l7.1-5.5l24.4,74.5l6.4,19.5c0,0,0.2,1.1,0.5,2.8
	c1,5,3.4,15.2,5.8,17C176.2,326.5,177.1,327.9,177.6,329.5z"/>
<path class="st7" d="M192.4,217.1l9.9,1l22.5,28.2c0,0,8.7,7.9,3.2,11.1c-5.5,3.2-7.9,9.5-7.9,9.5s7.1,15.8-3.2,18.2
	c0,0-7.1-15.8-9.5-17.4s3.2-7.9,3.2-7.9l-18.2-11.9L192.4,217.1z"/>
<path class="st4" d="M178.2,146c0,0-22.1-4-26.1,15.8c-0.9,4.6-1.6,9.2-1.9,13.9c-0.6,11.4-3.8,22.6-9.2,32.7l0,0l35.6,10.3
	c0,0-9.5-15-7.9-21.3c0.3-1.6,0.3-3.2-0.1-4.8c-8.9-5.5-11.7-17.2-6.2-26.1s17.2-11.7,26.1-6.2c8.9,5.5,11.7,17.2,6.2,26.1
	c-2.4,3.9-6.1,6.8-10.5,8.2c-2.6,5.8-4.1,12-0.5,16.3c4.5,5.5,9.8,10.3,15.8,14.2c0,0-4-19,2.4-30S201.9,147.6,178.2,146z"/>
<polygon class="st4" points="197.9,171.3 160.8,173.5 159.8,156.2 192,155 "/>
<circle class="st0" cx="100.9" cy="388.3" r="6.3"/>
<circle class="st0" cx="100.9" cy="423.6" r="6.3"/>
<circle class="st0" cx="100.9" cy="458.9" r="6.3"/>
<rect x="127.3" y="383.2" class="st0" width="119.8" height="10.1"/>
<rect x="127.3" y="418.5" class="st0" width="119.8" height="10.1"/>
<rect x="127.3" y="453.9" class="st0" width="119.8" height="10.1"/>
<circle class="st0" cx="374.6" cy="388.3" r="6.3"/>
<circle class="st0" cx="374.6" cy="423.6" r="6.3"/>
<circle class="st0" cx="374.6" cy="458.9" r="6.3"/>
<rect x="401.1" y="383.2" class="st0" width="119.8" height="10.1"/>
<rect x="401.1" y="418.5" class="st0" width="119.8" height="10.1"/>
<rect x="401.1" y="453.9" class="st0" width="119.8" height="10.1"/>
<circle class="st0" cx="646.6" cy="388.3" r="6.3"/>
<circle class="st0" cx="646.6" cy="423.6" r="6.3"/>
<circle class="st0" cx="646.6" cy="458.9" r="6.3"/>
<rect x="673.1" y="383.2" class="st0" width="119.8" height="10.1"/>
<rect x="673.1" y="418.5" class="st0" width="119.8" height="10.1"/>
<rect x="673.1" y="453.9" class="st0" width="119.8" height="10.1"/>
</svg>
